<?xml version="1.0" encoding="UTF-8" standalone="no"?>
<svg xmlns:xlink="http://www.w3.org/1999/xlink" height="264.6px" width="234.6px" xmlns="http://www.w3.org/2000/svg">
  <g transform="matrix(1.0, 0.0, 0.0, 1.0, 0.0, -0.05)">
    <path d="M230.25 4.5 Q234.6 8.85 234.6 15.05 L234.6 249.65 Q234.6 255.85 230.2 260.25 225.8 264.65 219.6 264.65 L14.95 264.65 Q8.75 264.65 4.4 260.25 0.0 255.85 0.0 249.65 L0.0 15.05 Q0.0 8.85 4.4 4.45 8.75 0.05 14.95 0.05 L219.7 0.05 Q225.85 0.1 230.25 4.5 M6.2 87.55 L6.2 153.8 6.2 257.6 227.1 257.6 226.9 163.6 226.9 109.75 227.1 6.35 6.2 6.35 6.2 87.55" fill="#ffffff" fill-rule="evenodd" stroke="none"/>
    <path d="M6.2 87.55 Q10.1 77.95 16.55 70.0 28.8 55.0 49.3 46.1 82.8 31.5 128.85 40.0 174.2 48.35 202.5 75.0 209.5 81.65 218.75 96.25 223.6 103.65 226.9 109.75 L226.9 163.6 Q222.85 174.7 216.0 183.75 203.8 199.65 183.6 208.55 164.55 216.7 145.35 219.65 122.95 223.15 102.05 219.45 79.85 215.4 59.65 205.4 39.9 195.6 25.65 182.3 12.7 170.05 6.2 153.8 L6.2 87.55 M200.25 142.7 Q202.85 126.25 197.85 111.05 192.85 96.25 180.85 83.3 159.2 60.2 123.85 53.7 88.0 47.05 61.35 60.75 46.35 68.7 37.3 81.25 28.4 93.65 25.8 110.3 23.25 128.1 26.75 143.25 30.65 160.45 41.9 172.65 52.85 184.3 68.2 192.45 83.9 200.95 101.3 204.3 117.75 207.25 135.35 203.95 150.7 200.8 165.3 193.2 180.1 185.6 189.15 172.3 197.7 159.55 200.25 142.7" fill="#015eb7" fill-rule="evenodd" stroke="none"/>
    <path d="M226.9 109.75 Q223.6 103.65 218.75 96.25 209.5 81.65 202.5 75.0 174.2 48.35 128.85 40.0 82.8 31.5 49.3 46.1 28.8 55.0 16.55 70.0 10.1 77.95 6.2 87.55 L6.2 6.35 227.1 6.35 226.9 109.75 M6.2 153.8 Q12.7 170.05 25.65 182.3 39.9 195.6 59.65 205.4 79.85 215.4 102.05 219.45 122.95 223.15 145.35 219.65 164.55 216.7 183.6 208.55 203.8 199.65 216.0 183.75 222.85 174.7 226.9 163.6 L227.1 257.6 6.2 257.6 6.2 153.8" fill="#0052af" fill-rule="evenodd" stroke="none"/>
    <path d="M200.25 142.7 Q197.7 159.55 189.15 172.3 180.1 185.6 165.3 193.2 150.7 200.8 135.35 203.95 117.75 207.25 101.3 204.3 83.9 200.95 68.2 192.45 52.85 184.3 41.9 172.65 30.65 160.45 26.75 143.25 23.25 128.1 25.8 110.3 28.4 93.65 37.3 81.25 46.35 68.7 61.35 60.75 88.0 47.05 123.85 53.7 159.2 60.2 180.85 83.3 192.85 96.25 197.85 111.05 202.85 126.25 200.25 142.7 M179.2 128.25 Q178.05 115.15 172.15 103.1 166.6 91.25 157.15 82.0 147.55 72.2 135.35 67.05 122.75 61.5 109.8 60.55 96.3 59.65 85.55 63.7 74.45 67.75 65.8 77.95 57.65 87.4 53.0 100.35 48.55 112.7 49.3 126.05 50.05 139.0 55.8 150.85 61.35 162.3 70.75 171.2 80.4 180.45 92.8 185.8 105.55 191.35 117.95 192.45 131.1 193.75 141.8 189.85 153.3 185.45 162.35 176.2 171.4 166.55 175.85 154.15 180.3 141.95 179.2 128.25" fill="#0169be" fill-rule="evenodd" stroke="none"/>
    <path d="M179.2 128.25 Q180.3 141.95 175.85 154.15 171.4 166.55 162.35 176.2 153.3 185.45 141.8 189.85 131.1 193.75 117.95 192.45 105.55 191.35 92.8 185.8 80.4 180.45 70.75 171.2 61.35 162.3 55.8 150.85 50.05 139.0 49.3 126.05 48.55 112.7 53.0 100.35 57.65 87.4 65.8 77.95 74.45 67.75 85.55 63.7 96.3 59.65 109.8 60.55 122.75 61.5 135.35 67.05 147.55 72.2 157.15 82.0 166.6 91.25 172.15 103.1 178.05 115.15 179.2 128.25 M147.0 97.35 Q139.6 91.65 130.9 88.65 121.65 85.35 111.65 85.35 92.8 85.35 76.7 97.75 56.55 113.3 56.55 129.35 56.55 138.8 61.9 147.85 66.9 156.4 75.2 162.85 83.0 168.8 91.85 172.3 101.85 176.2 111.65 176.2 121.1 176.2 130.9 171.55 138.5 168.05 147.0 161.55 155.5 154.9 160.3 147.3 165.7 138.6 165.7 129.35 165.7 120.1 160.3 111.6 155.5 103.85 147.0 97.35" fill="#0275c6" fill-rule="evenodd" stroke="none"/>
    <path d="M147.0 97.35 Q155.5 103.85 160.3 111.6 165.7 120.1 165.7 129.35 165.7 138.6 160.3 147.3 155.5 154.9 147.0 161.55 138.5 168.05 130.9 171.55 121.1 176.2 111.65 176.2 101.85 176.2 91.85 172.3 83.0 168.8 75.2 162.85 66.9 156.4 61.9 147.85 56.55 138.8 56.55 129.35 56.55 113.3 76.7 97.75 92.8 85.35 111.65 85.35 121.65 85.35 130.9 88.65 139.6 91.65 147.0 97.35" fill="#0280cd" fill-rule="evenodd" stroke="none"/>
  </g>
</svg>
