<?xml version="1.0" encoding="UTF-8" standalone="no"?>
<svg
   xmlns:dc="http://purl.org/dc/elements/1.1/"
   xmlns:cc="http://creativecommons.org/ns#"
   xmlns:rdf="http://www.w3.org/1999/02/22-rdf-syntax-ns#"
   xmlns:svg="http://www.w3.org/2000/svg"
   xmlns="http://www.w3.org/2000/svg"
   xmlns:sodipodi="http://sodipodi.sourceforge.net/DTD/sodipodi-0.dtd"
   xmlns:inkscape="http://www.inkscape.org/namespaces/inkscape"
   height="144.55"
   width="710.95001"
   version="1.1"
   id="svg28"
   sodipodi:docname="deck-con.svg"
   inkscape:version="0.92.3 (2405546, 2018-03-11)">
  <metadata
     id="metadata34">
    <rdf:RDF>
      <cc:Work
         rdf:about="">
        <dc:format>image/svg+xml</dc:format>
        <dc:type
           rdf:resource="http://purl.org/dc/dcmitype/StillImage" />
        <dc:title></dc:title>
      </cc:Work>
    </rdf:RDF>
  </metadata>
  <defs
     id="defs32" />
  <sodipodi:namedview
     pagecolor="#ffffff"
     bordercolor="#666666"
     borderopacity="1"
     objecttolerance="10"
     gridtolerance="10"
     guidetolerance="10"
     inkscape:pageopacity="0"
     inkscape:pageshadow="2"
     inkscape:window-width="1920"
     inkscape:window-height="1057"
     id="namedview30"
     showgrid="false"
     inkscape:zoom="2.2835883"
     inkscape:cx="480.6887"
     inkscape:cy="100.5551"
     inkscape:window-x="1592"
     inkscape:window-y="-8"
     inkscape:window-maximized="1"
     inkscape:current-layer="g26" />
  <g
     transform="translate(-18.65,-14.250049)"
     id="g26">
    <path
       d="m 717.8502,18.5 h -3 l 0.1,-4.512661 3,-0.43881 -0.1,4.951471 m 3,0 0.13871,-4.448295 1.85323,0.09676 L 722.8002,18.5 h -1.95 M 24.542136,14.032352 26.511489,14.012999 26.650195,18.5 h -1.95 m 4.85,-4.35153 2.961294,-0.07741 L 32.650195,18.5 h -3"
       id="path2"
       inkscape:connector-curvature="0"
       style="fill:#78533a;fill-rule:evenodd;stroke:none"
       sodipodi:nodetypes="cccccccccccccccccc" />
    <path
       d="m 727.9002,15 h -1.5 -1.5 m -7.05,3.5 0.1,-4.951471 3.03871,0.503176 L 720.8502,18.5 h -3 m -3,0 h -3.5 l 0.20948,-4.403184 3.39052,-0.109477 m -688.438711,0.02566 3.038706,0.135471 0.1,4.35153 h -3 m 5.861294,-4.428942 3.480647,-0.01935 L 36.150195,18.5 h -3.5"
       id="path4"
       inkscape:connector-curvature="0"
       style="fill:#5c371e;fill-rule:evenodd;stroke:none"
       sodipodi:nodetypes="cccccccccccccccccccc" />
    <path
       d="m 721.13231,159.08999 -2.63685,0.0548 C 718.66213,113.1781 719.46687,66.066667 720.8002,20 l 0.05,-1.5 h 1.95 V 20 c -1.1,46.866667 -1.60122,93.92332 -1.66789,139.08999 m -5.58211,4e-5 -3,-0.0821 C 712.71687,113.04125 713.46687,66.066667 714.8002,20 l 0.05,-1.5 h 3 l -0.05,1.5 c -1.33333,46.033333 -2.08333,93.09003 -2.25,139.09003 m -680.666123,0.0824 -2.651647,0.23224 C 32.03243,112.73804 31.033528,65.366667 29.700195,20 l -0.05,-1.5 h 3 l 0.05,1.5 c 1.333333,45.4 2.332235,93.04232 2.532235,139.67565 m -6.270941,-0.6193 -2.395176,0.46447 C 26.53298,114.35415 25.833528,66.866667 24.700195,20 v -1.5 h 1.95 l 0.05,1.5 c 1.333333,45.4 2.061294,92.42302 2.261294,139.05635 M 21.100195,15 c 155.933295,-0.112322 0.35,0 0.35,0"
       id="path6"
       inkscape:connector-curvature="0"
       style="fill:#a1795b;fill-rule:evenodd;stroke:none"
       sodipodi:nodetypes="cccccccccccccccccccccccccccccc" />
    <path
       d="m 718.49546,159.14479 -2.94526,-0.0548 c 0.16667,-46 0.91667,-93.056697 2.25,-139.09003 l 0.05,-1.5 h 3 l -0.05,1.5 c -1.33333,46.066667 -2.13807,93.17812 -2.30474,139.14479 m -5.94526,-0.13686 -3.55474,0.13076 0.10474,-11.78869 c 0.2,-41.66667 0.93333,-84.116667 2.2,-127.35 l 0.05,-1.5 h 3.5 l -0.05,1.5 c -1.33333,46.066667 -2.08333,93.04126 -2.25,139.00793 M 38.450195,147.35 l 0.01129,12.59659 -3.577412,-0.77412 C 34.684077,112.53914 34.033528,65.4 32.700195,20 l -0.05,-1.5 h 3.5 l 0.05,1.5 c 1.266667,42.433333 2.016667,84.88333 2.25,127.35 m -6.217765,12.05471 -3.270941,-0.34836 C 28.761489,112.42302 28.033528,65.4 26.700195,20 l -0.05,-1.5 h 3 l 0.05,1.5 c 1.333333,45.366667 2.332235,92.73804 2.532235,139.40471 M 717.9502,15 h -3 -3.5 -675.400005 -3.5 -3 -3 -1.95 -3.15 C 457.99387,14.15322 459.09562,14.128578 724.9002,15 h -2 -1.95 -3"
       id="path8"
       inkscape:connector-curvature="0"
       style="fill:#855d3f;fill-rule:evenodd;stroke:none"
       sodipodi:nodetypes="ccccccccccccccccccccccccccccccccccccccccccc" />
    <path
       d="m 709.1002,160.97448 h -5.35 l 1.2,-139.908295 H 41.350195 l 2.95,139.908295 h -5.85 c -0.233333,-46.83831 -0.983333,-93.658227 -2.25,-140.459766 l -0.05,-1.654414 -0.158059,-4.808592 675.567544,0.04511 -0.20948,4.763484 -0.05,1.654414 c -1.26667,47.683893 -2,94.503816 -2.2,140.459766"
       id="path10"
       inkscape:connector-curvature="0"
       style="fill:#c5c0b0;fill-rule:evenodd;stroke:none;stroke-width:1.05021083"
       sodipodi:nodetypes="ccccccccccccc" />
    <path
       d="M 726.38085,14.109764 726.3002,18.5 h -3.5 l 0.0419,-4.351535 M 21.200195,18.5 l -0.1,-3.5 0.35,-1.18053 3.091941,0.212882 L 24.700195,18.5 h -3.5"
       id="path12"
       inkscape:connector-curvature="0"
       style="fill:#926d54;fill-rule:evenodd;stroke:none"
       sodipodi:nodetypes="cccccccccc" />
    <path
       d="M 726.3002,18.5 V 20 c -1.1,46.833333 -1.7107,93.83529 -1.77737,139.03529 l -3.39052,0.0547 C 721.19901,113.92336 721.7002,66.866667 722.8002,20 v -1.5 h 3.5 M 26.566313,159.52082 22.911489,159.09507 C 22.878156,113.89507 22.333528,66.833333 21.200195,20 v -1.5 h 3.5 V 20 c 1.133333,46.866667 1.832784,94.35416 1.866118,139.52082"
       id="path14"
       inkscape:connector-curvature="0"
       style="fill:#dbc2ac;fill-rule:evenodd;stroke:none"
       sodipodi:nodetypes="cccccccccccccc" />
    <path
       d="M 703.7502,160.04931 H 44.300195 L 41.350195,20.5 H 704.9502 l -1.2,139.54931"
       id="path16"
       inkscape:connector-curvature="0"
       style="fill:#f0ebdb;fill-rule:evenodd;stroke:none;stroke-width:1.04886258" />
    <path
       d="m 726.38085,14.109764 c -1.1,46.833333 -1.76398,99.397096 -1.83065,144.597096 m -15.55474,0.21895 0.10474,-11.57581 m -670.650005,0 0.05,11.78377 m -15.588706,-0.0387 C 22.46207,107.66604 22.381335,59.143205 21.100195,14.303294 M 711.4502,15 c -1.26667,43.233333 -2.15,90.68333 -2.35,132.35 M 35.972783,14.245235 c 1.266667,42.433333 2.166667,89.883325 2.4,132.349995"
       id="path24"
       inkscape:connector-curvature="0"
       style="fill:none;stroke:#000000;stroke-width:1.5;stroke-linecap:round;stroke-linejoin:round"
       sodipodi:nodetypes="cccccccccccc" />
  </g>
</svg>
