<?xml version="1.0" encoding="UTF-8" standalone="no"?>
<svg
   xmlns:dc="http://purl.org/dc/elements/1.1/"
   xmlns:cc="http://creativecommons.org/ns#"
   xmlns:rdf="http://www.w3.org/1999/02/22-rdf-syntax-ns#"
   xmlns:svg="http://www.w3.org/2000/svg"
   xmlns="http://www.w3.org/2000/svg"
   xmlns:sodipodi="http://sodipodi.sourceforge.net/DTD/sodipodi-0.dtd"
   xmlns:inkscape="http://www.inkscape.org/namespaces/inkscape"
   height="500"
   width="872.25"
   version="1.1"
   id="svg206"
   sodipodi:docname="69.svg"
   inkscape:version="0.92.3 (2405546, 2018-03-11)">
  <metadata
     id="metadata210">
    <rdf:RDF>
      <cc:Work
         rdf:about="">
        <dc:format>image/svg+xml</dc:format>
        <dc:type
           rdf:resource="http://purl.org/dc/dcmitype/StillImage" />
        <dc:title></dc:title>
      </cc:Work>
    </rdf:RDF>
  </metadata>
  <sodipodi:namedview
     pagecolor="#ffffff"
     bordercolor="#666666"
     borderopacity="1"
     objecttolerance="10"
     gridtolerance="10"
     guidetolerance="10"
     inkscape:pageopacity="0"
     inkscape:pageshadow="2"
     inkscape:window-width="1920"
     inkscape:window-height="1057"
     id="namedview208"
     showgrid="false"
     inkscape:zoom="0.93064899"
     inkscape:cx="522.01419"
     inkscape:cy="282.06345"
     inkscape:window-x="1592"
     inkscape:window-y="-8"
     inkscape:window-maximized="1"
     inkscape:current-layer="g1045" />
  <defs
     id="defs204">
    <linearGradient
       gradientTransform="matrix(8e-4,0.0217,-0.0676,0.0024,836.7,172.9)"
       gradientUnits="userSpaceOnUse"
       id="gradient0"
       spreadMethod="pad"
       x1="-819.20001"
       x2="819.20001">
      <stop
         offset="0.09803921568627451"
         stop-color="#dbb99a"
         id="stop84" />
      <stop
         offset="0.9254901960784314"
         stop-color="#d6a584"
         id="stop86" />
    </linearGradient>
    <linearGradient
       gradientTransform="matrix(4e-4,0.015,-0.0673,0.0018,809.05,173.9)"
       gradientUnits="userSpaceOnUse"
       id="gradient1"
       spreadMethod="pad"
       x1="-819.20001"
       x2="819.20001">
      <stop
         offset="0.09803921568627451"
         stop-color="#dbb99a"
         id="stop89" />
      <stop
         offset="0.9254901960784314"
         stop-color="#d6a584"
         id="stop91" />
    </linearGradient>
    <linearGradient
       gradientTransform="matrix(4e-4,0.0156,-0.0673,0.0018,782.5,174.75)"
       gradientUnits="userSpaceOnUse"
       id="gradient2"
       spreadMethod="pad"
       x1="-819.20001"
       x2="819.20001">
      <stop
         offset="0.09803921568627451"
         stop-color="#dbb99a"
         id="stop94" />
      <stop
         offset="0.9254901960784314"
         stop-color="#d6a584"
         id="stop96" />
    </linearGradient>
    <linearGradient
       gradientTransform="matrix(0.0019,0.0357,-0.0681,0.0036,726.45,176.25)"
       gradientUnits="userSpaceOnUse"
       id="gradient3"
       spreadMethod="pad"
       x1="-819.20001"
       x2="819.20001">
      <stop
         offset="0.09803921568627451"
         stop-color="#dbb99a"
         id="stop99" />
      <stop
         offset="0.9254901960784314"
         stop-color="#d6a584"
         id="stop101" />
    </linearGradient>
    <linearGradient
       gradientTransform="matrix(4e-4,0.0149,-0.0671,0.0018,640.9,178.25)"
       gradientUnits="userSpaceOnUse"
       id="gradient4"
       spreadMethod="pad"
       x1="-819.20001"
       x2="819.20001">
      <stop
         offset="0.09803921568627451"
         stop-color="#dbb99a"
         id="stop104" />
      <stop
         offset="0.9254901960784314"
         stop-color="#d6a584"
         id="stop106" />
    </linearGradient>
    <linearGradient
       gradientTransform="matrix(5e-4,0.0152,-0.0671,0.0023,616.2,178.65)"
       gradientUnits="userSpaceOnUse"
       id="gradient5"
       spreadMethod="pad"
       x1="-819.20001"
       x2="819.20001">
      <stop
         offset="0.09803921568627451"
         stop-color="#dbb99a"
         id="stop109" />
      <stop
         offset="0.9254901960784314"
         stop-color="#d6a584"
         id="stop111" />
    </linearGradient>
    <linearGradient
       gradientTransform="matrix(0.0011,0.0163,-0.067,0.0047,668.3,177.75)"
       gradientUnits="userSpaceOnUse"
       id="gradient6"
       spreadMethod="pad"
       x1="-819.20001"
       x2="819.20001">
      <stop
         offset="0.09803921568627451"
         stop-color="#dbb99a"
         id="stop114" />
      <stop
         offset="0.9254901960784314"
         stop-color="#d6a584"
         id="stop116" />
    </linearGradient>
    <linearGradient
       gradientTransform="matrix(5e-4,0.0176,-0.067,0.0018,532.45,179.75)"
       gradientUnits="userSpaceOnUse"
       id="gradient7"
       spreadMethod="pad"
       x1="-819.20001"
       x2="819.20001">
      <stop
         offset="0.09803921568627451"
         stop-color="#dbb99a"
         id="stop119" />
      <stop
         offset="0.9254901960784314"
         stop-color="#d6a584"
         id="stop121" />
    </linearGradient>
    <linearGradient
       gradientTransform="matrix(2e-4,0.0161,-0.067,9e-4,558.8,179.5)"
       gradientUnits="userSpaceOnUse"
       id="gradient8"
       spreadMethod="pad"
       x1="-819.20001"
       x2="819.20001">
      <stop
         offset="0.09803921568627451"
         stop-color="#dbb99a"
         id="stop124" />
      <stop
         offset="0.9254901960784314"
         stop-color="#d6a584"
         id="stop126" />
    </linearGradient>
    <linearGradient
       gradientTransform="matrix(3e-4,0.0166,-0.0671,0.0012,587.95,179.15)"
       gradientUnits="userSpaceOnUse"
       id="gradient9"
       spreadMethod="pad"
       x1="-819.20001"
       x2="819.20001">
      <stop
         offset="0.09803921568627451"
         stop-color="#dbb99a"
         id="stop129" />
      <stop
         offset="0.9254901960784314"
         stop-color="#d6a584"
         id="stop131" />
    </linearGradient>
    <linearGradient
       gradientTransform="matrix(-2e-4,0.037,-0.067,-3e-4,415.7,180.15)"
       gradientUnits="userSpaceOnUse"
       id="gradient10"
       spreadMethod="pad"
       x1="-819.20001"
       x2="819.20001">
      <stop
         offset="0.09803921568627451"
         stop-color="#dbb99a"
         id="stop134" />
      <stop
         offset="0.9254901960784314"
         stop-color="#d6a584"
         id="stop136" />
    </linearGradient>
    <linearGradient
       gradientTransform="matrix(-4e-4,0.0177,-0.0669,-0.0015,480.4,180.15)"
       gradientUnits="userSpaceOnUse"
       id="gradient11"
       spreadMethod="pad"
       x1="-819.20001"
       x2="819.20001">
      <stop
         offset="0.09803921568627451"
         stop-color="#dbb99a"
         id="stop139" />
      <stop
         offset="0.9254901960784314"
         stop-color="#d6a584"
         id="stop141" />
    </linearGradient>
    <linearGradient
       gradientTransform="matrix(9e-4,0.0181,-0.0668,0.0032,506.9,179.95)"
       gradientUnits="userSpaceOnUse"
       id="gradient12"
       spreadMethod="pad"
       x1="-819.20001"
       x2="819.20001">
      <stop
         offset="0.09803921568627451"
         stop-color="#dbb99a"
         id="stop144" />
      <stop
         offset="0.9254901960784314"
         stop-color="#d6a584"
         id="stop146" />
    </linearGradient>
    <linearGradient
       gradientTransform="matrix(7e-4,0.0182,-0.0669,0.0026,348.1,180)"
       gradientUnits="userSpaceOnUse"
       id="gradient13"
       spreadMethod="pad"
       x1="-819.20001"
       x2="819.20001">
      <stop
         offset="0.09803921568627451"
         stop-color="#dbb99a"
         id="stop149" />
      <stop
         offset="0.9254901960784314"
         stop-color="#d6a584"
         id="stop151" />
    </linearGradient>
    <linearGradient
       gradientTransform="matrix(-1e-4,0.0157,-0.067,-6e-4,320.65,179.7)"
       gradientUnits="userSpaceOnUse"
       id="gradient14"
       spreadMethod="pad"
       x1="-819.20001"
       x2="819.20001">
      <stop
         offset="0.09803921568627451"
         stop-color="#dbb99a"
         id="stop154" />
      <stop
         offset="0.9254901960784314"
         stop-color="#d6a584"
         id="stop156" />
    </linearGradient>
    <linearGradient
       gradientTransform="matrix(-1e-4,0.0166,-0.067,-4e-4,292.7,179.45)"
       gradientUnits="userSpaceOnUse"
       id="gradient15"
       spreadMethod="pad"
       x1="-819.20001"
       x2="819.20001">
      <stop
         offset="0.09803921568627451"
         stop-color="#dbb99a"
         id="stop159" />
      <stop
         offset="0.9254901960784314"
         stop-color="#d6a584"
         id="stop161" />
    </linearGradient>
    <linearGradient
       gradientTransform="matrix(-1e-4,0.0182,-0.0671,-4e-4,205.65,178)"
       gradientUnits="userSpaceOnUse"
       id="gradient16"
       spreadMethod="pad"
       x1="-819.20001"
       x2="819.20001">
      <stop
         offset="0.09803921568627451"
         stop-color="#dbb99a"
         id="stop164" />
      <stop
         offset="0.9254901960784314"
         stop-color="#d6a584"
         id="stop166" />
    </linearGradient>
    <linearGradient
       gradientTransform="matrix(5e-4,0.0155,-0.0671,0.0021,233.15,178.5)"
       gradientUnits="userSpaceOnUse"
       id="gradient17"
       spreadMethod="pad"
       x1="-819.20001"
       x2="819.20001">
      <stop
         offset="0.09803921568627451"
         stop-color="#dbb99a"
         id="stop169" />
      <stop
         offset="0.9254901960784314"
         stop-color="#d6a584"
         id="stop171" />
    </linearGradient>
    <linearGradient
       gradientTransform="matrix(0,0.0186,-0.0671,0,263.15,179)"
       gradientUnits="userSpaceOnUse"
       id="gradient18"
       spreadMethod="pad"
       x1="-819.20001"
       x2="819.20001">
      <stop
         offset="0.09803921568627451"
         stop-color="#dbb99a"
         id="stop174" />
      <stop
         offset="0.9254901960784314"
         stop-color="#d6a584"
         id="stop176" />
    </linearGradient>
    <linearGradient
       gradientTransform="matrix(-0.0012,0.0545,-0.0684,-0.0015,95.95,175.05)"
       gradientUnits="userSpaceOnUse"
       id="gradient19"
       spreadMethod="pad"
       x1="-819.20001"
       x2="819.20001">
      <stop
         offset="0.09803921568627451"
         stop-color="#dbb99a"
         id="stop179" />
      <stop
         offset="0.9254901960784314"
         stop-color="#d6a584"
         id="stop181" />
    </linearGradient>
    <linearGradient
       gradientTransform="matrix(2e-4,0.0154,-0.0672,7e-4,153.85,176.75)"
       gradientUnits="userSpaceOnUse"
       id="gradient20"
       spreadMethod="pad"
       x1="-819.20001"
       x2="819.20001">
      <stop
         offset="0.09803921568627451"
         stop-color="#dbb99a"
         id="stop184" />
      <stop
         offset="0.9254901960784314"
         stop-color="#d6a584"
         id="stop186" />
    </linearGradient>
    <linearGradient
       gradientTransform="matrix(-1e-4,0.0156,-0.0672,-6e-4,180.75,177.4)"
       gradientUnits="userSpaceOnUse"
       id="gradient21"
       spreadMethod="pad"
       x1="-819.20001"
       x2="819.20001">
      <stop
         offset="0.09803921568627451"
         stop-color="#dbb99a"
         id="stop189" />
      <stop
         offset="0.9254901960784314"
         stop-color="#d6a584"
         id="stop191" />
    </linearGradient>
    <linearGradient
       gradientTransform="matrix(-1e-4,0.0137,-0.0673,-6e-4,41.5,173.15)"
       gradientUnits="userSpaceOnUse"
       id="gradient22"
       spreadMethod="pad"
       x1="-819.20001"
       x2="819.20001">
      <stop
         offset="0.09803921568627451"
         stop-color="#dbb99a"
         id="stop194" />
      <stop
         offset="0.9254901960784314"
         stop-color="#d6a584"
         id="stop196" />
    </linearGradient>
    <linearGradient
       gradientTransform="matrix(1e-4,0.0147,-0.0674,6e-4,16.3,172.25)"
       gradientUnits="userSpaceOnUse"
       id="gradient23"
       spreadMethod="pad"
       x1="-819.20001"
       x2="819.20001">
      <stop
         offset="0.09803921568627451"
         stop-color="#dbb99a"
         id="stop199" />
      <stop
         offset="0.9254901960784314"
         stop-color="#d6a584"
         id="stop201" />
    </linearGradient>
    <linearGradient
       x2="819.20001"
       x1="-819.20001"
       spreadMethod="pad"
       id="gradient0-3"
       gradientUnits="userSpaceOnUse"
       gradientTransform="matrix(1e-4,-0.0123,0.028,2e-4,446.8,303.95)">
      <stop
         id="stop1047"
         stop-color="#dbb99a"
         offset="0.09803921568627451" />
      <stop
         id="stop1049"
         stop-color="#ead1b8"
         offset="1.0" />
    </linearGradient>
  </defs>
  <g
     id="g1045"
     transform="matrix(1.0242875,0,0,1.0242875,-19.095735,-32.2012)"
     style="opacity:1">
    <path
       id="path1017"
       d="m 872.25,257.4 v 26.25 h -0.05 q -0.55,-0.55 -1.25,-0.55 H 870.8 Q 437.7,301.25 20,281.25 19.15,281.2 18.55,281.8 H 18.1 v -24.75 l 42.8,1.65 2.4,2 q 11.85,9.45 28.65,9.45 19.15,0 40.8,-8.65 v -0.45 h 1.1 q 124.2,3.65 250.95,4.3 15.6,7 38,7 22.05,0 39.1,-6.25 v -0.6 h 1.65 q 124.65,-0.25 251.75,-3.3 l 4.55,1.45 q 17.6,5.1 38.1,5.1 22.9,0 38.45,-7.5 l 2.65,-1.35 73.2,-2.5"
       inkscape:connector-curvature="0"
       style="opacity:1;fill:#ffecd2;fill-rule:evenodd;stroke:none" />
    <path
       id="path1019"
       d="m 872.25,283.65 v 0.05 q 0.55,0.5 0.6,1.3 v 0.05 q 0.05,0.8 -0.5,1.4 l -0.1,0.1 q -0.55,0.5 -1.3,0.55 h -0.1 Q 437.65,305.25 19.8,285.25 19,285.2 18.45,284.6 l -0.35,-0.45 -0.2,-1 0.2,-0.8 0.45,-0.55 q 0.6,-0.6 1.45,-0.55 417.7,20 850.8,1.85 h 0.15 q 0.7,0 1.25,0.55 h 0.05 M 74.55,354.5 q 1.85,2.8 5.05,2.85 3.05,-0.1 10.55,-4.35 8.5,-4.85 12.6,-4.75 4.5,-0.05 9.25,4.25 3.65,3.25 5.8,3.4 2.05,-0.1 6.35,-2.8 5.35,-3.45 7.5,-3.35 2.25,-0.15 6.45,3.65 3.05,2.75 5.2,2.85 2.7,-0.05 6.15,-2.9 4.45,-3.7 7.85,-3.6 1.45,-0.15 6.35,3.15 3.85,2.6 7.3,2.65 3.25,-0.05 11.15,-3.65 8.65,-4.05 13.75,-4 3.65,-0.05 8.45,3.4 3.75,2.7 5.55,2.8 2.4,-0.05 8.5,-2.95 7.05,-3.3 9.35,-3.25 2.8,0 4.65,1.35 l 2.75,2.6 q 2.7,2.95 7.65,2.95 5.3,0 9.55,-2.95 5.15,-3.7 7.9,-3.6 3.9,-0.05 7.1,3.45 2.3,2.4 6.4,2.4 3.2,-0.05 8.6,-3.05 6.3,-3.6 9.25,-3.5 3.2,-0.05 8.45,3.15 4.25,2.6 6.65,2.65 3.85,-0.05 9.35,-2.25 v 0.05 q 6.1,-2.6 9.2,-2.55 3.25,-0.05 9.85,3.5 5.75,3.05 10.65,3.05 3.75,0 8.5,-1.7 5.3,-1.9 9.35,-1.9 5.55,0 10.95,3.8 4.5,3.1 7.8,3.15 3.35,-0.05 9.45,-3.65 7.1,-4.15 10.2,-4.05 3.2,-0.05 10.5,2.5 6.55,2.2 9.7,2.25 3.1,-0.1 8.25,-3.85 h 0.05 q 6.25,-4.65 14.3,-2.3 7.3,2.15 13.75,5 5.95,2.55 8.9,2.6 5.6,0 12,-3.25 v -0.05 q 7.2,-3.65 11.45,-3.6 1.8,-0.05 10,3.2 7.35,2.9 10.35,2.95 3.9,0 8.15,-1.95 v -0.05 q 5.05,-2.4 8.4,-2.35 2.45,-0.15 5.85,3.35 2.25,2.35 3.95,2.45 2.4,-0.05 7.75,-2.85 6.35,-3.4 8.5,-3.3 1.3,-0.05 5.4,1.55 3.35,1.3 5.3,1.35 3.8,-0.05 8.35,-3 5.4,-3.6 9.3,-3.55 3.45,-0.05 8.95,2.7 4.6,2.35 7.05,2.4 3.05,-0.05 8.15,-2.4 5.85,-2.75 8.55,-2.7 3.2,-0.05 9.1,2.7 5,2.35 7.5,2.4 2.35,-0.1 8.05,-3.25 6.5,-3.7 11.95,-3.65 5.55,-0.05 12.45,4.25 6,3.7 10.65,3.75 1.85,-0.05 7.4,-1.6 6.15,-1.75 8.75,-1.7 3.15,0 5.3,2.3 v 0.05 q 1.3,1.3 2.95,1.3 3.9,-0.05 8.4,-3 5.3,-3.55 11.05,-3.55 4.4,0 9.05,2.15 3.9,1.85 6.75,1.85 5.9,0 8,-1.75 l 2,-1.7 -0.2,0.05 q 1.4,-0.95 3.85,-0.95 1.05,0 7.6,1.5 6.1,1.4 10.05,1.4 4.4,0 6.2,-0.9 2.25,-1.3 4.75,-1.3 2.1,-0.05 7.5,1.75 v 0.05 q 4.75,1.5 7.7,1.5 4.05,0 8.85,-1.7 5.35,-1.95 8.85,-1.95 2.55,-0.05 7.7,1.95 4.35,1.65 5.55,1.7 1.3,-0.05 6.45,-1.9 5.85,-2.15 7.6,-2.1 2.15,-0.05 5.4,2.05 2.4,1.55 6.2,1.55 3.4,0 6.65,-1.85 h 0.05 q 5.65,-3.15 7.7,-3.85 h 0.05 q 1.7,-0.6 5.45,-1.25 h 0.05 l 2.65,-0.45 1.4,-0.3 1.1,-0.3 0.4,-0.1 0.65,-0.15 1.1,0.1 q 0.55,0.3 0.75,0.9 0.15,0.55 -0.1,1.1 l -0.9,0.75 -1.1,0.3 -0.4,0.1 -1.5,0.35 -1.4,0.25 -2.2,0.4 h 0.05 q -3.5,0.6 -5.05,1.15 -1.95,0.65 -7.25,3.6 -3.95,2.25 -8.15,2.25 -4.8,0 -7.85,-2.05 -2.3,-1.5 -3.75,-1.55 -1.45,0.05 -6.55,1.9 h -0.05 q -5.5,2 -7.2,2.1 l 49.4,136.75 14.3,39.55 H 883.4 L 872.25,500 839.05,408.15 819.45,353.9 816,352.65 h -0.05 q -2.55,-1 -4.3,-1.4 l 18.25,54.85 37.95,113.95 3.6,10.8 -5.65,1.05 -3.75,-11.85 -36.5,-114.9 -17.2,-54.2 q -2.85,0.25 -6.8,1.7 l -0.05,0.05 q -5.05,2.45 -8.95,2.4 -3.95,-0.1 -9.55,-2.25 -4.75,-1.55 -6.55,-1.6 -1.7,0 -3.25,1.45 -1.5,1.45 -6.3,1.5 -4.85,0.05 -12.1,-2.25 h -0.05 l -6.9,-1.4 q -1.45,0 -2.25,0.5 l -0.8,0.2 q 0.3,0.25 -0.55,1.1 -2.6,3.6 -8,3.3 -5.4,-0.3 -9.7,-2.5 -4.35,-2.25 -8.15,-2.25 -4.85,0 -9.4,3.05 -4.55,3 -8.6,3.45 l 37.4,162.65 8.95,38.9 h -3.05 l -8.95,-38.9 -31.25,-136 -6.15,-26.75 q -1.95,-0.5 -3.5,-2.1 h -0.05 q -1.25,-1.4 -3.1,-1.4 l -3.65,0.65 5.9,28.25 28.5,137.35 8.05,38.9 -4.5,0.4 -7.85,-39.3 -27.55,-137.8 -5.4,-26.8 -0.05,-0.15 -1.3,0.4 q -5.5,1.9 -8.7,2.2 -3.2,0.3 -10.5,-4.2 -7.35,-4.55 -12.2,-4.6 -4.75,0.05 -10.95,4.05 -6.2,4 -9.1,3.95 -2.85,-0.15 -8.35,-3.15 -5.5,-3 -8.2,-3.05 -2.3,0.05 -8.1,3 -5.8,2.9 -9.05,2.9 -3.25,0 -7.9,-2.9 -4.7,-2.95 -7.65,-3 -3.2,0.05 -8.7,3.75 -2.15,1.4 -3.9,2.2 l 15.25,163.2 2.65,28.65 h -3 l -2.65,-28.65 -13.9,-148.5 -1.3,-13.65 -1.7,0.1 q -3.05,-0.3 -6.45,-1.8 l 0.95,14.9 9.5,148.95 1.8,28.65 -4.8,1.45 -1.6,-30.1 -8.05,-149.1 -0.9,-16 -1.55,-0.4 q -1.75,0.1 -7.5,3.25 -5.75,3.1 -8.15,3.5 -2.45,0.4 -5.7,-2.9 -3.25,-3.35 -4.7,-3.5 -2.85,0.05 -7.1,2.05 -5.5,3.45 -9.35,3.35 -3.85,-0.15 -11.35,-3.65 -7.5,-3.5 -9.1,-3.55 -3.75,0.05 -10.1,3.3 -8.2,4.35 -12.65,4.15 -4.5,-0.2 -10.75,-3.2 -6.3,-3 -13.45,-5.05 -5.15,-1.5 -9.4,0.45 l 11.75,167.3 2.65,38.2 h -3 l -2.75,-39.05 -10.5,-149.85 -1.05,-14.8 q -5.8,4.35 -9.25,4.35 l 0.15,10.65 1.65,149.65 0.45,41.9 -4.45,-2.85 L 420,519.2 419.35,369.6 419.3,358.55 q -3.15,-0.65 -7.8,-2.4 h -0.05 q -6.6,-2.3 -9.5,-2.35 -2.6,0.1 -9.05,4.1 -6.45,4 -10.15,4.45 -3.7,0.4 -9.1,-3.7 -5.45,-4.1 -10.1,-4.1 -3.65,0 -8.35,1.7 v 0.05 q -4.95,2.4 -9.65,2.65 -4.75,0.2 -11.15,-3.55 -6.45,-3.75 -9.2,-3.8 -2.7,0.05 -8.05,2.3 -5.7,3.3 -9,3.75 l -1.55,17.55 -12.65,144 -2.85,32.5 -4.05,-0.7 2.9,-30.95 13.5,-144.6 1.65,-18.05 q -2.9,-0.8 -6.45,-3.45 -2.5,-1.85 -4.35,-2.65 l -2.4,25.1 -13.7,143.65 -2.95,30.95 h -3.05 l 2.95,-30.9 v -0.05 L 291.3,350.6 q -2.5,0.2 -8.1,3.8 -5.9,3.75 -10.65,4 -4.75,0.2 -7.4,-4.65 l -0.05,-0.05 v 0.05 q -2.2,-2.45 -4.9,-2.5 -2.05,0.1 -6.15,3.05 H 254 q -4.9,4.05 -11.1,4.5 -6.2,0.45 -8.9,-3.1 l -3.2,-3.9 -0.1,-0.1 q -1.2,-0.8 -3,-0.8 -1.9,0.1 -8.45,3.35 -6.6,3.25 -9.2,3.7 -2.65,0.45 -7,-3.25 -4.35,-3.75 -7.2,-3.8 -4.6,0.05 -12.5,3.7 v 0.05 q -5.7,3.45 -9.3,4.65 l -6.3,32.65 -24.85,128.1 -3,15.5 H 135 l 3.2,-15.5 26.05,-127.55 6.6,-32.5 v -0.1 l -0.7,-0.05 q -3.75,-0.55 -7.8,-3.75 l -1.75,-1.3 -8.5,39.8 -26.95,125.45 -3.35,15.5 h -3.1 l 3.35,-15.5 35.85,-167.05 -0.6,-0.25 q -2.5,0.1 -6.2,3.85 -3.7,3.7 -7.25,3.25 -3.6,-0.45 -7.15,-3.7 -3.6,-3.25 -5.05,-3.4 -1.65,0.1 -5.85,2.85 l -0.05,0.05 q -5.8,4.8 -8.15,4.95 -2.35,0.1 -7.6,-5.85 v -0.05 q -3.75,-3.4 -7.25,-3.45 -3.6,0.1 -11.55,4.95 -8,4.85 -12.2,5.2 -4.1,0.35 -7,-5.35 -1.85,-2.9 -4.95,-2.95 -2.25,0.05 -4.95,1.8 -3.7,2.25 -5.95,2.2 -2.4,0.05 -4.65,-1.7 l -20.8,67.7 -12.6,41 -2.6,8.45 -3.9,0.35 0.05,-0.05 6.45,-20.6 8.75,-27.95 22.3,-71.3 -0.65,-0.9 v 0.05 q -2.55,-3.65 -4.95,-3.8 -1.55,0.1 -4.75,2.05 L 18.1,417.7 3.15,466.25 H 0 l 18.1,-58.8 16.9,-54.9 q -2.75,1.3 -4.75,1.25 -3.15,0.05 -5.3,-2.75 H 24.9 l -5.3,-7.2 -1.2,-1.65 q -0.35,-0.5 -0.25,-1.1 0.05,-0.65 0.6,-1 0.4,-0.3 0.85,-0.3 l 0.25,0.05 q 0.6,0.05 0.95,0.6 l 6.5,8.75 q 1.2,1.55 2.95,1.6 2.35,-0.05 6.15,-2.45 4.85,-3.1 7.15,-3 3.7,-0.15 7.4,5.05 2.5,3.6 5.2,3.7 1.65,-0.05 4.35,-1.75 3.6,-2.3 6.55,-2.25 h 0.05 q 4.65,-0.05 7.45,4.35 H 74.5 l 0.05,0.05 m 797.65,-38 0.05,0.1 q 0.55,0.5 0.6,1.25 v 0.1 q 0.05,0.8 -0.5,1.4 l -0.1,0.1 q -0.5,0.5 -1.25,0.55 h -0.15 q -433.25,27.55 -851.8,2.45 l -0.95,-0.3 -0.45,-0.35 q -0.55,-0.65 -0.5,-1.45 0.05,-0.85 0.7,-1.4 l 0.25,-0.2 1.2,-0.3 q 418.35,25.1 851.45,-2.45 h 0.1 q 0.75,0 1.35,0.5"
       inkscape:connector-curvature="0"
       style="opacity:1;fill:#000000;fill-rule:evenodd;stroke:none" />
    <path
       id="path1021"
       d="m 872.25,343.45 -1.4,0.3 -2.65,0.45 h -0.05 q -3.75,0.65 -5.45,1.25 h -0.05 q -2.05,0.7 -7.7,3.85 h -0.05 q -3.25,1.85 -6.65,1.85 -3.8,0 -6.2,-1.55 -3.25,-2.1 -5.4,-2.05 -1.75,-0.05 -7.6,2.1 -5.15,1.85 -6.45,1.9 -1.2,-0.05 -5.55,-1.7 -5.15,-2 -7.7,-1.95 -3.5,0 -8.85,1.95 -4.8,1.7 -8.85,1.7 -2.95,0 -7.7,-1.5 V 350 q -5.4,-1.8 -7.5,-1.75 -2.5,0 -4.75,1.3 -1.8,0.9 -6.2,0.9 -3.95,0 -10.05,-1.4 -6.55,-1.5 -7.6,-1.5 -2.45,0 -3.85,0.95 l 0.2,-0.05 -2,1.7 q -2.1,1.75 -8,1.75 -2.85,0 -6.75,-1.85 -4.65,-2.15 -9.05,-2.15 -5.75,0 -11.05,3.55 -4.5,2.95 -8.4,3 -1.65,0 -2.95,-1.3 v -0.05 q -2.15,-2.3 -5.3,-2.3 -2.6,-0.05 -8.75,1.7 -5.55,1.55 -7.4,1.6 -4.65,-0.05 -10.65,-3.75 -6.9,-4.3 -12.45,-4.25 -5.45,-0.05 -11.95,3.65 -5.7,3.15 -8.05,3.25 -2.5,-0.05 -7.5,-2.4 -5.9,-2.75 -9.1,-2.7 -2.7,-0.05 -8.55,2.7 -5.1,2.35 -8.15,2.4 -2.45,-0.05 -7.05,-2.4 -5.5,-2.75 -8.95,-2.7 -3.9,-0.05 -9.3,3.55 -4.55,2.95 -8.35,3 -1.95,-0.05 -5.3,-1.35 -4.1,-1.6 -5.4,-1.55 -2.15,-0.1 -8.5,3.3 -5.35,2.8 -7.75,2.85 -1.7,-0.1 -3.95,-2.45 -3.4,-3.5 -5.85,-3.35 -3.35,-0.05 -8.4,2.35 v 0.05 q -4.25,1.95 -8.15,1.95 -3,-0.05 -10.35,-2.95 -8.2,-3.25 -10,-3.2 -4.25,-0.05 -11.45,3.6 v 0.05 q -6.4,3.25 -12,3.25 -2.95,-0.05 -8.9,-2.6 -6.45,-2.85 -13.75,-5 -8.05,-2.35 -14.3,2.3 h -0.05 q -5.15,3.75 -8.25,3.85 -3.15,-0.05 -9.7,-2.25 -7.3,-2.55 -10.5,-2.5 -3.1,-0.1 -10.2,4.05 -6.1,3.6 -9.45,3.65 -3.3,-0.05 -7.8,-3.15 -5.4,-3.8 -10.95,-3.8 -4.05,0 -9.35,1.9 -4.75,1.7 -8.5,1.7 -4.9,0 -10.65,-3.05 -6.6,-3.55 -9.85,-3.5 -3.1,-0.05 -9.2,2.55 v -0.05 q -5.5,2.2 -9.35,2.25 -2.4,-0.05 -6.65,-2.65 -5.25,-3.2 -8.45,-3.15 -2.95,-0.1 -9.25,3.5 -5.4,3 -8.6,3.05 -4.1,0 -6.4,-2.4 -3.2,-3.5 -7.1,-3.45 -2.75,-0.1 -7.9,3.6 -4.25,2.95 -9.55,2.95 -4.95,0 -7.65,-2.95 l -2.75,-2.6 q -1.85,-1.35 -4.65,-1.35 -2.3,-0.05 -9.35,3.25 -6.1,2.9 -8.5,2.95 -1.8,-0.1 -5.55,-2.8 -4.8,-3.45 -8.45,-3.4 -5.1,-0.05 -13.75,4 -7.9,3.6 -11.15,3.65 -3.45,-0.05 -7.3,-2.65 -4.9,-3.3 -6.35,-3.15 -3.4,-0.1 -7.85,3.6 -3.45,2.85 -6.15,2.9 -2.15,-0.1 -5.2,-2.85 -4.2,-3.8 -6.45,-3.65 -2.15,-0.1 -7.5,3.35 -4.3,2.7 -6.35,2.8 -2.15,-0.15 -5.8,-3.4 -4.75,-4.3 -9.25,-4.25 -4.1,-0.1 -12.6,4.75 -7.5,4.25 -10.55,4.35 -3.2,-0.05 -5.05,-2.85 v -0.05 q -2.8,-4.4 -7.45,-4.35 h -0.05 q -2.95,-0.05 -6.55,2.25 -2.7,1.7 -4.35,1.75 -2.7,-0.1 -5.2,-3.7 -3.7,-5.2 -7.4,-5.05 -2.3,-0.1 -7.15,3 -3.8,2.4 -6.15,2.45 -1.75,-0.05 -2.95,-1.6 l -6.5,-8.75 q -0.35,-0.55 -0.95,-0.6 L 19.6,339.8 q -0.45,0 -0.85,0.3 -0.55,0.35 -0.6,1 H 18.1 v -12.55 q 409.05,30.75 854.15,-2.25 v 17.15"
       inkscape:connector-curvature="0"
       style="opacity:1;fill:#fbe1c3;fill-rule:evenodd;stroke:none" />
    <path
       id="path1023"
       d="m 18.1,464.1 12.6,-41 q 44.55,-13.8 100.85,-24.7 l 10.35,-1.95 q -2.85,17.3 -10.05,53.3 l -14.25,70.3 H 18.1 V 464.1 m 124.8,55.95 24.85,-128.1 q 56,-9.35 116.7,-14.85 -1.1,13.65 -5.55,53.7 -6.6,58.95 -9.3,89.25 H 142.9 m 151.05,-0.85 12.65,-144 q 54.55,-4.3 112.75,-5.6 L 420,519.2 H 293.95 m 262.3,-148.25 8.05,149.1 H 454.1 q -4.3,-28.95 -10.2,-86.3 l -6.25,-64.5 Q 454.5,369 471.6,369 q 42.7,0 84.65,1.95 m 133.35,11.3 27.55,137.8 H 594.75 Q 587.1,480.2 581.2,425.1 L 576.25,372 q 57.35,3.3 113.35,10.25 m 135.95,22.9 36.5,114.9 H 749.85 Q 741.05,493.5 730,452.6 l -13.2,-49.1 q -3.15,-11.45 -5.3,-18.35 42.2,5.8 83.55,13.75 l 30.5,6.25 m 46.7,63.8 -10.15,-23.5 Q 852.8,423.4 847.65,410.1 l 24.6,6.1 v 52.75"
       inkscape:connector-curvature="0"
       style="opacity:1;fill:#fffbca;fill-rule:evenodd;stroke:none" />
    <path
       id="path1025"
       d="m 26.85,424.3 -8.75,27.95 v -25.1 l 4.85,-1.6 3.9,-1.25 m 98.3,95.75 26.95,-125.45 12.15,-2.1 -26.05,127.55 h -13.05 m 153.05,0 13.7,-143.65 11.55,-0.95 -13.5,144.6 H 278.2 m 145.95,-0.85 -1.65,-149.65 10.15,-0.2 10.5,149.85 h -19 m 144.75,0.85 -9.5,-148.95 8.5,0.45 13.9,148.5 h -12.9 m 152.55,0 -28.5,-137.35 10.55,1.35 31.25,136 h -13.3 m 146.4,0 -37.95,-113.95 9.15,2.05 33.2,91.85 v 20.05 h -4.4"
       inkscape:connector-curvature="0"
       style="opacity:1;fill:#8e837b;fill-rule:evenodd;stroke:none" />
    <path
       id="path1027"
       d="m 880.28937,18.77197 v 238.00974 c -288.50292,4.09312 -583.41546,3.48467 -884.7375912,-1.82533 V 18.77197"
       inkscape:connector-curvature="0"
       style="opacity:1;fill:#cdb79c;fill-rule:evenodd;stroke:none;stroke-width:1.08709192"
       sodipodi:nodetypes="cccc" />
    <path
       style="opacity:1;fill:url(#gradient0-3);fill-rule:evenodd;stroke:none"
       id="path1029"
       d="m 18.45,284.6 q 0.55,0.6 1.35,0.65 417.85,20 851.05,1.85 h 0.1 q 0.75,-0.05 1.3,-0.55 v 29.95 h -0.05 q -0.6,-0.5 -1.35,-0.5 h -0.1 q -433.1,27.55 -851.45,2.45 l -1.2,0.3 V 284.6 h 0.35"
       inkscape:connector-curvature="0" />
    <path
       id="path1031"
       d="m 739.95,17.5 h 47.55 v 121.7 l -47.55,-7.9 V 17.5 m -141.05,0 v 101.55 l -23.1,2.15 V 17.5 h 23.1 m -134,0 v 95.05 l -74.15,2.15 q -5.65,-37.35 0,-97.2 h 74.15 m -195.8,0 V 114 l -17.3,-4.3 V 17.5 h 17.3 m -151.25,0 v 95.05 l -50.4,4.35 V 17.5 h 50.4"
       inkscape:connector-curvature="0"
       style="opacity:1;fill:#bc9e7a;fill-rule:evenodd;stroke:none" />
    <path
       id="path1033"
       d="m 18.15,341.1 q -0.1,0.6 0.25,1.1 l 1.2,1.65 5.3,7.2 h 0.05 q 2.15,2.8 5.3,2.75 2,0.05 4.75,-1.25 l -16.9,54.9 V 341.1 h 0.05 m 12.55,82 20.8,-67.7 q 2.25,1.75 4.65,1.7 2.25,0.05 5.95,-2.2 2.7,-1.75 4.95,-1.8 3.1,0.05 4.95,2.95 2.9,5.7 7,5.35 4.2,-0.35 12.2,-5.2 7.95,-4.85 11.55,-4.95 3.5,0.05 7.25,3.45 v 0.05 q 5.25,5.95 7.6,5.85 2.35,-0.15 8.15,-4.95 l 0.05,-0.05 q 4.2,-2.75 5.85,-2.85 1.45,0.15 5.05,3.4 3.55,3.25 7.15,3.7 3.55,0.45 7.25,-3.25 3.7,-3.75 6.2,-3.85 l 0.6,0.25 -35.85,167.05 h -4.45 l 14.25,-70.3 q 7.2,-36 10.05,-53.3 l -10.35,1.95 Q 75.25,409.3 30.7,423.1 m 137.05,-31.15 6.3,-32.65 q 3.6,-1.2 9.3,-4.65 v -0.05 q 7.9,-3.65 12.5,-3.7 2.85,0.05 7.2,3.8 4.35,3.7 7,3.25 2.6,-0.45 9.2,-3.7 6.55,-3.25 8.45,-3.35 1.8,0 3,0.8 l 0.1,0.1 3.2,3.9 q 2.7,3.55 8.9,3.1 6.2,-0.45 11.1,-4.5 h 0.05 q 4.1,-2.95 6.15,-3.05 2.7,0.05 4.9,2.5 h 0.05 q 2.65,4.85 7.4,4.65 4.75,-0.25 10.65,-4 5.6,-3.6 8.1,-3.8 l -16.15,169.45 h -5.55 q 2.7,-30.3 9.3,-89.25 4.45,-40.05 5.55,-53.7 -60.7,5.5 -116.7,14.85 m 138.85,-16.75 1.55,-17.55 q 3.3,-0.45 9,-3.75 5.35,-2.25 8.05,-2.3 2.75,0.05 9.2,3.8 6.4,3.75 11.15,3.55 4.7,-0.25 9.65,-2.65 v -0.05 q 4.7,-1.7 8.35,-1.7 4.65,0 10.1,4.1 5.4,4.1 9.1,3.7 3.7,-0.45 10.15,-4.45 6.45,-4 9.05,-4.1 2.9,0.05 9.5,2.35 h 0.05 q 4.65,1.75 7.8,2.4 l 0.05,11.05 q -58.2,1.3 -112.75,5.6 M 446.25,520.05 434.5,352.75 q 4.25,-1.95 9.4,-0.45 7.15,2.05 13.45,5.05 6.25,3 10.75,3.2 4.45,0.2 12.65,-4.15 6.35,-3.25 10.1,-3.3 1.6,0.05 9.1,3.55 7.5,3.5 11.35,3.65 3.85,0.1 9.35,-3.35 4.25,-2 7.1,-2.05 1.45,0.15 4.7,3.5 3.25,3.3 5.7,2.9 2.4,-0.4 8.15,-3.5 5.75,-3.15 7.5,-3.25 l 1.55,0.4 0.9,16 Q 514.3,369 471.6,369 q -17.1,0 -33.95,0.25 l 6.25,64.5 q 5.9,57.35 10.2,86.3 h -7.85 m 138.55,0 -15.25,-163.2 q 1.75,-0.8 3.9,-2.2 5.5,-3.7 8.7,-3.75 2.95,0.05 7.65,3 4.65,2.9 7.9,2.9 3.25,0 9.05,-2.9 5.8,-2.95 8.1,-3 2.7,0.05 8.2,3.05 5.5,3 8.35,3.15 2.9,0.05 9.1,-3.95 6.2,-4 10.95,-4.05 4.85,0.05 12.2,4.6 7.3,4.5 10.5,4.2 3.2,-0.3 8.7,-2.2 l 1.35,-0.25 5.4,26.8 Q 633.6,375.3 576.25,372 l 4.95,53.1 q 5.9,55.1 13.55,94.95 h -9.95 m 153,0 -37.4,-162.65 q 4.05,-0.45 8.6,-3.45 4.55,-3.05 9.4,-3.05 3.8,0 8.15,2.25 4.3,2.2 9.7,2.5 5.4,0.3 8,-3.3 0.85,-0.85 0.55,-1.1 l 0.8,-0.2 q 0.8,-0.5 2.25,-0.5 l 6.9,1.4 h 0.05 q 7.25,2.3 12.1,2.25 4.8,-0.05 6.3,-1.5 1.55,-1.45 3.25,-1.45 1.8,0.05 6.55,1.6 5.6,2.15 9.55,2.25 3.9,0.05 8.95,-2.4 l 0.05,-0.05 q 3.95,-1.45 6.8,-1.7 l 17.2,54.2 -30.5,-6.25 q -41.35,-7.95 -83.55,-13.75 2.15,6.9 5.3,18.35 l 13.2,49.1 q 11.05,40.9 19.85,67.45 H 737.8 M 872.25,491.3 822.85,354.55 q 1.7,-0.1 7.2,-2.1 h 0.05 q 5.1,-1.85 6.55,-1.9 1.45,0.05 3.75,1.55 3.05,2.05 7.85,2.05 4.2,0 8.15,-2.25 5.3,-2.95 7.25,-3.6 1.55,-0.55 5.05,-1.15 h -0.05 l 2.2,-0.4 h 1.4 v 69.45 l -24.6,-6.1 q 5.15,13.3 14.45,35.35 l 10.15,23.5 v 22.35"
       inkscape:connector-curvature="0"
       style="opacity:1;fill:#fdf1a2;fill-rule:evenodd;stroke:none" />
    <path
       id="path1035"
       d="m 18.1,417.7 20.7,-67.3 q 3.2,-1.95 4.75,-2.05 2.4,0.15 4.95,3.8 v -0.05 l 0.65,0.9 -22.3,71.3 -3.9,1.25 -4.85,1.6 v -9.45 m 134,-23.1 8.5,-39.8 1.75,1.3 q 4.05,3.2 7.8,3.75 l 0.7,0.15 -6.6,32.5 -12.15,2.1 m 139.8,-18.2 2.4,-25.1 q 1.85,0.8 4.35,2.65 3.55,2.65 6.45,3.45 l -1.65,18.05 -11.55,0.95 m 130.6,-6.85 -0.15,-10.65 q 3.45,0 9.25,-4.35 l 1.05,14.8 -10.15,0.2 m 136.9,1.55 -0.95,-14.9 q 3.4,1.5 6.45,1.8 l 1.7,-0.1 1.3,13.65 -8.5,-0.45 m 133.55,11.6 -5.9,-28.25 3.65,-0.65 q 1.85,0 3.1,1.4 h 0.05 q 1.55,1.6 3.5,2.1 l 6.15,26.75 -10.55,-1.35 m 136.95,23.4 -18.25,-54.85 q 1.75,0.4 4.3,1.4 H 816 l 3.45,1.25 19.6,54.25 -9.15,-2.05"
       inkscape:connector-curvature="0"
       style="opacity:1;fill:#726861;fill-rule:evenodd;stroke:none" />
    <path
       id="path1037"
       d="m 872.25,326.3 q -445.1,33 -854.15,2.25 v -6.4 l 0.95,0.3 Q 437.6,347.55 870.85,320 H 871 q 0.75,-0.05 1.25,-0.55 v 6.85"
       inkscape:connector-curvature="0"
       style="opacity:1;fill:#f9c7a2;fill-rule:evenodd;stroke:none" />
    <path
       id="path1039"
       d="m 853.95,232.65 16.9,-0.2 h 1.4 v 24.95 l -73.2,2.5 -2.65,1.35 q -15.55,7.5 -38.45,7.5 -20.5,0 -38.1,-5.1 l -4.55,-1.45 q -127.1,3.05 -251.75,3.3 h -1.65 v 0.6 q -17.05,6.25 -39.1,6.25 -22.4,0 -38,-7 -126.75,-0.65 -250.95,-4.3 h -1.1 v 0.45 q -21.65,8.65 -40.8,8.65 -16.8,0 -28.65,-9.45 l -2.4,-2 -42.8,-1.65 v -26.2 l 7.65,0.15 q 423.1,7.2 828.2,1.65"
       inkscape:connector-curvature="0"
       style="opacity:1;fill:#d5b996;fill-rule:evenodd;stroke:none" />
    <path
       id="path1041"
       d="m 872.85,285 17,-0.75"
       inkscape:connector-curvature="0"
       style="opacity:1;fill:none;stroke:#000000;stroke-width:4;stroke-linecap:round;stroke-linejoin:round" />
    <path
       id="path1043"
       d="m 17.7,317.75 q 419.6,27.2 852.65,-2.3"
       inkscape:connector-curvature="0"
       style="opacity:1;fill:none;stroke:#000000;stroke-width:4;stroke-linecap:round;stroke-linejoin:round" />
  </g>
  <g
     transform="matrix(1.0291419,0,0,1.0291419,-4.5692392,-35.59883)"
     id="g82"
     style="opacity:1">
    <path
       d="M 258.6,111.1 247.35,109.6 248.05,4 h 9.85 q -0.75,21.65 -0.75,62.05 0,15.95 0.8,33.05 l 0.65,12 M 562.1,4 h 11 l 0.65,108.1 q -4.8,2 -10.25,1.25 V 53.1 L 562.1,4"
       id="path2"
       inkscape:connector-curvature="0"
       style="fill:#ae9f8f;fill-rule:evenodd;stroke:none" />
    <path
       d="m 263.65,0 q 0.85,0 1.45,0.6 0.55,0.55 0.55,1.4 v 111.75 l -0.3,1.1 -0.85,0.7 -1.1,0.2 -18.3,-2.4 q -0.75,-0.1 -1.25,-0.65 -0.5,-0.6 -0.5,-1.35 L 244.05,2 q 0,-0.85 0.6,-1.4 0.6,-0.6 1.4,-0.6 h 17.6 m -5.75,4 h -9.85 l -0.7,105.6 11.25,1.5 3.05,0.4 V 4 h -3.75 m 304.2,0 h -2.65 l -0.65,108.15 q 2.4,0.85 4.7,1.2 5.45,0.75 10.25,-1.25 L 573.1,4 h -11 m -6.65,-2 q 0,-0.85 0.6,-1.4 0.6,-0.6 1.4,-0.6 h 17.6 q 0.8,0 1.4,0.6 0.6,0.55 0.6,1.4 l 0.7,111.35 -0.3,1.05 -0.8,0.75 q -6.15,3.15 -13.15,2.25 -3.6,-0.5 -7.45,-2.05 l -0.9,-0.75 q -0.35,-0.5 -0.35,-1.1 L 555.45,2"
       id="path4"
       inkscape:connector-curvature="0"
       style="fill:#000000;fill-rule:evenodd;stroke:none" />
    <path
       d="m 257.9,4 h 3.75 v 107.5 l -3.05,-0.4 -0.65,-12 q -0.8,-17.1 -0.8,-33.05 0,-40.4 0.75,-62.05 m 305.6,109.35 q -2.3,-0.35 -4.7,-1.2 L 559.45,4 h 2.65 l 1.4,49.1 v 60.25"
       id="path6"
       inkscape:connector-curvature="0"
       style="fill:#bfb4a6;fill-rule:evenodd;stroke:none" />
    <path
       d="m 869.9,99.4 q 0.8,-0.05 1.4,0.55 0.6,0.55 0.65,1.4 0.05,0.8 -0.5,1.4 -0.6,0.6 -1.4,0.65 l -11.6,0.45 v 9.5 l 11.45,-0.45 q 0.8,-0.05 1.4,0.55 0.6,0.55 0.65,1.4 0.05,0.8 -0.5,1.4 -0.6,0.6 -1.4,0.65 l -11.6,0.45 V 226.9 l 11.75,-0.45 q 0.8,-0.05 1.4,0.55 0.6,0.55 0.65,1.4 0.05,0.8 -0.5,1.4 -0.6,0.6 -1.4,0.65 l -11.9,0.5 v 10.4 l 11.75,-0.45 q 0.8,-0.05 1.4,0.55 0.6,0.55 0.65,1.4 0.05,0.8 -0.5,1.4 -0.6,0.6 -1.4,0.65 l -13.75,0.55 h -0.05 -0.1 l -65.1,2.25 -74.15,2.1 q -125.4,3.15 -248.4,3.6 -57.6,0.2 -114.65,-0.2 Q 226.8,252.35 102,248.5 L 44,246.55 2.25,244.9 Q 1.4,244.85 0.85,244.3 0.3,243.7 0.3,242.9 L 0.35,228.8 0.3,228.5 V 116 Q 0,115.5 0,114.9 0,114.3 0.3,113.85 V 102.5 Q 0,102 0,101.4 0,100.55 0.6,100 1.15,99.4 2,99.4 l 0.65,0.05 53.05,2.05 44.9,1.5 q 133.95,4.1 270.95,4.85 l 82,0.1 q 129.8,-0.3 262.3,-3.65 l 57.2,-1.6 83.25,-2.8 h 0.15 l 13.45,-0.5 m -15.45,29.35 V 117.5 l -32.25,1.15 -0.35,11.25 -0.1,4.7 v 0.05 q 0,12.65 1.3,24.55 1.3,12.1 1.3,19.4 0,10.05 -3.4,32.2 -0.8,5.15 -1.3,9.55 -0.5,4.35 -0.7,7.95 l 35.5,-1.2 v -8 -90.35 m -79.95,-12.55 22,-0.7 24.25,-0.8 33.7,-1.2 V 104 l -81.05,2.7 -57.6,1.6 q -132.5,3.35 -262.35,3.65 l -81.8,-0.1 Q 234.7,111.1 100.75,107 L 55.4,105.5 4.3,103.55 V 113 l 24.65,0.95 25.35,0.95 h 0.1 l 46.75,1.55 41.25,1.2 24.25,0.65 28.6,0.65 25.2,0.5 26.85,0.5 32,0.5 27.35,0.35 28.4,0.25 29.05,0.25 7.85,0.05 81.25,0.1 12.5,-0.05 24.85,-0.1 26.6,-0.2 27.6,-0.25 28.8,-0.3 29.7,-0.45 26.9,-0.45 24.9,-0.45 27.7,-0.6 32.95,-0.8 58.8,-1.6 m 20.7,14.55 -0.1,-11.2 -20.1,0.65 -4.6,0.1 0.3,0.9 0.2,7.9 v 0.05 l 0.05,2.35 0.1,12.95 q 0,11.25 1.3,20.15 1.3,9 1.3,17.3 0,6.85 -2.2,28.95 l -1.05,11.05 -0.7,8 24.05,-0.75 h 0.05 v -0.35 l 0.4,-7.65 0.35,-5.6 0.5,-8.95 0.2,-8.6 v -0.05 -39.55 l -0.05,-27.65 m -112.15,93.45 -0.75,7.95 34.5,-0.8 49.85,-1.35 0.7,-8 1.1,-11.45 q 2.2,-21.9 2.2,-28.65 0,-8.1 -1.25,-16.85 -1.35,-9.05 -1.35,-20.6 l -0.1,-12.85 -0.05,-2.4 -0.2,-8 q 0,-0.45 0.25,-0.8 l -52.3,1.45 -31.6,0.75 -0.25,2.05 v 0.05 q -0.55,4.9 -0.6,9.1 l -0.05,1.35 q 0,6.1 0.75,34.85 v 0.05 l 0.7,30.35 q 0,6 -1.25,20.2 l -0.3,3.6 m 135.8,-94.2 0.35,-11.25 -21.1,0.7 0.1,11.2 0.05,27.75 v 39.55 q 0.05,5.75 -0.7,17.8 l -0.35,5.3 -0.4,8 19.15,-0.65 q 0.15,-3.6 0.65,-7.95 l 1.4,-10.1 q 3.35,-21.8 3.35,-31.75 0,-7.2 -1.3,-19.1 -1.3,-12.05 -1.3,-24.9 l 0.1,-4.6 m -26.6,111.4 62.2,-2.15 v -8.15 l -37,1.25 -22.05,0.75 h -0.05 l -2.05,0.05 -25.2,0.8 h -0.05 l -51.15,1.4 -36.25,0.85 -27.25,0.6 -24.55,0.45 -26.2,0.4 -29.15,0.45 -24.95,0.3 -26.55,0.25 h -0.05 l -25.4,0.15 -29.35,0.15 h -0.25 q -51.6,0.15 -102.75,-0.1 l -8.9,-0.05 -21.05,-0.2 -26.45,-0.25 -28.7,-0.35 -32.7,-0.5 -27.7,-0.5 h -0.05 l -28,-0.6 -24.45,-0.6 -26.55,-0.65 -37.65,-1.1 -52.35,-1.75 -7.6,-0.3 -12.8,-0.45 -24.95,-1 v 8.2 l 38.7,1.5 59,2 q 124.9,3.85 252.4,4.7 56.6,0.4 113.75,0.2 123.25,-0.45 248.95,-3.6 l 75.15,-2.15 m -164.2,-106.5 0.6,-11.2 -24.1,0.4 -0.15,1.15 q -0.55,5.15 -0.6,10.05 l -0.05,1.75 0.35,88.65 v 7.95 l 23.3,-0.35 0.3,-8 0.1,-3.4 0.5,-21.9 q 0,-8.6 -1.25,-15.7 -1.35,-7.4 -1.35,-13 0,-5 1.5,-24.45 l 0.85,-11.95 m 24.1,-0.45 q 0.05,-5.25 0.95,-10.75 v -0.1 l 0.05,-0.35 h -0.05 l -21.45,0.4 -0.55,11.2 -0.9,12.25 q -1.5,19.3 -1.5,24.2 0,5.4 1.3,12.45 1.3,7.35 1.3,16.25 l -0.5,22 -0.1,3.25 -0.3,8 21.5,-0.4 0.1,-8 0.25,-17.2 q 0.45,-23.9 0.3,-38 l -0.4,-33.15 v -2.05 m 28,-0.55 q 0.1,-4.45 0.65,-9.55 l 0.2,-1.7 -24.75,0.55 -0.2,1 v -0.05 q -0.85,5.25 -0.9,10.25 v 2.05 l 0.4,33.15 q 0.15,14.15 -0.3,38.1 l -0.25,17.1 -0.1,8 24.4,-0.55 0.7,-8 0.35,-3.9 q 1.25,-14.05 1.25,-19.95 l -0.7,-30.3 q -0.75,-28.85 -0.75,-34.95 v -1.25 m -79.35,1.45 q 0.05,-5.05 0.6,-10.4 l 0.1,-0.8 -26.45,0.4 -0.25,11.2 -0.1,4.75 q -0.4,18.2 -0.4,33.2 l 0.25,28.4 0.3,24 0.1,8 26.15,-0.4 v -7.95 l -0.35,-88.7 0.05,-1.7 m -29,0.45 0.25,-11.2 -26,0.25 q -0.45,3.85 -0.45,9.9 l 0.05,1.35 1.7,43.5 q 1.2,28.55 2.15,46.85 l 0.4,7.95 22.05,-0.25 -0.1,-8 -0.3,-24 -0.25,-28.45 q 0,-15 0.4,-33.25 l 0.1,-4.65 m -25.3,90.65 q -0.95,-18.25 -2.15,-46.7 l -1.7,-43.65 -0.05,-1.35 q 0,-5.95 0.4,-9.85 l -24.5,0.2 -0.5,6.25 0.1,5 q 0.2,5.3 0.95,9.4 0.6,3.6 2.3,10.45 l 0.05,0.05 q 3.35,15.9 3.35,49.35 l -0.75,19.85 -0.05,1.2 -0.4,8 23.35,-0.25 -0.4,-7.95 m -57.05,-89.9 -0.35,-11.25 -21.5,0.1 0.1,1.15 v 0.1 l -0.55,10 q -1.3,22.25 -1.3,24.35 0,8.2 1.7,22.7 1.7,14.7 1.7,18.9 l -0.6,24.4 -0.15,5.6 0.45,1.3 0.05,1.05 25.85,-0.15 -0.55,-7.9 q -1.55,-22.2 -3.15,-53.05 -1.2,-22.85 -1.7,-37.3 m -25.3,0.1 0.55,-10.1 v -0.05 l -0.15,-1.1 -11.45,0.05 -81,-0.1 -6.55,-0.05 -0.35,10.25 0.05,1 0.35,10.55 q 0.4,12.7 0.4,20.3 v 20.05 7.7 l -0.05,31.75 v 1.3 l -0.15,6.65 q 49.4,0.25 99.2,0.1 l -0.05,-1.05 q 0,-0.8 0.55,-1.35 l 0.15,-5.05 0.6,-24.95 q 0,-4.15 -1.7,-18.5 -1.7,-14.75 -1.7,-23.05 0,-2.1 1.3,-24.35 m 50.95,-0.3 -0.1,-5.15 v -0.1 l 0.5,-5.95 -23.4,0.15 0.35,11.2 q 0.5,14.45 1.7,37.2 1.6,30.95 3.15,53.15 l 0.55,7.95 22.7,-0.15 0.4,-7.95 0.05,-1.4 0.75,-19.7 q 0,-33.05 -3.3,-48.75 v 0.05 q -1.7,-6.95 -2.35,-10.6 v -0.05 q -0.75,-4.3 -1,-9.9 M 363,201.8 v -6.65 -27.75 q 0,-7.6 -0.4,-20.2 l -0.35,-10.7 -0.05,-1 v -0.05 l 0.35,-10.15 -26.15,-0.2 -1.1,11.2 -0.45,4.25 q -1.7,16.95 -1.7,22.45 l 3.35,55.05 -0.2,8.6 -0.4,8 20,0.15 6.9,0.05 0.15,-6.7 v -1.3 L 363,201.8 M 304.85,136 305.05,124.8 281,124.5 q 0.35,3.45 0.35,8.25 l -0.1,2.95 -1,14.9 v 0.05 q -1.15,15.15 -1.15,19.55 0,7 0.75,21.5 0.75,14.6 0.75,21.9 v 12.45 8 l 25.65,0.3 -0.25,-7.95 -0.6,-28.35 q -0.6,-34.55 -0.6,-56.55 l 0.05,-5.5 m 27.4,0.3 1.15,-11.25 -25.35,-0.2 -0.2,11.2 -0.05,5.45 q 0,22 0.6,56.5 l 0.6,28.4 0.25,8 23.65,0.2 0.4,-7.95 0.2,-8.6 -3.35,-54.85 v -0.1 q 0,-5.55 1.7,-22.85 l 0.4,-3.95 m -113.9,-1.65 0.15,-4.15 0.3,-7.05 -22.25,-0.45 -1.45,11.2 -1.35,9.4 q -3,20.6 -3,28.1 0,9.25 1.15,17.6 1.1,8.55 1.1,22.3 l -0.3,12.9 -0.4,7.95 25.1,0.55 0.65,-8 0.85,-11.25 q 1.65,-22.05 1.65,-30.7 0,-7.9 -1.25,-16.05 -1.35,-8.5 -1.35,-14.55 0,-7.05 0.4,-17.8 m 26.85,0.5 -0.05,-4.7 v -0.1 l 0.45,-6.4 -23.8,-0.45 -0.3,7.1 -0.15,4.1 q -0.4,10.7 -0.4,17.75 0,5.85 1.3,14.1 1.3,8.4 1.3,16.5 0,8.75 -1.65,30.9 l -0.85,11.1 -0.65,8 24.55,0.45 0.15,-8 0.25,-11.7 q 0.55,-24.8 0.55,-40.1 l -0.35,-22.55 -0.35,-16 m 33.05,0.5 0.1,-2.9 q 0,-4.85 -0.35,-8.3 l -29.35,-0.45 -0.5,6.55 0.05,4.65 0.35,15.85 v 0.05 l 0.35,22.6 q 0,15.3 -0.55,40.15 l -0.2,11.7 -0.2,8 29.65,0.45 v -8 -12.4 q 0,-7.3 -0.75,-21.75 -0.75,-14.65 -0.75,-21.65 0,-4.5 1.15,-19.8 l 1,-14.75 m -112.9,-2.15 -0.2,-11.25 -21.45,-0.55 q -0.35,3.85 -0.65,11.2 l -1,29.7 q -0.85,33.9 -0.85,60.6 v 8 l 23.7,0.6 0.5,-7.3 0.05,-0.65 q 1.05,-13.6 1.05,-27.95 l -0.7,-40.75 -0.45,-21.65 m -25.3,-0.65 0.6,-11.25 -39.3,-1.1 -45.6,-1.55 -0.35,11.25 -3.75,90.2 -0.35,7.95 50.75,1.7 36.15,1.05 v -7.95 q 0,-26.75 0.85,-60.65 l 1,-29.65 m 52.05,1.25 1.4,-11.2 -25.35,-0.55 0.2,11.2 0.45,21.55 0.7,40.8 q 0,14.35 -1,28 l -0.1,0.85 -0.5,7.1 21.4,0.55 0.4,-8 0.3,-12.8 q 0,-13.55 -1.05,-21.9 -1.2,-8.55 -1.2,-18 0,-7.6 3.05,-28.55 l 1.3,-9.05 m -161.8,85.5 0.35,7.55 v 0.05 l 0.05,0.4 11.05,0.4 6.55,0.25 0.35,-7.95 3.75,-90.2 0.15,-4.75 0.2,-6.5 -22.25,-0.8 0.3,4.3 v 0.05 l 0.3,6.9 0.25,15.55 -0.55,34.7 q -0.55,27.1 -0.55,38.5 l 0.05,1.55 M 28.1,129.2 27.8,122.55 27.5,117.9 4.3,117 v 11.25 90.35 7.95 l 23.35,0.95 v -0.15 l -0.35,-7.85 -0.05,-1.45 q 0,-11.4 0.55,-38.55 L 28.35,144.85 28.1,129.2"
       id="path8"
       inkscape:connector-curvature="0"
       style="fill:#000000;fill-rule:evenodd;stroke:none" />
    <path
       d="m 773.4,106.7 81.05,-2.7 v 9.5 l -33.7,1.2 -24.25,0.8 -22,0.7 -0.4,-3.25 -0.7,-6.25 m -57.7,11.1 -32.95,0.8 -27.7,0.6 -24.9,0.45 -26.9,0.45 -29.7,0.45 -28.8,0.3 -27.6,0.25 -26.6,0.2 -24.85,0.1 -12.5,0.05 0.25,-9.5 q 129.85,-0.3 262.35,-3.65 l -0.1,9.5 m -343.75,3.55 -7.85,-0.05 -29.05,-0.25 -28.4,-0.25 -27.35,-0.35 -32,-0.5 -26.85,-0.5 -25.2,-0.5 -28.6,-0.65 -24.25,-0.65 -41.25,-1.2 -0.4,-9.45 q 133.95,4.1 270.9,4.85 l 0.3,9.5 M 54.4,114.9 H 54.3 L 28.95,113.95 4.3,113 v -9.45 l 51.1,1.95 -1.1,9.4 h 0.1 m 737.85,126.5 0.7,-5.5 0.35,-2.75 2.05,-0.05 h 0.05 l 22.05,-0.75 37,-1.25 v 8.15 l -62.2,2.15 m -75.35,-6.05 0.2,8.2 q -125.7,3.15 -248.95,3.6 l -0.95,-8.2 29.35,-0.15 25.4,-0.15 H 522 l 26.55,-0.25 24.95,-0.3 29.15,-0.45 26.2,-0.4 24.55,-0.45 27.25,-0.6 36.25,-0.85 m -361.6,3.45 q -0.65,4.35 -0.9,8.15 -127.5,-0.85 -252.4,-4.7 v -7.2 -1 l 37.65,1.1 26.55,0.65 24.45,0.6 28,0.6 h 0.05 l 27.7,0.5 32.7,0.5 28.7,0.35 26.45,0.25 21.05,0.2 M 43,240.25 4.3,238.75 v -8.2 l 24.95,1 12.8,0.45 0.95,8.25"
       id="path10"
       inkscape:connector-curvature="0"
       style="fill:#775f4c;fill-rule:evenodd;stroke:none" />
    <path
       d="m 854.45,128.75 v 90.35 l -34.8,1.25 q 0.5,-4.4 1.3,-9.55 3.4,-22.15 3.4,-32.2 0,-7.3 -1.3,-19.4 -1.3,-11.9 -1.3,-24.55 v -0.05 l 0.1,-4.7 32.6,-1.15"
       id="path12"
       style="fill:url(#gradient0);fill-rule:evenodd;stroke:none"
       inkscape:connector-curvature="0" />
    <path
       d="m 818.85,130 -0.1,4.6 q 0,12.85 1.3,24.9 1.3,11.9 1.3,19.1 0,9.95 -3.35,31.75 l -1.4,10.1 -19.4,0.6 0.35,-5.3 q 0.75,-12.05 0.7,-17.8 V 158.4 L 798.2,130.65 818.85,130"
       id="path14"
       style="fill:url(#gradient1);fill-rule:evenodd;stroke:none"
       inkscape:connector-curvature="0" />
    <path
       d="m 795.2,130.75 0.05,27.65 v 39.55 0.05 l -0.2,8.6 q -0.7,-14.55 -6.05,-31.9 l -5.45,-16.65 q -3.25,-10 -4.95,-17.4 -1,-4.35 -1.85,-9.3 l 18.45,-0.6 m -1.4,98.05 v 0.35 h -0.05 l 0.05,-0.35"
       id="path16"
       style="fill:url(#gradient2);fill-rule:evenodd;stroke:none"
       inkscape:connector-curvature="0" />
    <path
       d="m 683.05,224.2 0.3,-3.6 q 1.25,-14.2 1.25,-20.2 l -0.7,-30.35 V 170 q -0.75,-28.75 -0.75,-34.85 l 0.05,-1.35 32.3,-0.75 -0.3,26.35 q 0,26.6 1.1,57 l 0.25,7 -33.5,0.8"
       id="path18"
       style="fill:url(#gradient3);fill-rule:evenodd;stroke:none"
       inkscape:connector-curvature="0" />
    <path
       d="m 631.1,134.85 21.05,-0.4 v 2.05 l 0.4,33.15 q 0.15,14.1 -0.3,38 l -0.25,17.2 -21.3,0.4 0.1,-3.25 0.5,-22 q 0,-8.9 -1.3,-16.25 -1.3,-7.05 -1.3,-12.45 0,-4.9 1.5,-24.2 l 0.9,-12.25"
       id="path20"
       style="fill:url(#gradient4);fill-rule:evenodd;stroke:none"
       inkscape:connector-curvature="0" />
    <path
       d="m 628.05,134.9 -0.85,11.95 q -1.5,19.45 -1.5,24.45 0,5.6 1.35,13 1.25,7.1 1.25,15.7 l -0.5,21.9 -0.1,3.4 -23.6,0.4 -0.35,-88.65 0.05,-1.75 24.25,-0.4"
       id="path22"
       style="fill:url(#gradient5);fill-rule:evenodd;stroke:none"
       inkscape:connector-curvature="0" />
    <path
       d="m 680.15,133.9 v 1.25 q 0,6.1 0.75,34.95 l 0.7,30.3 q 0,5.9 -1.25,19.95 l -0.35,3.9 -25,0.55 0.25,-17.1 q 0.45,-23.95 0.3,-38.1 l -0.4,-33.15 v -2.05 l 25,-0.5"
       id="path24"
       style="fill:url(#gradient6);fill-rule:evenodd;stroke:none"
       inkscape:connector-curvature="0" />
    <path
       d="m 542.65,136.1 1.7,43.65 q 1.2,28.45 2.15,46.7 l -22.55,0.2 0.05,-1.2 0.75,-19.85 q 0,-33.45 -3.35,-49.35 l -0.05,-0.05 q -1.7,-6.85 -2.3,-10.45 -0.75,-4.1 -0.95,-9.4 l 24.55,-0.25"
       id="path26"
       style="fill:url(#gradient7);fill-rule:evenodd;stroke:none"
       inkscape:connector-curvature="0" />
    <path
       d="m 571.8,135.8 -0.1,4.65 q -0.4,18.25 -0.4,33.25 l 0.25,28.45 0.3,24 -22.35,0.3 q -0.95,-18.3 -2.15,-46.85 l -1.7,-43.5 26.15,-0.3"
       id="path28"
       style="fill:url(#gradient8);fill-rule:evenodd;stroke:none"
       inkscape:connector-curvature="0" />
    <path
       d="m 600.8,135.35 -0.05,1.7 0.35,88.7 -26.25,0.35 -0.3,-24 -0.25,-28.4 q 0,-15 0.4,-33.2 l 0.1,-4.75 26,-0.4"
       id="path30"
       style="fill:url(#gradient9);fill-rule:evenodd;stroke:none"
       inkscape:connector-curvature="0" />
    <path
       d="m 464.15,136.65 q -1.3,22.25 -1.3,24.35 0,8.3 1.7,23.05 1.7,14.35 1.7,18.5 l -0.6,24.95 -0.1,-0.5 -1.15,-6.95 q -1.4,-7.65 -5.45,-25.2 -3.1,-13.4 -4.35,-24.05 -1.6,-14 -1.75,-34.15 h 11.3 M 366,187.45 V 167.4 q 0,-7.6 -0.4,-20.3 l -0.35,-10.55 h 6.85 q -0.8,23.35 -6.1,50.9"
       id="path32"
       style="fill:url(#gradient10);fill-rule:evenodd;stroke:none"
       inkscape:connector-curvature="0" />
    <path
       d="m 489.45,136.55 q 0.5,14.45 1.7,37.3 1.6,30.85 3.15,53.05 l -25.65,0.1 0.6,-24.4 q 0,-4.2 -1.7,-18.9 -1.7,-14.5 -1.7,-22.7 0,-2.1 1.3,-24.35 l 22.3,-0.1"
       id="path34"
       style="fill:url(#gradient11);fill-rule:evenodd;stroke:none"
       inkscape:connector-curvature="0" />
    <path
       d="m 515.1,136.35 q 0.25,5.6 1,9.9 v 0.05 q 0.65,3.65 2.35,10.6 v -0.05 q 3.3,15.7 3.3,48.75 l -0.75,19.7 -0.05,1.4 -23.65,0.15 q -1.55,-22.2 -3.15,-53.15 -1.2,-22.75 -1.7,-37.2 l 22.65,-0.15"
       id="path36"
       style="fill:url(#gradient12);fill-rule:evenodd;stroke:none"
       inkscape:connector-curvature="0" />
    <path
       d="m 362.25,136.5 0.35,10.7 q 0.4,12.6 0.4,20.2 v 27.75 6.65 l -5.6,25.05 -21.1,-0.2 0.2,-8.6 -3.35,-55.05 q 0,-5.5 1.7,-22.45 l 0.45,-4.25 26.95,0.2"
       id="path38"
       style="fill:url(#gradient13);fill-rule:evenodd;stroke:none"
       inkscape:connector-curvature="0" />
    <path
       d="m 332.25,136.3 -0.4,3.95 q -1.7,17.3 -1.7,22.85 v 0.1 l 3.35,54.85 -0.2,8.6 L 309,226.4 308.4,198 q -0.6,-34.5 -0.6,-56.5 l 0.05,-5.45 24.4,0.25"
       id="path40"
       style="fill:url(#gradient14);fill-rule:evenodd;stroke:none"
       inkscape:connector-curvature="0" />
    <path
       d="m 304.85,136 -0.05,5.5 q 0,22 0.6,56.55 l 0.6,28.35 -25.4,-0.35 V 213.6 q 0,-7.3 -0.75,-21.9 -0.75,-14.5 -0.75,-21.5 0,-4.4 1.15,-19.55 v -0.05 l 1,-14.9 23.6,0.3"
       id="path42"
       style="fill:url(#gradient15);fill-rule:evenodd;stroke:none"
       inkscape:connector-curvature="0" />
    <path
       d="m 218.35,134.65 q -0.4,10.75 -0.4,17.8 0,6.05 1.35,14.55 1.25,8.15 1.25,16.05 0,8.65 -1.65,30.7 L 218.05,225 192.7,224.5 193,211.6 q 0,-13.75 -1.1,-22.3 -1.15,-8.35 -1.15,-17.6 0,-7.5 3,-28.1 l 1.35,-9.4 23.25,0.45"
       id="path44"
       style="fill:url(#gradient16);fill-rule:evenodd;stroke:none"
       inkscape:connector-curvature="0" />
    <path
       d="m 245.2,135.15 0.35,16 0.35,22.55 q 0,15.3 -0.55,40.1 l -0.25,11.7 -24.05,-0.45 0.85,-11.1 q 1.65,-22.15 1.65,-30.9 0,-8.1 -1.3,-16.5 -1.3,-8.25 -1.3,-14.1 0,-7.05 0.4,-17.75 l 23.85,0.45"
       id="path46"
       style="fill:url(#gradient17);fill-rule:evenodd;stroke:none"
       inkscape:connector-curvature="0" />
    <path
       d="m 278.25,135.65 -1,14.75 q -1.15,15.3 -1.15,19.8 0,7 0.75,21.65 0.75,14.45 0.75,21.75 V 226 l -29.45,-0.45 0.2,-11.7 Q 248.9,189 248.9,173.7 l -0.35,-22.6 v -0.05 l -0.35,-15.85 30.05,0.45"
       id="path48"
       style="fill:url(#gradient18);fill-rule:evenodd;stroke:none"
       inkscape:connector-curvature="0" />
    <path
       d="m 140.05,132.85 -1,29.65 q -0.85,33.9 -0.85,60.65 l -36.1,-1.05 0.3,-24.7 0.35,-27.6 q 0,-15.15 -0.9,-38.05 l 38.2,1.1"
       id="path50"
       style="fill:url(#gradient19);fill-rule:evenodd;stroke:none"
       inkscape:connector-curvature="0" />
    <path
       d="m 165.35,133.5 0.45,21.65 0.7,40.75 q 0,14.35 -1.05,27.95 L 141.2,223.2 q 0,-26.7 0.85,-60.6 l 1,-29.7 22.3,0.6"
       id="path52"
       style="fill:url(#gradient20);fill-rule:evenodd;stroke:none"
       inkscape:connector-curvature="0" />
    <path
       d="m 192.1,134.1 -1.3,9.05 q -3.05,20.95 -3.05,28.55 0,9.45 1.2,18 1.05,8.35 1.05,21.9 l -0.3,12.8 -21.2,-0.5 q 1,-13.65 1,-28 l -0.7,-40.8 -0.45,-21.55 23.75,0.55"
       id="path54"
       style="fill:url(#gradient21);fill-rule:evenodd;stroke:none"
       inkscape:connector-curvature="0" />
    <path
       d="m 30.3,219.6 -0.05,-1.55 q 0,-11.4 0.55,-38.5 l 0.55,-34.7 -0.25,-15.55 20.6,0.75 -3,16 q -7.15,39.1 -7.2,74 L 30.3,219.6"
       id="path56"
       style="fill:url(#gradient22);fill-rule:evenodd;stroke:none"
       inkscape:connector-curvature="0" />
    <path
       d="m 28.1,129.2 0.25,15.65 -0.55,34.65 q -0.55,27.15 -0.55,38.55 l 0.05,1.45 -23,-0.9 v -90.35 l 23.8,0.95"
       id="path58"
       style="fill:url(#gradient23);fill-rule:evenodd;stroke:none"
       inkscape:connector-curvature="0" />
    <path
       d="m 821.85,129.9 0.35,-11.25 32.25,-1.15 v 11.25 l -32.6,1.15 m 32.6,89.2 v 8 l -35.5,1.2 q 0.2,-3.6 0.7,-7.95 l 34.8,-1.25 m -60.7,10.05 -24.05,0.75 0.7,-8 1.05,-11.05 q 2.2,-22.1 2.2,-28.95 0,-8.3 -1.3,-17.3 -1.3,-8.9 -1.3,-20.15 l -0.1,-12.95 -0.05,-2.35 v -0.05 l -0.2,-7.9 -0.3,-0.9 4.6,-0.1 20.1,-0.65 0.1,11.2 -18.45,0.6 q 0.85,4.95 1.85,9.3 1.7,7.4 4.95,17.4 L 789,174.7 q 5.35,17.35 6.05,31.9 l -0.5,8.95 -0.35,5.6 -0.4,7.65 -0.05,0.35 M 683.2,133.8 q 0.05,-4.2 0.6,-9.1 v -0.05 l 0.25,-2.05 31.6,-0.75 52.3,-1.45 q -0.25,0.35 -0.25,0.8 l 0.2,8 0.05,2.4 0.1,12.85 q 0,11.55 1.35,20.6 1.25,8.75 1.25,16.85 0,6.75 -2.2,28.65 l -1.1,11.45 -0.7,8 -49.85,1.35 -34.5,0.8 0.75,-7.95 33.5,-0.8 -0.25,-7 q -1.1,-30.4 -1.1,-57 l 0.3,-26.35 -32.3,0.75 m 115,-3.15 -0.1,-11.2 21.1,-0.7 -0.35,11.25 -20.65,0.65 m 18.4,89.8 q -0.5,4.35 -0.65,7.95 l -19.15,0.65 0.4,-8 19.4,-0.6 M 603.8,135.3 q 0.05,-4.9 0.6,-10.05 l 0.15,-1.15 24.1,-0.4 -0.6,11.2 -24.25,0.4 m 23.9,90 -0.3,8 -23.3,0.35 v -7.95 l 23.6,-0.4 m 25.4,-101.7 v 0.1 q -0.9,5.5 -0.95,10.75 l -21.05,0.4 0.55,-11.2 21.45,-0.4 v 0.35 m -1.1,101.25 -0.1,8 -21.5,0.4 0.3,-8 21.3,-0.4 m 3.15,-90.45 q 0.05,-5 0.9,-10.25 v 0.05 l 0.2,-1 24.75,-0.55 -0.2,1.7 q -0.55,5.1 -0.65,9.55 l -25,0.5 m 24.85,89.85 -0.7,8 -24.4,0.55 0.1,-8 25,-0.55 m -105.2,-88.5 0.25,-11.2 26.45,-0.4 -0.1,0.8 q -0.55,5.35 -0.6,10.4 l -26,0.4 m 26.3,90 v 7.95 l -26.15,0.4 -0.1,-8 26.25,-0.35 m -55.45,-89.65 -0.05,-1.35 q 0,-6.05 0.45,-9.9 l 26,-0.25 -0.25,11.2 -26.15,0.3 m 26.2,90.05 0.1,8 -22.05,0.25 -0.4,-7.95 22.35,-0.3 m -25.35,0.3 0.4,7.95 -23.35,0.25 0.4,-8 22.55,-0.2 m -28.4,-90.1 -0.1,-5 0.5,-6.25 24.5,-0.2 q -0.4,3.9 -0.4,9.85 l 0.05,1.35 -24.55,0.25 m -50.95,0.3 0.55,-10 v -0.1 l -0.1,-1.15 21.5,-0.1 0.35,11.25 -22.3,0.1 m 27.15,90.25 0.55,7.9 -25.85,0.15 -0.05,-1.05 -0.45,-1.3 0.15,-5.6 25.65,-0.1 m -129.05,-90.35 -0.05,-1 0.35,-10.25 6.55,0.05 81,0.1 11.45,-0.05 0.15,1.1 v 0.05 l -0.55,10.1 h -11.3 q 0.15,20.15 1.75,34.15 1.25,10.65 4.35,24.05 4.05,17.55 5.45,25.2 l 1.15,6.95 0.1,0.5 -0.15,5.05 q -0.55,0.55 -0.55,1.35 l 0.05,1.05 q -49.8,0.15 -99.2,-0.1 l 0.15,-6.65 v -1.3 L 366,195.15 v -7.7 q 5.3,-27.55 6.1,-50.9 h -6.85 m 127.2,-0.05 -0.35,-11.2 23.4,-0.15 -0.5,5.95 v 0.1 l 0.1,5.15 -22.65,0.15 m 28.5,90.2 -0.4,7.95 -22.7,0.15 -0.55,-7.95 23.65,-0.15 M 363,201.8 l -0.05,25.05 v 1.3 l -0.15,6.7 -6.9,-0.05 -20,-0.15 0.4,-8 21.1,0.2 5.6,-25.05 m -27.7,-65.5 1.1,-11.2 26.15,0.2 -0.35,10.15 v 0.05 l 0.05,1 -26.95,-0.2 m -54.05,-0.6 0.1,-2.95 q 0,-4.8 -0.35,-8.25 l 24.05,0.3 -0.2,11.2 -23.6,-0.3 m 24.75,90.7 0.25,7.95 -25.65,-0.3 v -8 l 25.4,0.35 m 1.85,-90.35 0.2,-11.2 25.35,0.2 -1.15,11.25 -24.4,-0.25 m 25.45,90.6 -0.4,7.95 -23.65,-0.2 -0.25,-8 24.3,0.25 m -138.2,-92.45 1.45,-11.2 22.25,0.45 -0.3,7.05 -0.15,4.15 -23.25,-0.45 m 22.95,90.8 -0.65,8 -25.1,-0.55 0.4,-7.95 25.35,0.5 m 3.3,-90.3 0.15,-4.1 0.3,-7.1 23.8,0.45 -0.45,6.4 v 0.1 l 0.05,4.7 -23.85,-0.45 m 23.75,90.8 -0.15,8 -24.55,-0.45 0.65,-8 24.05,0.45 m 3.1,-90.3 -0.05,-4.65 0.5,-6.55 29.35,0.45 q 0.35,3.45 0.35,8.3 l -0.1,2.9 -30.05,-0.45 m 29.4,90.8 v 8 l -29.65,-0.45 0.2,-8 29.45,0.45 M 143.05,132.9 q 0.3,-7.35 0.65,-11.2 l 21.45,0.55 0.2,11.25 -22.3,-0.6 m 22.4,90.95 -0.05,0.65 -0.5,7.3 -23.7,-0.6 v -8 l 24.25,0.65 m -27.25,-0.7 v 7.95 l -36.15,-1.05 -50.75,-1.7 0.35,-7.95 3.75,-90.2 0.35,-11.25 45.6,1.55 39.3,1.1 -0.6,11.25 -38.2,-1.1 q 0.9,22.9 0.9,38.05 l -0.35,27.6 -0.3,24.7 36.1,1.05 m 30.15,-89.6 -0.2,-11.2 25.35,0.55 -1.4,11.2 -23.75,-0.55 m 21.35,90.85 -0.4,8 -21.4,-0.55 0.5,-7.1 0.1,-0.85 21.2,0.5 M 31.1,129.3 30.8,122.4 v -0.05 l -0.3,-4.3 22.25,0.8 -0.2,6.5 -0.15,4.75 -3.75,90.2 -0.35,7.95 -6.55,-0.25 -11.05,-0.4 -0.05,-0.4 v -0.05 l -0.35,-7.55 11.2,0.45 q 0.05,-34.9 7.2,-74 l 3,-16 -20.6,-0.75 M 4.3,128.25 V 117 l 23.2,0.9 0.3,4.65 0.3,6.65 -23.8,-0.95 m 23,91.25 0.35,7.85 v 0.15 L 4.3,226.55 v -7.95 l 23,0.9"
       id="path60"
       inkscape:connector-curvature="0"
       style="fill:#bf834d;fill-rule:evenodd;stroke:none" />
    <path
       d="m 774.5,116.2 -58.8,1.6 0.1,-9.5 57.6,-1.6 0.7,6.25 0.4,3.25 m -321.3,5.25 -81.25,-0.1 -0.3,-9.5 81.8,0.1 -0.25,9.5 m -352.05,-5 -46.75,-1.55 h -0.1 l 1.1,-9.4 45.35,1.5 0.4,9.45 m 692.15,116.7 -0.35,2.75 -0.7,5.5 -75.15,2.15 -0.2,-8.2 51.15,-1.4 h 0.05 l 25.2,-0.8 m -326.1,5.8 0.95,8.2 q -57.15,0.2 -113.75,-0.2 0.25,-3.8 0.9,-8.15 l 8.9,0.05 q 51.15,0.25 102.75,0.1 h 0.25 M 42.05,232 l 7.6,0.3 52.35,1.75 v 1 7.2 l -59,-2 -0.95,-8.25"
       id="path62"
       inkscape:connector-curvature="0"
       style="fill:#624e3e;fill-rule:evenodd;stroke:none" />
    <path
       d="m 716.95,5.45 h 20.3 q 5.2,118 0.05,215.15 l -0.05,0.3 -11.9,0.7 -8.4,-0.45 V 5.45 M 709,219.9 q -5.35,-1.15 -9.7,-3.05 -4,-101.75 3.05,-211.4 H 709 V 219.9 M 92.7,5.45 h 21.6 v 215.2 h -0.05 l -12.65,1 -8.05,-0.3 -0.85,-0.05 q -3.5,-95.05 0,-215.85 m 28.85,0 h 6.2 q 3.85,109.7 -0.1,211.45 -2.85,1.25 -6.1,2.15 V 5.45 m 270,0 h 14.35 v 217.8 q -7.25,-0.5 -14.35,-2.25 l -0.1,-3.75 q -2.9,-87.2 0.1,-211.8 m 27.3,0 h 13.05 q 4,115.75 0,215.75 l -13.05,2 V 5.45"
       id="path64"
       inkscape:connector-curvature="0"
       style="fill:#ad8c6f;fill-rule:evenodd;stroke:none" />
    <path
       d="m 382.5,260.25 -0.45,-1.4 q -1.3,-4.5 -1.3,-7.8 0,-14.15 4.8,-24.75 l 1.2,-2.45 4.8,1.3 q 6.5,1.5 13.2,2.05 -2.6,3.45 -4.75,10.85 -3.2,10.8 -3.45,24.95 -6.9,-1 -14.05,-2.75 m 38.05,-33.2 11.35,-1.8 1.75,-0.4 1.5,3.55 q 2.6,7.3 2.6,14.9 0,7.8 -1.65,14.35 l -1.3,4.35 -9.45,1.45 0.2,-2.15 0.45,-6.05 q 0,-11 -2.8,-20.7 -1.25,-4.4 -2.65,-7.5 m -329.1,-1.85 1.25,0.1 8.95,0.35 13.65,-1.1 2.05,3.35 q 2,4.45 2,10.75 0,3.2 -1.05,12 l -0.8,6.55 q -14.8,2.6 -28.9,1.4 -0.6,-4.95 -0.6,-11.55 0,-12.35 2.85,-20.3 l 0.6,-1.55 m 32.1,-2.55 6.1,-2.25 q 9.55,4.45 7,31.9 l -9.95,2.9 0.9,-4.5 q 0.75,-4.95 0.75,-11.85 0,-8.5 -3.1,-14 l -1.7,-2.2 m 588,34.4 -0.25,-0.85 q -1.45,-4.85 -1.45,-7.9 0,-12 3,-19.55 0.85,-2.15 1.9,-3.8 l 10.55,0.65 11.95,-0.7 2.75,-0.4 1.3,1.75 q 3.7,6.55 3.7,15.3 0,6.45 -3.2,13.25 l -1.6,3.15 q -14,1.4 -28.65,-0.9 m -4.85,-33.55 -1.65,2.45 q -3.85,6.95 -3.85,19.1 0,4.2 1.35,9.45 l 0.25,0.8 q -6.15,-1.45 -12.35,-3.5 -2.55,-26.7 6.4,-31.65 4.45,2.05 9.85,3.35"
       id="path66"
       inkscape:connector-curvature="0"
       style="fill:#705b44;fill-rule:evenodd;stroke:none" />
    <path
       d="M 716.95,5.45 H 709 702.35 q -7.05,109.65 -3.05,211.4 4.35,1.9 9.7,3.05 l 7.95,1.25 8.4,0.45 11.9,-0.7 0.15,-0.05 q 9.05,-1.25 17.15,-4.7 1.55,-96 -1.7,-210.7 h -15.6 -20.3 M 72.3,3.45 q 0,-0.85 0.6,-1.4 0.6,-0.6 1.4,-0.6 h 55.35 q 0.8,0 1.4,0.55 0.55,0.55 0.6,1.4 3.95,110.7 0,213.45 12.1,5.25 8.85,37.15 l -0.4,1.05 -0.95,0.65 q -6.8,2.3 -13.5,3.9 -18.7,4.45 -36.4,3.1 -15.9,-1.2 -30.95,-7 l -0.85,-0.65 q -0.35,-0.45 -0.4,-1 -3.5,-30.5 11.4,-37.85 Q 70.8,114.25 72.3,3.45 M 699.1,2 q 0.55,-0.55 1.35,-0.55 h 54.35 q 0.8,0 1.4,0.6 0.6,0.55 0.6,1.35 3.35,115.65 1.75,212.35 14.95,7.35 11.5,37.8 l -0.4,1 -0.85,0.65 q -15.3,5.9 -31.4,7.05 l -24.2,-0.9 -8.9,-1.6 Q 696.2,258 687.9,255.2 l -0.9,-0.65 q -0.4,-0.45 -0.45,-1.05 -3.25,-31.65 8.7,-37.1 Q 691.3,113.85 698.45,3.35 698.5,2.55 699.1,2 M 114.3,5.45 H 92.7 76.3 q -1.5,109.7 -3.85,210.75 9.45,4.05 20.25,5.1 l 0.85,0.05 8.05,0.3 12.65,-1 h 0.05 l 7.25,-1.6 q 3.25,-0.9 6.1,-2.15 3.95,-101.75 0.1,-211.45 h -6.2 -7.25 m 277.25,0 h -4.35 q -6.05,123.5 -6.9,211.95 4.2,1.65 8.55,2.9 l 2.7,0.7 q 7.1,1.75 14.35,2.25 6.4,0.45 12.95,-0.05 l 13.05,-2 0.25,-0.05 7.7,-2.05 q 4.45,-85.2 0.8,-213.65 H 431.9 418.85 405.9 391.55 m -8.25,-2.1 q 0.05,-0.8 0.65,-1.35 0.55,-0.55 1.35,-0.55 h 57.3 q 0.8,0 1.4,0.6 0.6,0.55 0.6,1.35 3.7,129.9 -0.75,215.85 14.75,6.7 12.5,39.75 l -0.4,1.1 -0.95,0.65 q -11.3,3.75 -21.9,5.6 -12.1,2.15 -23.35,1.8 l -13.1,-1.1 -12.15,-2.2 q -9.45,-2.15 -19.3,-5.6 l -0.9,-0.65 q -0.35,-0.45 -0.4,-1 -3.9,-33.15 12.35,-40.2 0.9,-89.25 7.05,-214.05 m -0.8,256.9 q 7.15,1.75 14.05,2.75 l 13.3,1.15 h 0.05 l 15.45,-0.7 9.45,-1.45 q 8.6,-1.7 17.65,-4.6 1.7,-28.95 -10.85,-34.7 l -7.95,2.15 -1.75,0.4 -11.35,1.8 -1.7,0.15 q -6.55,0.5 -12.95,0.1 l -1.15,-0.1 q -6.7,-0.55 -13.2,-2.05 l -4.8,-1.3 q -4.3,-1.25 -8.45,-2.9 -13.65,6.15 -10.6,34.95 7.5,2.55 14.8,4.35 m -267.2,-35.7 -13.65,1.1 -8.95,-0.35 -1.25,-0.1 q -11.2,-1.25 -21,-5.5 -12.3,6.5 -9.6,32.65 13.55,5.05 27.75,6.25 14.1,1.2 28.9,-1.4 l 9.2,-2 9.95,-2.9 q 2.55,-27.45 -7,-31.9 l -6.1,2.25 -1.9,0.55 -6.35,1.35 m 596.25,32.5 q 14.65,2.3 28.65,0.9 13.3,-1.35 26,-6.1 2.65,-25.7 -9.25,-32.4 Q 748.9,223 740,224.5 l -2.75,0.4 -11.95,0.7 -10.55,-0.65 -8.05,-1.45 q -5.4,-1.3 -9.85,-3.35 -8.95,4.95 -6.4,31.65 6.2,2.05 12.35,3.5 l 8.75,1.75"
       id="path68"
       inkscape:connector-curvature="0"
       style="fill:#000000;fill-rule:evenodd;stroke:none" />
    <path
       d="m 737.25,5.45 h 15.6 q 3.25,114.7 1.7,210.7 -8.1,3.45 -17.15,4.7 l -0.15,0.05 0.05,-0.3 Q 742.45,123.45 737.25,5.45 M 92.7,221.3 Q 81.9,220.25 72.45,216.2 74.8,115.15 76.3,5.45 h 16.4 q -3.5,120.8 0,215.85 m 298.85,-0.3 -2.7,-0.7 q -4.35,-1.25 -8.55,-2.9 0.85,-88.45 6.9,-211.95 h 4.35 q -3,124.6 -0.1,211.8 l 0.1,3.75 M 431.9,5.45 h 8.75 q 3.65,128.45 -0.8,213.65 l -7.7,2.05 -0.25,0.05 q 4,-100 0,-215.75"
       id="path70"
       inkscape:connector-curvature="0"
       style="fill:#987356;fill-rule:evenodd;stroke:none" />
    <path
       d="m 386.75,223.85 -1.2,2.45 q -4.8,10.6 -4.8,24.75 0,3.3 1.3,7.8 l 0.45,1.4 q -7.3,-1.8 -14.8,-4.35 -3.05,-28.8 10.6,-34.95 4.15,1.65 8.45,2.9 m 46.9,1 7.95,-2.15 q 12.55,5.75 10.85,34.7 -9.05,2.9 -17.65,4.6 l 1.3,-4.35 q 1.65,-6.55 1.65,-14.35 0,-7.6 -2.6,-14.9 l -1.5,-3.55 M 88.6,258.6 q -14.2,-1.2 -27.75,-6.25 -2.7,-26.15 9.6,-32.65 9.8,4.25 21,5.5 l -0.6,1.55 Q 88,234.7 88,247.05 q 0,6.6 0.6,11.55 m 651.6,-0.65 1.6,-3.15 q 3.2,-6.8 3.2,-13.25 0,-8.75 -3.7,-15.3 L 740,224.5 q 8.9,-1.5 16.95,-5.05 11.9,6.7 9.25,32.4 -12.7,4.75 -26,6.1"
       id="path72"
       inkscape:connector-curvature="0"
       style="fill:#574735;fill-rule:evenodd;stroke:none" />
    <path
       d="m 709,5.45 h 7.95 v 215.7 L 709,219.9 V 5.45 m -594.7,0 h 7.25 v 213.6 l -7.25,1.6 V 5.45"
       id="path74"
       inkscape:connector-curvature="0"
       style="fill:#c8b19d;fill-rule:evenodd;stroke:none" />
    <path
       d="m 115.3,224.55 6.35,-1.35 1.9,-0.55 1.7,2.2 q 3.1,5.5 3.1,14 0,6.9 -0.75,11.85 l -0.9,4.5 -9.2,2 0.8,-6.55 q 1.05,-8.8 1.05,-12 0,-6.3 -2,-10.75 l -2.05,-3.35 m 599.45,0.4 q -1.05,1.65 -1.9,3.8 -3,7.55 -3,19.55 0,3.05 1.45,7.9 l 0.25,0.85 -8.75,-1.75 -0.25,-0.8 q -1.35,-5.25 -1.35,-9.45 0,-12.15 3.85,-19.1 l 1.65,-2.45 8.05,1.45"
       id="path76"
       inkscape:connector-curvature="0"
       style="fill:#9d8060;fill-rule:evenodd;stroke:none" />
    <path
       d="m 396.55,263 q 0.25,-14.15 3.45,-24.95 2.15,-7.4 4.75,-10.85 l 1.15,0.1 q 6.4,0.4 12.95,-0.1 l 1.7,-0.15 q 1.4,3.1 2.65,7.5 2.8,9.7 2.8,20.7 l -0.45,6.05 -0.2,2.15 -15.45,0.7 h -0.05 L 396.55,263"
       id="path78"
       inkscape:connector-curvature="0"
       style="fill:#80674d;fill-rule:evenodd;stroke:none" />
    <path
       d="m 405.9,5.45 h 12.95 V 223.2 q -6.55,0.5 -12.95,0.05 V 5.45"
       id="path80"
       inkscape:connector-curvature="0"
       style="fill:#b4967a;fill-rule:evenodd;stroke:none" />
  </g>
</svg>
