<?xml version="1.0" encoding="UTF-8" standalone="no"?>
<svg
   xmlns:dc="http://purl.org/dc/elements/1.1/"
   xmlns:cc="http://creativecommons.org/ns#"
   xmlns:rdf="http://www.w3.org/1999/02/22-rdf-syntax-ns#"
   xmlns:svg="http://www.w3.org/2000/svg"
   xmlns="http://www.w3.org/2000/svg"
   xmlns:sodipodi="http://sodipodi.sourceforge.net/DTD/sodipodi-0.dtd"
   xmlns:inkscape="http://www.inkscape.org/namespaces/inkscape"
   height="720"
   width="1280"
   version="1.1"
   id="svg206"
   sodipodi:docname="dojo.svg"
   inkscape:version="0.92.3 (2405546, 2018-03-11)">
  <metadata
     id="metadata210">
    <rdf:RDF>
      <cc:Work
         rdf:about="">
        <dc:format>image/svg+xml</dc:format>
        <dc:type
           rdf:resource="http://purl.org/dc/dcmitype/StillImage" />
        <dc:title></dc:title>
      </cc:Work>
    </rdf:RDF>
  </metadata>
  <sodipodi:namedview
     pagecolor="#ffffff"
     bordercolor="#666666"
     borderopacity="1"
     objecttolerance="10"
     gridtolerance="10"
     guidetolerance="10"
     inkscape:pageopacity="0"
     inkscape:pageshadow="2"
     inkscape:window-width="1920"
     inkscape:window-height="1057"
     id="namedview208"
     showgrid="false"
     inkscape:zoom="0.93064899"
     inkscape:cx="611.22542"
     inkscape:cy="340.65601"
     inkscape:window-x="1592"
     inkscape:window-y="-8"
     inkscape:window-maximized="1"
     inkscape:current-layer="g1045" />
  <defs
     id="defs204">
    <linearGradient
       gradientTransform="matrix(8e-4,0.0217,-0.0676,0.0024,836.7,172.9)"
       gradientUnits="userSpaceOnUse"
       id="gradient0"
       spreadMethod="pad"
       x1="-819.20001"
       x2="819.20001">
      <stop
         offset="0.09803921568627451"
         stop-color="#dbb99a"
         id="stop84" />
      <stop
         offset="0.9254901960784314"
         stop-color="#d6a584"
         id="stop86" />
    </linearGradient>
    <linearGradient
       gradientTransform="matrix(4e-4,0.015,-0.0673,0.0018,809.05,173.9)"
       gradientUnits="userSpaceOnUse"
       id="gradient1"
       spreadMethod="pad"
       x1="-819.20001"
       x2="819.20001">
      <stop
         offset="0.09803921568627451"
         stop-color="#dbb99a"
         id="stop89" />
      <stop
         offset="0.9254901960784314"
         stop-color="#d6a584"
         id="stop91" />
    </linearGradient>
    <linearGradient
       gradientTransform="matrix(4e-4,0.0156,-0.0673,0.0018,782.5,174.75)"
       gradientUnits="userSpaceOnUse"
       id="gradient2"
       spreadMethod="pad"
       x1="-819.20001"
       x2="819.20001">
      <stop
         offset="0.09803921568627451"
         stop-color="#dbb99a"
         id="stop94" />
      <stop
         offset="0.9254901960784314"
         stop-color="#d6a584"
         id="stop96" />
    </linearGradient>
    <linearGradient
       gradientTransform="matrix(0.0019,0.0357,-0.0681,0.0036,726.45,176.25)"
       gradientUnits="userSpaceOnUse"
       id="gradient3"
       spreadMethod="pad"
       x1="-819.20001"
       x2="819.20001">
      <stop
         offset="0.09803921568627451"
         stop-color="#dbb99a"
         id="stop99" />
      <stop
         offset="0.9254901960784314"
         stop-color="#d6a584"
         id="stop101" />
    </linearGradient>
    <linearGradient
       gradientTransform="matrix(4e-4,0.0149,-0.0671,0.0018,640.9,178.25)"
       gradientUnits="userSpaceOnUse"
       id="gradient4"
       spreadMethod="pad"
       x1="-819.20001"
       x2="819.20001">
      <stop
         offset="0.09803921568627451"
         stop-color="#dbb99a"
         id="stop104" />
      <stop
         offset="0.9254901960784314"
         stop-color="#d6a584"
         id="stop106" />
    </linearGradient>
    <linearGradient
       gradientTransform="matrix(5e-4,0.0152,-0.0671,0.0023,616.2,178.65)"
       gradientUnits="userSpaceOnUse"
       id="gradient5"
       spreadMethod="pad"
       x1="-819.20001"
       x2="819.20001">
      <stop
         offset="0.09803921568627451"
         stop-color="#dbb99a"
         id="stop109" />
      <stop
         offset="0.9254901960784314"
         stop-color="#d6a584"
         id="stop111" />
    </linearGradient>
    <linearGradient
       gradientTransform="matrix(0.0011,0.0163,-0.067,0.0047,668.3,177.75)"
       gradientUnits="userSpaceOnUse"
       id="gradient6"
       spreadMethod="pad"
       x1="-819.20001"
       x2="819.20001">
      <stop
         offset="0.09803921568627451"
         stop-color="#dbb99a"
         id="stop114" />
      <stop
         offset="0.9254901960784314"
         stop-color="#d6a584"
         id="stop116" />
    </linearGradient>
    <linearGradient
       gradientTransform="matrix(5e-4,0.0176,-0.067,0.0018,532.45,179.75)"
       gradientUnits="userSpaceOnUse"
       id="gradient7"
       spreadMethod="pad"
       x1="-819.20001"
       x2="819.20001">
      <stop
         offset="0.09803921568627451"
         stop-color="#dbb99a"
         id="stop119" />
      <stop
         offset="0.9254901960784314"
         stop-color="#d6a584"
         id="stop121" />
    </linearGradient>
    <linearGradient
       gradientTransform="matrix(2e-4,0.0161,-0.067,9e-4,558.8,179.5)"
       gradientUnits="userSpaceOnUse"
       id="gradient8"
       spreadMethod="pad"
       x1="-819.20001"
       x2="819.20001">
      <stop
         offset="0.09803921568627451"
         stop-color="#dbb99a"
         id="stop124" />
      <stop
         offset="0.9254901960784314"
         stop-color="#d6a584"
         id="stop126" />
    </linearGradient>
    <linearGradient
       gradientTransform="matrix(3e-4,0.0166,-0.0671,0.0012,587.95,179.15)"
       gradientUnits="userSpaceOnUse"
       id="gradient9"
       spreadMethod="pad"
       x1="-819.20001"
       x2="819.20001">
      <stop
         offset="0.09803921568627451"
         stop-color="#dbb99a"
         id="stop129" />
      <stop
         offset="0.9254901960784314"
         stop-color="#d6a584"
         id="stop131" />
    </linearGradient>
    <linearGradient
       gradientTransform="matrix(-2e-4,0.037,-0.067,-3e-4,415.7,180.15)"
       gradientUnits="userSpaceOnUse"
       id="gradient10"
       spreadMethod="pad"
       x1="-819.20001"
       x2="819.20001">
      <stop
         offset="0.09803921568627451"
         stop-color="#dbb99a"
         id="stop134" />
      <stop
         offset="0.9254901960784314"
         stop-color="#d6a584"
         id="stop136" />
    </linearGradient>
    <linearGradient
       gradientTransform="matrix(-4e-4,0.0177,-0.0669,-0.0015,480.4,180.15)"
       gradientUnits="userSpaceOnUse"
       id="gradient11"
       spreadMethod="pad"
       x1="-819.20001"
       x2="819.20001">
      <stop
         offset="0.09803921568627451"
         stop-color="#dbb99a"
         id="stop139" />
      <stop
         offset="0.9254901960784314"
         stop-color="#d6a584"
         id="stop141" />
    </linearGradient>
    <linearGradient
       gradientTransform="matrix(9e-4,0.0181,-0.0668,0.0032,506.9,179.95)"
       gradientUnits="userSpaceOnUse"
       id="gradient12"
       spreadMethod="pad"
       x1="-819.20001"
       x2="819.20001">
      <stop
         offset="0.09803921568627451"
         stop-color="#dbb99a"
         id="stop144" />
      <stop
         offset="0.9254901960784314"
         stop-color="#d6a584"
         id="stop146" />
    </linearGradient>
    <linearGradient
       gradientTransform="matrix(7e-4,0.0182,-0.0669,0.0026,348.1,180)"
       gradientUnits="userSpaceOnUse"
       id="gradient13"
       spreadMethod="pad"
       x1="-819.20001"
       x2="819.20001">
      <stop
         offset="0.09803921568627451"
         stop-color="#dbb99a"
         id="stop149" />
      <stop
         offset="0.9254901960784314"
         stop-color="#d6a584"
         id="stop151" />
    </linearGradient>
    <linearGradient
       gradientTransform="matrix(-1e-4,0.0157,-0.067,-6e-4,320.65,179.7)"
       gradientUnits="userSpaceOnUse"
       id="gradient14"
       spreadMethod="pad"
       x1="-819.20001"
       x2="819.20001">
      <stop
         offset="0.09803921568627451"
         stop-color="#dbb99a"
         id="stop154" />
      <stop
         offset="0.9254901960784314"
         stop-color="#d6a584"
         id="stop156" />
    </linearGradient>
    <linearGradient
       gradientTransform="matrix(-1e-4,0.0166,-0.067,-4e-4,292.7,179.45)"
       gradientUnits="userSpaceOnUse"
       id="gradient15"
       spreadMethod="pad"
       x1="-819.20001"
       x2="819.20001">
      <stop
         offset="0.09803921568627451"
         stop-color="#dbb99a"
         id="stop159" />
      <stop
         offset="0.9254901960784314"
         stop-color="#d6a584"
         id="stop161" />
    </linearGradient>
    <linearGradient
       gradientTransform="matrix(-1e-4,0.0182,-0.0671,-4e-4,205.65,178)"
       gradientUnits="userSpaceOnUse"
       id="gradient16"
       spreadMethod="pad"
       x1="-819.20001"
       x2="819.20001">
      <stop
         offset="0.09803921568627451"
         stop-color="#dbb99a"
         id="stop164" />
      <stop
         offset="0.9254901960784314"
         stop-color="#d6a584"
         id="stop166" />
    </linearGradient>
    <linearGradient
       gradientTransform="matrix(5e-4,0.0155,-0.0671,0.0021,233.15,178.5)"
       gradientUnits="userSpaceOnUse"
       id="gradient17"
       spreadMethod="pad"
       x1="-819.20001"
       x2="819.20001">
      <stop
         offset="0.09803921568627451"
         stop-color="#dbb99a"
         id="stop169" />
      <stop
         offset="0.9254901960784314"
         stop-color="#d6a584"
         id="stop171" />
    </linearGradient>
    <linearGradient
       gradientTransform="matrix(0,0.0186,-0.0671,0,263.15,179)"
       gradientUnits="userSpaceOnUse"
       id="gradient18"
       spreadMethod="pad"
       x1="-819.20001"
       x2="819.20001">
      <stop
         offset="0.09803921568627451"
         stop-color="#dbb99a"
         id="stop174" />
      <stop
         offset="0.9254901960784314"
         stop-color="#d6a584"
         id="stop176" />
    </linearGradient>
    <linearGradient
       gradientTransform="matrix(-0.0012,0.0545,-0.0684,-0.0015,95.95,175.05)"
       gradientUnits="userSpaceOnUse"
       id="gradient19"
       spreadMethod="pad"
       x1="-819.20001"
       x2="819.20001">
      <stop
         offset="0.09803921568627451"
         stop-color="#dbb99a"
         id="stop179" />
      <stop
         offset="0.9254901960784314"
         stop-color="#d6a584"
         id="stop181" />
    </linearGradient>
    <linearGradient
       gradientTransform="matrix(2e-4,0.0154,-0.0672,7e-4,153.85,176.75)"
       gradientUnits="userSpaceOnUse"
       id="gradient20"
       spreadMethod="pad"
       x1="-819.20001"
       x2="819.20001">
      <stop
         offset="0.09803921568627451"
         stop-color="#dbb99a"
         id="stop184" />
      <stop
         offset="0.9254901960784314"
         stop-color="#d6a584"
         id="stop186" />
    </linearGradient>
    <linearGradient
       gradientTransform="matrix(-1e-4,0.0156,-0.0672,-6e-4,180.75,177.4)"
       gradientUnits="userSpaceOnUse"
       id="gradient21"
       spreadMethod="pad"
       x1="-819.20001"
       x2="819.20001">
      <stop
         offset="0.09803921568627451"
         stop-color="#dbb99a"
         id="stop189" />
      <stop
         offset="0.9254901960784314"
         stop-color="#d6a584"
         id="stop191" />
    </linearGradient>
    <linearGradient
       gradientTransform="matrix(-1e-4,0.0137,-0.0673,-6e-4,41.5,173.15)"
       gradientUnits="userSpaceOnUse"
       id="gradient22"
       spreadMethod="pad"
       x1="-819.20001"
       x2="819.20001">
      <stop
         offset="0.09803921568627451"
         stop-color="#dbb99a"
         id="stop194" />
      <stop
         offset="0.9254901960784314"
         stop-color="#d6a584"
         id="stop196" />
    </linearGradient>
    <linearGradient
       gradientTransform="matrix(1e-4,0.0147,-0.0674,6e-4,16.3,172.25)"
       gradientUnits="userSpaceOnUse"
       id="gradient23"
       spreadMethod="pad"
       x1="-819.20001"
       x2="819.20001">
      <stop
         offset="0.09803921568627451"
         stop-color="#dbb99a"
         id="stop199" />
      <stop
         offset="0.9254901960784314"
         stop-color="#d6a584"
         id="stop201" />
    </linearGradient>
    <linearGradient
       x2="819.20001"
       x1="-819.20001"
       spreadMethod="pad"
       id="gradient0-3"
       gradientUnits="userSpaceOnUse"
       gradientTransform="matrix(1.4683114e-4,-0.01734871,0.04111272,2.8209279e-4,648.02666,219.48324)">
      <stop
         id="stop1047"
         stop-color="#dbb99a"
         offset="0.09803921568627451" />
      <stop
         id="stop1049"
         stop-color="#ead1b8"
         offset="1.0" />
    </linearGradient>
  </defs>
  <g
     id="g1045"
     transform="matrix(1.0242875,0,0,1.0242875,-19.095735,187.7988)"
     style="opacity:1">
    <path
       id="path1017"
       d="m 1272.7198,153.82612 v 37.02467 h -0.074 q -0.8076,-0.77575 -1.8354,-0.77575 h -0.2203 q -635.92565,25.59992 -1249.239344,-2.60935 -1.248064,-0.0706 -2.12905,0.77574 h -0.66074 v -34.90898 l 62.843728,2.32727 3.523948,2.82092 q 17.399498,13.3289 42.067128,13.3289 28.11816,0 59.9071,-12.20053 v -0.63471 h 1.61515 q 182.36428,5.1482 368.47275,6.065 22.90567,9.87324 55.79583,9.87324 32.37628,0 57.41098,-8.8154 v -0.84627 h 2.42272 q 183.02502,-0.35262 369.6474,-4.65454 l 6.6808,2.04517 q 25.8422,7.19338 55.9427,7.19338 33.6243,0 56.4565,-10.57849 l 3.8911,-1.90413 107.4804,-3.52614"
       inkscape:connector-curvature="0"
       style="opacity:1;fill:#ffecd2;fill-rule:evenodd;stroke:none;stroke-width:1.43909705" />
    <path
       id="path1019"
       d="m 1272.7198,190.85079 v 0.0706 q 0.8075,0.70523 0.8809,1.83359 v 0.0706 q 0.074,1.12836 -0.7341,1.97464 l -0.1468,0.14105 q -0.8076,0.70522 -1.9088,0.77576 h -0.1469 Q 634.59163,221.31679 21.057699,193.1075 q -1.17465,-0.0706 -1.982221,-0.91679 l -0.513909,-0.63472 -0.293663,-1.41045 0.293663,-1.12838 0.66074,-0.77576 q 0.880987,-0.84628 2.12905,-0.77574 613.313691,28.20927 1249.239341,2.60935 h 0.2203 q 1.0278,0 1.8354,0.77575 h 0.074 m -1171.27266,99.9314 q 2.71639,3.9493 7.41498,4.01982 4.47835,-0.14104 15.49069,-6.13553 12.48064,-6.84074 18.50073,-6.6997 6.6074,-0.0706 13.58187,5.99448 5.35934,4.58402 8.51621,4.79557 3.01004,-0.14104 9.32378,-3.94929 7.85546,-4.86611 11.01234,-4.72505 3.30369,-0.21158 9.47059,5.14819 4.47837,3.87878 7.63524,4.01982 3.96443,-0.0705 9.03012,-4.09034 6.53397,-5.21873 11.52623,-5.07767 2.12905,-0.21158 9.32377,4.44295 5.653,3.66721 10.71869,3.73775 4.772,-0.0705 16.37167,-5.1482 12.70089,-5.71239 20.18929,-5.64186 5.35932,-0.0705 12.40723,4.79557 5.50615,3.80826 8.14911,3.94931 3.52396,-0.0705 12.48066,-4.16089 10.35159,-4.65452 13.72872,-4.58399 4.11126,0 6.82764,1.90412 l 4.03785,3.66722 q 3.96445,4.16087 11.23258,4.16087 7.78206,0 14.02237,-4.16087 7.56181,-5.21873 11.59967,-5.07769 5.72642,-0.0706 10.42502,4.86611 3.37711,3.38512 9.39719,3.38512 4.69859,-0.0705 12.62747,-4.30193 9.25036,-5.07766 13.58189,-4.93662 4.69859,-0.0705 12.40723,4.44297 6.24032,3.66721 9.76427,3.73773 5.653,-0.0705 13.72871,-3.17355 v 0.0705 q 8.9567,-3.66718 13.50847,-3.59667 4.77201,-0.0705 14.46286,4.93663 8.4428,4.30191 15.63752,4.30191 5.50616,0 12.48064,-2.39778 7.78206,-2.67989 13.72872,-2.67989 8.14912,0 16.07801,5.35976 6.6074,4.37245 11.45283,4.44297 4.91884,-0.0705 13.87553,-5.1482 10.42502,-5.85342 14.97679,-5.71237 4.69858,-0.0705 15.41726,3.52615 9.61744,3.10302 14.24262,3.17356 4.55177,-0.14106 12.11358,-5.4303 h 0.0734 q 9.17695,-6.55866 20.99685,-3.24407 10.71868,3.0325 20.18929,7.05232 8.73645,3.59669 13.06797,3.66721 8.22254,0 17.61975,-4.58401 v -0.0705 q 10.57183,-5.1482 16.81215,-5.07768 2.64297,-0.0706 14.68311,4.51349 10.7921,4.09034 15.19703,4.16086 5.7264,0 11.96675,-2.7504 v -0.0705 q 7.41497,-3.3851 12.33381,-3.31458 3.59736,-0.21157 8.58961,4.72505 3.30371,3.31459 5.79983,3.45564 3.52395,-0.0706 11.37941,-4.01983 9.32379,-4.79558 12.48066,-4.65453 1.9088,-0.0706 7.92887,2.18622 4.91885,1.8336 7.78206,1.90412 5.57958,-0.0705 12.26041,-4.23139 7.92886,-5.07768 13.65528,-5.00714 5.06568,-0.0705 13.14141,3.80826 6.75422,3.31458 10.35158,3.38509 4.47835,-0.0705 11.96675,-3.38509 8.58962,-3.8788 12.55405,-3.80826 4.69859,-0.0705 13.36164,3.80826 7.34155,3.31458 11.01233,3.38509 3.45055,-0.14104 11.81991,-4.58399 9.54402,-5.21872 17.54632,-5.14819 8.14912,-0.0706 18.28048,5.99447 8.80986,5.21871 15.63751,5.28924 2.71638,-0.0705 10.8655,-2.25675 9.03,-2.46832 12.8477,-2.39778 4.6252,0 7.7821,3.24406 v 0.0706 q 1.9088,1.83359 4.3315,1.83359 5.7264,-0.0705 12.3339,-4.23139 7.7819,-5.00714 16.2247,-5.00714 6.4606,0 13.2883,3.0325 5.7264,2.60936 9.9111,2.60936 8.6629,0 11.7464,-2.46831 l 2.9367,-2.39779 -0.2937,0.0705 q 2.0556,-1.33995 5.6531,-1.33995 1.5416,0 11.159,2.1157 8.9568,1.97465 14.7566,1.97465 6.4606,0 9.1036,-1.26942 3.3037,-1.8336 6.9744,-1.8336 3.0835,-0.0706 11.0124,2.46832 v 0.0705 q 6.9744,2.1157 11.3059,2.1157 5.9467,0 12.9947,-2.39779 7.8553,-2.75041 12.9945,-2.75041 3.7441,-0.0705 11.3059,2.75041 6.3872,2.32727 8.1491,2.39779 1.909,-0.0705 9.4708,-2.67989 8.5895,-3.03249 11.159,-2.96197 3.1569,-0.0705 7.929,2.89145 3.5238,2.18621 9.1035,2.18621 4.9921,0 9.7642,-2.60935 h 0.074 q 8.2961,-4.44296 11.3061,-5.43028 h 0.074 q 2.496,-0.84628 8.0023,-1.76308 h 0.074 l 3.891,-0.63471 2.0557,-0.42314 1.6151,-0.42314 0.5874,-0.14106 0.9544,-0.21155 1.615,0.14104 q 0.8077,0.42314 1.1013,1.26942 0.2202,0.77575 -0.1468,1.55151 l -1.3215,1.05784 -1.6152,0.42315 -0.5872,0.14104 -2.2025,0.49366 -2.0557,0.35262 -3.2302,0.56418 h 0.074 q -5.1391,0.84628 -7.415,1.62205 -2.8633,0.9168 -10.6453,5.07766 -5.7998,3.17354 -11.9667,3.17354 -7.0479,0 -11.5262,-2.89145 -3.3773,-2.11569 -5.5063,-2.18621 -2.129,0.0705 -9.6173,2.67988 h -0.074 q -8.0756,2.82092 -10.5718,2.96198 l 72.5346,192.88093 20.9968,55.78385 h -4.6252 l -16.3716,-43.51281 -48.748,-129.55111 -28.7789,-76.51766 -5.0656,-1.76309 h -0.074 q -3.7442,-1.41045 -6.3138,-1.97466 l 26.7966,77.36396 55.7226,160.72237 5.2859,15.233 -8.296,1.48099 -5.5062,-16.71399 -53.5934,-162.06231 -25.255,-76.44716 q -4.1847,0.35263 -9.9845,2.3978 l -0.074,0.0705 q -7.415,3.45564 -13.1413,3.38512 -5.7999,-0.14105 -14.0224,-3.17354 -6.9744,-2.18622 -9.6175,-2.25675 -2.496,0 -4.7719,2.04517 -2.2025,2.04517 -9.2505,2.1157 -7.1213,0.0705 -17.7665,-3.17354 h -0.074 l -10.1312,-1.97465 q -2.1291,0 -3.3038,0.70522 l -1.1746,0.2821 q 0.4405,0.35262 -0.8076,1.55151 -3.8176,5.07768 -11.7465,4.65453 -7.9289,-0.42314 -14.2426,-3.52615 -6.3872,-3.17356 -11.9668,-3.17356 -7.1213,0 -13.8021,4.30192 -6.6808,4.23139 -12.6274,4.86611 l 54.9149,229.41196 13.1413,54.86704 h -4.4784 l -13.1413,-54.86704 -45.8848,-191.8231 -9.0302,-37.72991 q -2.8632,-0.70523 -5.139,-2.96197 h -0.074 q -1.8355,-1.97465 -4.5518,-1.97465 l -5.3593,0.91679 8.6631,39.84561 41.8468,193.72723 11.8198,54.86704 -6.6073,0.56418 -11.5263,-55.43122 -40.4519,-194.36194 -7.92889,-37.80043 -0.0734,-0.21157 -1.9088,0.56418 q -8.07571,2.67989 -12.77431,3.10303 -4.6986,0.42314 -15.41727,-5.92395 -10.79209,-6.41761 -17.9134,-6.48814 -6.97448,0.0705 -16.07801,5.71239 -9.10353,5.64184 -13.36163,5.57132 -4.18469,-0.21157 -12.2604,-4.44296 -8.07572,-4.2314 -12.04016,-4.30192 -3.37711,0.0705 -11.89333,4.23141 -8.51621,4.09034 -13.28821,4.09034 -4.772,0 -11.59967,-4.09034 -6.90105,-4.16089 -11.23257,-4.23141 -4.6986,0.0705 -12.77432,5.28925 -3.15687,1.97466 -5.72641,3.10302 l 22.39176,230.18772 3.89101,40.40978 h -4.40493 l -3.89102,-40.40978 -20.40953,-209.4539 -1.90881,-19.25283 -2.49613,0.14105 q -4.47834,-0.42314 -9.4706,-2.53884 l 1.39489,21.01591 13.94897,210.08861 2.64295,40.40978 -7.04789,2.04517 -2.3493,-42.45495 -11.8199,-210.30018 -1.32149,-22.56742 -2.27588,-0.56418 q -2.56955,0.14104 -11.01233,4.58401 -8.4428,4.37243 -11.96675,4.93662 -3.59735,0.56418 -8.36936,-4.09035 -4.77202,-4.72506 -6.90107,-4.93662 -4.1847,0.0705 -10.42502,2.89144 -8.07571,4.8661 -13.7287,4.72506 -5.65301,-0.21156 -16.66534,-5.14819 -11.01234,-4.93662 -13.36164,-5.00715 -5.50616,0.0705 -14.82994,4.65453 -12.04015,6.13552 -18.57414,5.85343 -6.6074,-0.28209 -15.78435,-4.51349 -9.25036,-4.2314 -19.74879,-7.12285 -7.56181,-2.11569 -13.80213,0.63471 l 17.25267,235.97063 3.89102,53.87971 h -4.40493 l -4.03786,-55.07859 -15.41727,-211.35804 -1.54173,-20.87485 q -8.5162,6.13551 -13.58188,6.13551 l 0.22026,15.02143 2.4227,211.07595 0.66074,59.09843 -6.53398,-4.01983 -0.22025,-55.0786 -0.9544,-211.00542 -0.0734,-15.58563 q -4.62538,-0.91679 -11.45302,-3.38509 h -0.0734 q -9.69086,-3.24409 -13.94896,-3.3146 -3.81761,0.14105 -13.28823,5.7829 -9.47058,5.64185 -14.90333,6.27656 -5.43275,0.56418 -13.36165,-5.21872 -8.00229,-5.78289 -14.82994,-5.78289 -5.35934,0 -12.26041,2.39779 v 0.0705 q -7.26813,3.38512 -14.16919,3.73773 -6.97448,0.28211 -16.37167,-5.00714 -9.47062,-5.28924 -13.50847,-5.35976 -3.96444,0.0705 -11.81991,3.24407 -8.36938,4.65452 -13.21481,5.28924 l -2.27588,24.75363 -18.57415,203.10682 -4.18467,45.84006 -5.94667,-0.98733 4.25811,-43.65384 19.82219,-203.95309 2.42272,-25.45887 q -4.2581,-1.12838 -9.47061,-4.86611 -3.67077,-2.60936 -6.38715,-3.73772 l -3.52394,35.40264 -20.11587,202.61315 -4.33152,43.65384 h -4.47834 l 4.33151,-43.58333 v -0.0705 l 23.71299,-239.00299 q -3.67077,0.28209 -11.89332,5.35975 -8.66304,5.28925 -15.63751,5.64186 -6.97449,0.28209 -10.86551,-6.55866 l -0.0734,-0.0705 v 0.0705 q -3.23029,-3.45564 -7.19472,-3.52616 -3.01004,0.14104 -9.03011,4.30192 h -0.0734 q -7.19473,5.71238 -16.29826,6.34708 -9.10353,0.63471 -13.06797,-4.37244 l -4.6986,-5.5008 -0.14683,-0.14105 q -1.76197,-1.12837 -4.40492,-1.12837 -2.78981,0.14105 -12.40726,4.72505 -9.69085,4.58402 -13.50846,5.21872 -3.89102,0.63471 -10.27818,-4.58399 -6.38716,-5.28927 -10.57183,-5.35978 -6.75423,0.0705 -18.3539,5.21871 v 0.0706 q -8.36938,4.86611 -13.65529,6.55866 l -9.25037,46.05164 -36.48754,180.68044 -4.40494,21.86219 h -7.19472 l 4.6986,-21.86219 38.24951,-179.90469 9.69086,-45.84007 v -0.14104 l -1.02781,-0.0705 q -5.50618,-0.77576 -11.45284,-5.28925 l -2.56954,-1.83359 -12.48064,56.13645 -39.571,176.94271 -4.91885,21.86219 h -4.55176 l 4.91884,-21.86219 52.63897,-235.61802 -0.88099,-0.3526 q -3.67077,0.14105 -9.10352,5.43029 -5.43275,5.21872 -10.64527,4.58401 -5.28592,-0.63472 -10.49842,-5.21873 -5.28594,-4.58401 -7.41499,-4.79557 -2.4227,0.14105 -8.58962,4.01982 l -0.0734,0.0706 q -8.51621,6.77022 -11.96672,6.98179 -3.45054,0.14104 -11.15917,-8.25121 v -0.0706 q -5.50618,-4.79559 -10.64527,-4.86611 -5.28593,0.14104 -16.95899,6.9818 -11.74649,6.84075 -17.9134,7.33443 -6.02008,0.49365 -10.278197,-7.546 -2.716365,-4.09035 -7.268132,-4.16087 -3.303702,0.0706 -7.268143,2.53884 -5.432752,3.17354 -8.736453,3.10302 -3.523947,0.0706 -6.827647,-2.39779 l -30.540878,95.4884 -18.500724,57.82903 -3.81761,11.91842 -5.7264149,0.49364 0.073414,-0.0705 9.4706099,-29.05556 12.847724,-39.42246 32.743344,-100.56608 -0.954401,-1.26941 v 0.0706 q -3.744194,-5.1482 -7.268141,-5.35977 -2.275884,0.14104 -6.97448,2.89146 L 18.561549,379.92358 -3.3897077,448.4016 h -4.625181 L 18.561569,365.46623 43.376032,288.03176 q -4.037856,1.83359 -6.974479,1.76308 -4.625182,0.0705 -7.782052,-3.87879 h -0.07341 l -7.782052,-10.15534 -1.761974,-2.32726 q -0.513909,-0.70524 -0.367076,-1.55151 0.07341,-0.91679 0.880986,-1.41047 0.587325,-0.42313 1.248064,-0.42313 l 0.367078,0.0705 q 0.880988,0.0706 1.394896,0.8463 l 9.544025,12.34154 q 1.761973,2.18623 4.331519,2.25676 3.450531,-0.0705 9.030116,-3.45564 7.12131,-4.37244 10.498426,-4.2314 5.432753,-0.21156 10.865505,7.12285 3.670777,5.07767 7.635219,5.21872 2.422713,-0.0705 6.387154,-2.46832 5.285922,-3.24406 9.61744,-3.17354 h 0.07341 q 6.827655,-0.0706 10.938913,6.13551 h -0.0734 l 0.0734,0.0706 m 1171.19866,-53.59764 0.074,0.14105 q 0.8075,0.70522 0.8809,1.76307 v 0.14104 q 0.074,1.12838 -0.7341,1.97465 l -0.1468,0.14107 q -0.7342,0.70522 -1.8354,0.77574 h -0.2203 Q 634.51852,280.97943 19.956768,245.57679 l -1.394896,-0.42313 -0.660741,-0.49367 q -0.807572,-0.9168 -0.734155,-2.04518 0.07341,-1.1989 1.027817,-1.97465 l 0.367079,-0.28209 1.761973,-0.42313 Q 634.59163,275.33758 1270.5173,236.47929 h 0.1468 q 1.1013,0 1.9823,0.70524"
       inkscape:connector-curvature="0"
       style="opacity:1;fill:#000000;fill-rule:evenodd;stroke:none;stroke-width:1.43909705" />
    <path
       id="path1021"
       d="m 1272.7198,275.19652 -2.0557,0.42315 -3.891,0.63471 h -0.074 q -5.5063,0.9168 -8.0024,1.76308 h -0.074 q -3.0101,0.98732 -11.3061,5.43028 h -0.074 q -4.7721,2.60935 -9.7642,2.60935 -5.5797,0 -9.1035,-2.18621 -4.7721,-2.96197 -7.929,-2.89145 -2.5695,-0.0705 -11.159,2.96197 -7.5618,2.60937 -9.4708,2.67989 -1.7619,-0.0706 -8.1491,-2.39779 -7.5618,-2.82093 -11.3059,-2.7504 -5.1392,0 -12.9945,2.7504 -7.048,2.39779 -12.9947,2.39779 -4.3315,0 -11.3059,-2.11569 v -0.0705 q -7.9289,-2.53885 -11.0124,-2.46832 -3.6707,0 -6.9745,1.8336 -2.6429,1.26942 -9.1035,1.26942 -5.7998,0 -14.7566,-1.97465 -9.6174,-2.1157 -11.159,-2.1157 -3.5975,0 -5.6531,1.33995 l 0.2937,-0.0706 -2.9368,2.3978 q -3.0834,2.46831 -11.7463,2.46831 -4.1848,0 -9.9111,-2.60936 -6.8278,-3.0325 -13.2883,-3.0325 -8.4428,0 -16.2248,5.00714 -6.6074,4.16088 -12.3338,4.23139 -2.4228,0 -4.3315,-1.8336 v -0.0705 q -3.1569,-3.24406 -7.7821,-3.24406 -3.8176,-0.0705 -12.84769,2.39778 -8.14912,2.18622 -10.86552,2.25676 -6.82763,-0.0705 -15.6375,-5.28925 -10.13136,-6.065 -18.28048,-5.99447 -8.0023,-0.0706 -17.54632,5.14819 -8.36937,4.44296 -11.81991,4.584 -3.67079,-0.0705 -11.01234,-3.3851 -8.66303,-3.87879 -13.36163,-3.80826 -3.96444,-0.0705 -12.55406,3.80826 -7.48839,3.31458 -11.96674,3.3851 -3.59736,-0.0705 -10.35159,-3.3851 -8.07572,-3.87879 -13.1414,-3.80826 -5.72641,-0.0705 -13.65529,5.00714 -6.68082,4.16088 -12.2604,4.23139 -2.8632,-0.0705 -7.78206,-1.90412 -6.02007,-2.25674 -7.92886,-2.18623 -3.15688,-0.14104 -12.48067,4.65454 -7.85545,3.94931 -11.37941,4.01983 -2.49612,-0.14105 -5.79982,-3.45564 -4.99226,-4.93662 -8.58963,-4.72505 -4.91883,-0.0705 -12.33381,3.31458 v 0.0705 q -6.24033,2.75039 -11.96674,2.75039 -4.40493,-0.0705 -15.19701,-4.16086 -12.04017,-4.58401 -14.68313,-4.51348 -6.24032,-0.0706 -16.81216,5.07767 v 0.0705 q -9.3972,4.58401 -17.61974,4.58401 -4.33152,-0.0705 -13.06797,-3.66721 -9.47061,-4.01982 -20.18929,-7.05232 -11.8199,-3.31458 -20.99684,3.24408 h -0.0734 q -7.56181,5.28924 -12.11357,5.43029 -4.62518,-0.0705 -14.24262,-3.17355 -10.71868,-3.5967 -15.41726,-3.52616 -4.55177,-0.14105 -14.97678,5.71237 -8.95671,5.07768 -13.87553,5.1482 -4.84544,-0.0705 -11.45285,-4.44296 -7.92887,-5.35977 -16.078,-5.35977 -5.94666,0 -13.72871,2.67989 -6.97448,2.39778 -12.48066,2.39778 -7.19471,0 -15.63752,-4.30191 -9.69084,-5.00714 -14.46285,-4.93663 -4.55178,-0.0705 -13.50847,3.59668 v -0.0705 q -8.07571,3.10303 -13.72871,3.17355 -3.52395,-0.0706 -9.76427,-3.73773 -7.70864,-4.51348 -12.40724,-4.44297 -4.33152,-0.14104 -13.58187,4.93663 -7.92889,4.23139 -12.62748,4.30192 -6.02008,0 -9.39719,-3.38511 -4.6986,-4.93664 -10.42503,-4.86611 -4.03785,-0.14104 -11.59964,5.07768 -6.24034,4.16086 -14.02239,4.16086 -7.26813,0 -11.23258,-4.16086 l -4.03785,-3.66722 q -2.71638,-1.90412 -6.82765,-1.90412 -3.37711,-0.0705 -13.7287,4.584 -8.95671,4.09035 -12.48067,4.16088 -2.64296,-0.14105 -8.14911,-3.94931 -7.04791,-4.86611 -12.40724,-4.79557 -7.48839,-0.0705 -20.18929,5.64186 -11.59966,5.07766 -16.37166,5.1482 -5.06568,-0.0705 -10.71868,-3.73775 -7.19473,-4.65453 -9.32378,-4.44295 -4.99226,-0.14105 -11.52624,5.07767 -5.06568,4.01982 -9.03012,4.09034 -3.15686,-0.14104 -7.63522,-4.01982 -6.16691,-5.35977 -9.47061,-5.14819 -3.15687,-0.14105 -11.01233,4.72505 -6.31374,3.80826 -9.32378,3.9493 -3.15688,-0.21156 -8.51621,-4.79558 -6.97448,-6.065 -13.58187,-5.99447 -6.02008,-0.14104 -18.50073,6.6997 -11.01233,5.99448 -15.4907,6.13552 -4.69857,-0.0705 -7.41496,-4.01981 v -0.0705 q -4.111265,-6.20604 -10.938922,-6.13551 h -0.07341 q -4.33152,-0.0706 -9.617441,3.17355 -3.964441,2.39778 -6.387154,2.46832 -3.964441,-0.14106 -7.635219,-5.21872 -5.432753,-7.33443 -10.865506,-7.12286 -3.377116,-0.14104 -10.498426,4.2314 -5.579584,3.38511 -9.030116,3.45564 -2.569546,-0.0705 -4.331518,-2.25675 l -9.544025,-12.34156 q -0.513909,-0.77576 -1.394897,-0.84628 l -0.367076,-0.0705 q -0.660741,0 -1.248065,0.42314 -0.807572,0.49366 -0.880987,1.41046 h -0.07341 V 254.18056 Q 619.17227,297.55234 1272.7177,251.00703 v 24.18944"
       inkscape:connector-curvature="0"
       style="opacity:1;fill:#fbe1c3;fill-rule:evenodd;stroke:none;stroke-width:1.43909705" />
    <path
       id="path1023"
       d="M 18.561569,445.36901 37.062292,387.53997 Q 102.47557,368.07559 185.1415,352.70152 l 15.19703,-2.7504 q -4.1847,24.40103 -14.75654,75.17773 l -20.92343,99.15562 H 18.561569 v -78.91546 m 183.245271,78.91546 36.48754,-180.68044 q 82.22544,-13.18784 171.35195,-20.94537 -1.61516,19.25281 -8.14914,75.74189 -9.69085,83.14686 -13.65529,125.88392 H 201.80684 m 221.78843,-1.19889 18.57415,-203.10683 q 80.09639,-6.06498 165.55212,-7.89859 l 0.9544,211.00542 H 423.59527 M 808.73337,313.9843 820.55328,524.28447 H 658.74535 q -6.31373,-40.83294 -14.97677,-121.72304 l -9.17695,-90.97493 q 24.74105,-0.35262 49.84918,-0.35262 62.6969,0 124.29256,2.75042 m 195.79933,15.93824 40.4519,194.36193 H 865.26337 q -11.23259,-56.207 -19.89564,-133.92355 l -7.26812,-74.89565 q 84.20765,4.65453 166.43309,14.45727 m 199.6169,32.29962 53.5934,162.06231 h -164.7446 q -12.9211,-37.44782 -29.146,-95.13579 l -19.3816,-69.25379 q -4.6253,-16.14981 -7.7821,-25.88201 61.9629,8.18068 122.6775,19.39388 l 44.7834,8.8154 m 68.5702,89.9876 -14.9034,-33.14591 q -13.6552,-31.10072 -21.2171,-49.85989 l 36.1205,8.60383 v 74.40197"
       inkscape:connector-curvature="0"
       style="opacity:1;fill:#fffbca;fill-rule:evenodd;stroke:none;stroke-width:1.43909705" />
    <path
       id="path1025"
       d="m 31.409294,389.23253 -12.847725,39.42248 v -35.40264 l 7.12131,-2.25675 5.726415,-1.76309 m 144.335016,135.05194 39.57099,-176.94271 17.83998,-2.96197 -38.2495,179.90468 h -19.16147 m 224.72507,0 20.11586,-202.61315 16.95899,-1.33993 -19.8222,203.95308 h -17.25265 m 214.30005,-1.19889 -2.42271,-211.07594 14.90335,-0.28209 15.41727,211.35803 h -27.89791 m 212.53808,1.19889 -13.94896,-210.08861 12.48065,0.63471 20.40953,209.4539 h -18.94122 m 223.99089,0 -41.8468,-193.72722 15.4906,1.90412 45.8848,191.8231 h -19.5286 m 214.9608,0 -55.7225,-160.72237 13.4351,2.89145 48.748,129.55111 v 28.27981 h -6.4606"
       inkscape:connector-curvature="0"
       style="opacity:1;fill:#8e837b;fill-rule:evenodd;stroke:none;stroke-width:1.43909705" />
    <path
       id="path1027"
       d="m 1284.5241,-182.75011 v 335.70415 c -423.61216,5.7732 -856.63561,4.915 -1299.070343,-2.57456 v -333.12959"
       inkscape:connector-curvature="0"
       style="opacity:1;fill:#cdb79c;fill-rule:evenodd;stroke:none;stroke-width:1.56443083"
       sodipodi:nodetypes="cccc" />
    <path
       style="opacity:1;fill:url(#gradient0-3);fill-rule:evenodd;stroke:none;stroke-width:1.43909705"
       id="path1029"
       d="m 19.075478,192.19074 q 0.807571,0.84626 1.982221,0.91679 613.533931,28.20929 1249.606401,2.60936 h 0.1469 q 1.1012,-0.0706 1.9088,-0.77576 v 42.2434 h -0.074 q -0.8811,-0.70524 -1.9823,-0.70524 h -0.1468 Q 634.59133,275.33758 20.323239,239.93494 l -1.761973,0.42313 v -48.16733 h 0.513909"
       inkscape:connector-curvature="0" />
    <path
       id="path1031"
       d="m 1078.4622,-184.54418 h 69.8182 v 171.653455 l -69.8182,-11.142663 V -184.54418 m -207.10534,0 v 143.232607 l -33.918,3.032499 V -184.54418 h 33.918 m -196.75373,0 v 134.064593 l -108.8753,3.032496 q -8.29597,-52.680829 0,-137.097089 h 108.8753 m -287.49539,0 v 136.109765 l -25.40178,-6.064995 v -130.04477 h 25.40178 m -222.08211,0 v 134.064593 l -74.00289,6.135517 v -140.20011 h 74.00289"
       inkscape:connector-curvature="0"
       style="opacity:1;fill:#bc9e7a;fill-rule:evenodd;stroke:none;stroke-width:1.43909705" />
    <path
       id="path1033"
       d="m 18.634985,271.88194 q -0.146833,0.84627 0.367076,1.55151 l 1.761974,2.32726 7.782052,10.15534 h 0.07341 q 3.15687,3.9493 7.782052,3.87879 2.936623,0.0705 6.974479,-1.76308 l -24.814459,77.43447 v -93.58429 h 0.07341 M 37.06229,387.53997 67.603168,292.05158 q 3.303701,2.46831 6.827649,2.39778 3.3037,0.0706 8.736453,-3.10301 3.96444,-2.46831 7.268141,-2.53884 4.551765,0.0705 7.268131,4.16087 4.258128,8.03965 10.278188,7.54599 6.16692,-0.49366 17.91341,-7.33442 11.67308,-6.84076 16.959,-6.9818 5.13908,0.0705 10.64525,4.86612 v 0.0705 q 7.70864,8.39225 11.15917,8.25121 3.45053,-0.21157 11.96674,-6.98179 l 0.0734,-0.0706 q 6.16691,-3.87878 8.58963,-4.01983 2.12905,0.21158 7.41497,4.7956 5.2125,4.584 10.49842,5.2187 5.21252,0.63471 10.64527,-4.584 5.43275,-5.28925 9.10352,-5.4303 l 0.881,0.35262 -52.63898,235.61801 h -6.53398 l 20.92343,-99.15562 q 10.57184,-50.7767 14.75654,-75.17773 l -15.19703,2.7504 Q 102.47557,368.0755 37.062295,387.5399 m 201.232085,-43.93596 9.25036,-46.05162 q 5.28592,-1.69256 13.65529,-6.55867 v -0.0705 q 11.59967,-5.14821 18.35391,-5.21872 4.18466,0.0705 10.57182,5.35977 6.38716,5.21871 10.27819,4.584 3.81762,-0.63471 13.50846,-5.21872 9.61745,-4.584 12.40725,-4.72505 2.64295,0 4.40492,1.12837 l 0.14683,0.14105 4.6986,5.5008 q 3.96445,5.00715 13.06798,4.37244 9.10353,-0.63471 16.29825,-6.34708 h 0.0734 q 6.02007,-4.16088 9.03012,-4.30193 3.96443,0.0706 7.19472,3.52617 h 0.0734 q 3.89102,6.84075 10.8655,6.55866 6.97447,-0.35262 15.63751,-5.64186 8.22255,-5.07766 11.89332,-5.35976 l -23.71328,239.00318 h -8.14912 q 3.96444,-42.73707 13.65529,-125.88392 6.53398,-56.48908 8.14914,-75.7419 -89.12651,7.75754 -171.35195,20.94538 m 203.87504,-23.62528 2.27588,-24.75363 q 4.84543,-0.63471 13.21481,-5.28923 7.85546,-3.17354 11.8199,-3.24407 4.03786,0.0705 13.50847,5.35976 9.39719,5.28924 16.37168,5.00714 6.90106,-0.35261 14.16919,-3.73772 v -0.0706 q 6.90106,-2.39779 12.26041,-2.39779 6.82765,0 14.82994,5.78291 7.92889,5.7829 13.36164,5.2187 5.43275,-0.63469 14.90335,-6.27654 9.47061,-5.64186 13.28823,-5.78291 4.25809,0.0705 13.94895,3.31459 h 0.0734 q 6.82764,2.46832 11.45283,3.38511 l 0.0734,15.58562 q -85.45574,1.83361 -165.55212,7.89859 M 647.21898,524.28446 629.9663,288.31384 q 6.24032,-2.7504 13.80213,-0.63471 10.49843,2.89145 19.74879,7.12284 9.17695,4.2314 15.78434,4.51349 6.534,0.28209 18.57415,-5.85342 9.32378,-4.58401 14.82994,-4.65454 2.3493,0.0705 13.36164,5.00715 11.01233,4.93663 16.66534,5.1482 5.65299,0.14104 13.7287,-4.72506 6.24032,-2.82093 10.42501,-2.89145 2.12906,0.21156 6.90107,4.93662 4.77202,4.65454 8.36937,4.09035 3.52395,-0.5642 11.96674,-4.93663 8.44279,-4.44296 11.01234,-4.58401 l 2.27588,0.56419 1.32148,22.56743 q -61.59558,-2.75041 -124.29248,-2.75041 -25.10813,0 -49.84918,0.35262 l 9.17695,90.97493 q 8.66304,80.8901 14.97677,121.72304 h -11.52622 m 203.43454,0 -22.39175,-230.18771 q 2.56953,-1.12838 5.7264,-3.10303 8.07572,-5.21873 12.77431,-5.28924 4.33152,0.0705 11.23258,4.2314 6.82766,4.09034 11.59967,4.09034 4.77201,0 13.28821,-4.09034 8.51622,-4.16089 11.89333,-4.2314 3.96444,0.0705 12.04016,4.30192 8.0757,4.23139 12.2604,4.44295 4.2581,0.0706 13.36163,-5.57132 9.10352,-5.64186 16.07801,-5.71238 7.12131,0.0705 17.91339,6.48814 10.71868,6.34708 15.41728,5.92395 4.6986,-0.42314 12.77431,-3.10304 l 1.98222,-0.3526 7.92885,37.80043 Q 922.30726,320.1198 838.09961,315.46527 l 7.26812,74.89565 q 8.66305,77.71655 19.89564,133.92355 h -14.6097 m 224.65173,0 -54.915,-229.41196 q 5.9467,-0.63471 12.6275,-4.8661 6.6808,-4.30192 13.8021,-4.30192 5.5796,0 11.9668,3.17355 6.3137,3.10301 14.2426,3.52616 7.9289,0.42314 11.7465,-4.65454 1.2481,-1.19889 0.8076,-1.55151 l 1.1746,-0.2821 q 1.1747,-0.70522 3.3038,-0.70522 l 10.1312,1.97465 h 0.074 q 10.6452,3.24406 17.7665,3.17354 7.048,-0.0706 9.2505,-2.1157 2.2759,-2.04517 4.7719,-2.04517 2.6431,0.0705 9.6175,2.25675 8.2225,3.0325 14.0224,3.17354 5.7263,0.0705 13.1413,-3.38512 l 0.074,-0.0705 q 5.7998,-2.04518 9.9845,-2.39781 l 25.255,76.44716 -44.7834,-8.8154 q -60.7146,-11.2132 -122.6775,-19.39388 3.1568,9.7322 7.7821,25.88202 l 19.3816,69.25378 q 16.2249,57.68797 29.146,95.13579 h -17.6931 m 197.4145,-40.55085 -72.5346,-192.88094 q 2.496,-0.14105 10.5718,-2.96196 h 0.074 q 7.4883,-2.60936 9.6173,-2.6799 2.129,0.0705 5.5063,2.18623 4.4783,2.89145 11.5262,2.89145 6.1669,0 11.9667,-3.17354 7.782,-4.16087 10.6453,-5.07768 2.2759,-0.77576 7.415,-1.62203 h -0.074 l 3.2302,-0.56419 h 2.0557 v 97.95673 l -36.1205,-8.60383 q 7.5618,18.75917 21.2171,49.85989 l 14.9034,33.1459 v 31.52387"
       inkscape:connector-curvature="0"
       style="opacity:1;fill:#fdf1a2;fill-rule:evenodd;stroke:none;stroke-width:1.43909705" />
    <path
       id="path1035"
       d="m 18.561569,379.92348 30.394046,-94.92422 q 4.698597,-2.7504 6.97448,-2.89144 3.523946,0.21156 7.268141,5.35975 v -0.0706 l 0.954402,1.26941 -32.743344,100.56607 -5.726415,1.76309 -7.12131,2.25675 v -13.32894 m 196.753731,-32.58171 12.48065,-56.13646 2.56954,1.8336 q 5.94666,4.51349 11.45284,5.28925 l 1.02781,0.21156 -9.69086,45.84007 -17.83998,2.96198 m 205.26994,-25.67044 3.52395,-35.40265 q 2.71638,1.12838 6.38716,3.73773 5.21251,3.73774 9.4706,4.86611 l -2.42272,25.45888 -16.95899,1.33993 m 191.76148,-9.66168 -0.22025,-15.02144 q 5.06567,0 13.58189,-6.13551 l 1.54171,20.87485 -14.90335,0.2821 m 201.01183,2.18622 -1.39489,-21.01591 q 4.99226,2.1157 9.4706,2.53884 l 2.49613,-0.14104 1.90881,19.25282 -12.48065,-0.63471 m 196.09305,16.36138 -8.6631,-39.84561 5.3593,-0.91679 q 2.7164,0 4.5518,1.97465 h 0.074 q 2.2758,2.25674 5.139,2.96197 l 9.0302,37.72991 -15.4906,-1.90413 m 201.0851,33.00486 -26.7966,-77.36396 q 2.5696,0.56421 6.3138,1.97466 h 0.074 l 5.0656,1.76309 28.7789,76.51766 -13.4351,-2.89145"
       inkscape:connector-curvature="0"
       style="opacity:1;fill:#726861;fill-rule:evenodd;stroke:none;stroke-width:1.43909705" />
    <path
       id="path1037"
       d="M 1272.7198,251.00708 Q 619.17436,297.55239 18.561569,254.18061 v -9.02695 l 1.394895,0.42313 Q 634.51822,280.97943 1270.6641,242.12116 h 0.2203 q 1.1012,-0.0706 1.8354,-0.77576 v 9.66168"
       inkscape:connector-curvature="0"
       style="opacity:1;fill:#f9c7a2;fill-rule:evenodd;stroke:none;stroke-width:1.43909705" />
    <path
       id="path1039"
       d="m 1245.8497,118.91713 24.8144,-0.28209 h 2.0557 v 35.19108 l -107.4804,3.52614 -3.8911,1.90413 q -22.8322,10.57849 -56.4565,10.57849 -30.1005,0 -55.9427,-7.19338 l -6.6808,-2.04517 q -186.62237,4.30192 -369.64739,4.65454 h -2.42272 v 0.84627 q -25.03471,8.8154 -57.41099,8.8154 -32.89016,0 -55.79583,-9.87324 -186.10847,-0.9168 -368.47275,-6.065 h -1.61514 v 0.63471 q -31.78895,12.20053 -59.90711,12.20053 -24.66763,0 -42.067125,-13.3289 l -3.523947,-2.82092 -62.843729,-2.32727 V 116.3783 l 11.232582,0.21157 q 621.242579,10.15534 1216.055549,2.32726"
       inkscape:connector-curvature="0"
       style="opacity:1;fill:#d5b996;fill-rule:evenodd;stroke:none;stroke-width:1.43909705" />
    <path
       id="path1041"
       d="m 1273.6007,192.75492 24.9614,-1.05785"
       inkscape:connector-curvature="0"
       style="opacity:1;fill:none;stroke:#000000;stroke-width:5.75638819;stroke-linecap:round;stroke-linejoin:round" />
    <path
       id="path1043"
       d="M 17.974243,238.9476 Q 634.07773,277.31223 1269.9299,235.70354"
       inkscape:connector-curvature="0"
       style="opacity:1;fill:none;stroke:#000000;stroke-width:5.75638819;stroke-linecap:round;stroke-linejoin:round" />
  </g>
  <g
     transform="matrix(1.5111009,0,0,1.4515675,-5.9758447,-31.302346)"
     id="g82"
     style="opacity:1">
    <path
       d="M 258.6,111.1 247.35,109.6 248.05,4 h 9.85 q -0.75,21.65 -0.75,62.05 0,15.95 0.8,33.05 l 0.65,12 M 562.1,4 h 11 l 0.65,108.1 q -4.8,2 -10.25,1.25 V 53.1 L 562.1,4"
       id="path2"
       inkscape:connector-curvature="0"
       style="fill:#ae9f8f;fill-rule:evenodd;stroke:none" />
    <path
       d="m 263.65,0 q 0.85,0 1.45,0.6 0.55,0.55 0.55,1.4 v 111.75 l -0.3,1.1 -0.85,0.7 -1.1,0.2 -18.3,-2.4 q -0.75,-0.1 -1.25,-0.65 -0.5,-0.6 -0.5,-1.35 L 244.05,2 q 0,-0.85 0.6,-1.4 0.6,-0.6 1.4,-0.6 h 17.6 m -5.75,4 h -9.85 l -0.7,105.6 11.25,1.5 3.05,0.4 V 4 h -3.75 m 304.2,0 h -2.65 l -0.65,108.15 q 2.4,0.85 4.7,1.2 5.45,0.75 10.25,-1.25 L 573.1,4 h -11 m -6.65,-2 q 0,-0.85 0.6,-1.4 0.6,-0.6 1.4,-0.6 h 17.6 q 0.8,0 1.4,0.6 0.6,0.55 0.6,1.4 l 0.7,111.35 -0.3,1.05 -0.8,0.75 q -6.15,3.15 -13.15,2.25 -3.6,-0.5 -7.45,-2.05 l -0.9,-0.75 q -0.35,-0.5 -0.35,-1.1 L 555.45,2"
       id="path4"
       inkscape:connector-curvature="0"
       style="fill:#000000;fill-rule:evenodd;stroke:none" />
    <path
       d="m 257.9,4 h 3.75 v 107.5 l -3.05,-0.4 -0.65,-12 q -0.8,-17.1 -0.8,-33.05 0,-40.4 0.75,-62.05 m 305.6,109.35 q -2.3,-0.35 -4.7,-1.2 L 559.45,4 h 2.65 l 1.4,49.1 v 60.25"
       id="path6"
       inkscape:connector-curvature="0"
       style="fill:#bfb4a6;fill-rule:evenodd;stroke:none" />
    <path
       d="m 869.9,99.4 q 0.8,-0.05 1.4,0.55 0.6,0.55 0.65,1.4 0.05,0.8 -0.5,1.4 -0.6,0.6 -1.4,0.65 l -11.6,0.45 v 9.5 l 11.45,-0.45 q 0.8,-0.05 1.4,0.55 0.6,0.55 0.65,1.4 0.05,0.8 -0.5,1.4 -0.6,0.6 -1.4,0.65 l -11.6,0.45 V 226.9 l 11.75,-0.45 q 0.8,-0.05 1.4,0.55 0.6,0.55 0.65,1.4 0.05,0.8 -0.5,1.4 -0.6,0.6 -1.4,0.65 l -11.9,0.5 v 10.4 l 11.75,-0.45 q 0.8,-0.05 1.4,0.55 0.6,0.55 0.65,1.4 0.05,0.8 -0.5,1.4 -0.6,0.6 -1.4,0.65 l -13.75,0.55 h -0.05 -0.1 l -65.1,2.25 -74.15,2.1 q -125.4,3.15 -248.4,3.6 -57.6,0.2 -114.65,-0.2 Q 226.8,252.35 102,248.5 L 44,246.55 2.25,244.9 Q 1.4,244.85 0.85,244.3 0.3,243.7 0.3,242.9 L 0.35,228.8 0.3,228.5 V 116 Q 0,115.5 0,114.9 0,114.3 0.3,113.85 V 102.5 Q 0,102 0,101.4 0,100.55 0.6,100 1.15,99.4 2,99.4 l 0.65,0.05 53.05,2.05 44.9,1.5 q 133.95,4.1 270.95,4.85 l 82,0.1 q 129.8,-0.3 262.3,-3.65 l 57.2,-1.6 83.25,-2.8 h 0.15 l 13.45,-0.5 m -15.45,29.35 V 117.5 l -32.25,1.15 -0.35,11.25 -0.1,4.7 v 0.05 q 0,12.65 1.3,24.55 1.3,12.1 1.3,19.4 0,10.05 -3.4,32.2 -0.8,5.15 -1.3,9.55 -0.5,4.35 -0.7,7.95 l 35.5,-1.2 v -8 -90.35 m -79.95,-12.55 22,-0.7 24.25,-0.8 33.7,-1.2 V 104 l -81.05,2.7 -57.6,1.6 q -132.5,3.35 -262.35,3.65 l -81.8,-0.1 Q 234.7,111.1 100.75,107 L 55.4,105.5 4.3,103.55 V 113 l 24.65,0.95 25.35,0.95 h 0.1 l 46.75,1.55 41.25,1.2 24.25,0.65 28.6,0.65 25.2,0.5 26.85,0.5 32,0.5 27.35,0.35 28.4,0.25 29.05,0.25 7.85,0.05 81.25,0.1 12.5,-0.05 24.85,-0.1 26.6,-0.2 27.6,-0.25 28.8,-0.3 29.7,-0.45 26.9,-0.45 24.9,-0.45 27.7,-0.6 32.95,-0.8 58.8,-1.6 m 20.7,14.55 -0.1,-11.2 -20.1,0.65 -4.6,0.1 0.3,0.9 0.2,7.9 v 0.05 l 0.05,2.35 0.1,12.95 q 0,11.25 1.3,20.15 1.3,9 1.3,17.3 0,6.85 -2.2,28.95 l -1.05,11.05 -0.7,8 24.05,-0.75 h 0.05 v -0.35 l 0.4,-7.65 0.35,-5.6 0.5,-8.95 0.2,-8.6 v -0.05 -39.55 l -0.05,-27.65 m -112.15,93.45 -0.75,7.95 34.5,-0.8 49.85,-1.35 0.7,-8 1.1,-11.45 q 2.2,-21.9 2.2,-28.65 0,-8.1 -1.25,-16.85 -1.35,-9.05 -1.35,-20.6 l -0.1,-12.85 -0.05,-2.4 -0.2,-8 q 0,-0.45 0.25,-0.8 l -52.3,1.45 -31.6,0.75 -0.25,2.05 v 0.05 q -0.55,4.9 -0.6,9.1 l -0.05,1.35 q 0,6.1 0.75,34.85 v 0.05 l 0.7,30.35 q 0,6 -1.25,20.2 l -0.3,3.6 m 135.8,-94.2 0.35,-11.25 -21.1,0.7 0.1,11.2 0.05,27.75 v 39.55 q 0.05,5.75 -0.7,17.8 l -0.35,5.3 -0.4,8 19.15,-0.65 q 0.15,-3.6 0.65,-7.95 l 1.4,-10.1 q 3.35,-21.8 3.35,-31.75 0,-7.2 -1.3,-19.1 -1.3,-12.05 -1.3,-24.9 l 0.1,-4.6 m -26.6,111.4 62.2,-2.15 v -8.15 l -37,1.25 -22.05,0.75 h -0.05 l -2.05,0.05 -25.2,0.8 h -0.05 l -51.15,1.4 -36.25,0.85 -27.25,0.6 -24.55,0.45 -26.2,0.4 -29.15,0.45 -24.95,0.3 -26.55,0.25 h -0.05 l -25.4,0.15 -29.35,0.15 h -0.25 q -51.6,0.15 -102.75,-0.1 l -8.9,-0.05 -21.05,-0.2 -26.45,-0.25 -28.7,-0.35 -32.7,-0.5 -27.7,-0.5 h -0.05 l -28,-0.6 -24.45,-0.6 -26.55,-0.65 -37.65,-1.1 -52.35,-1.75 -7.6,-0.3 -12.8,-0.45 -24.95,-1 v 8.2 l 38.7,1.5 59,2 q 124.9,3.85 252.4,4.7 56.6,0.4 113.75,0.2 123.25,-0.45 248.95,-3.6 l 75.15,-2.15 m -164.2,-106.5 0.6,-11.2 -24.1,0.4 -0.15,1.15 q -0.55,5.15 -0.6,10.05 l -0.05,1.75 0.35,88.65 v 7.95 l 23.3,-0.35 0.3,-8 0.1,-3.4 0.5,-21.9 q 0,-8.6 -1.25,-15.7 -1.35,-7.4 -1.35,-13 0,-5 1.5,-24.45 l 0.85,-11.95 m 24.1,-0.45 q 0.05,-5.25 0.95,-10.75 v -0.1 l 0.05,-0.35 h -0.05 l -21.45,0.4 -0.55,11.2 -0.9,12.25 q -1.5,19.3 -1.5,24.2 0,5.4 1.3,12.45 1.3,7.35 1.3,16.25 l -0.5,22 -0.1,3.25 -0.3,8 21.5,-0.4 0.1,-8 0.25,-17.2 q 0.45,-23.9 0.3,-38 l -0.4,-33.15 v -2.05 m 28,-0.55 q 0.1,-4.45 0.65,-9.55 l 0.2,-1.7 -24.75,0.55 -0.2,1 v -0.05 q -0.85,5.25 -0.9,10.25 v 2.05 l 0.4,33.15 q 0.15,14.15 -0.3,38.1 l -0.25,17.1 -0.1,8 24.4,-0.55 0.7,-8 0.35,-3.9 q 1.25,-14.05 1.25,-19.95 l -0.7,-30.3 q -0.75,-28.85 -0.75,-34.95 v -1.25 m -79.35,1.45 q 0.05,-5.05 0.6,-10.4 l 0.1,-0.8 -26.45,0.4 -0.25,11.2 -0.1,4.75 q -0.4,18.2 -0.4,33.2 l 0.25,28.4 0.3,24 0.1,8 26.15,-0.4 v -7.95 l -0.35,-88.7 0.05,-1.7 m -29,0.45 0.25,-11.2 -26,0.25 q -0.45,3.85 -0.45,9.9 l 0.05,1.35 1.7,43.5 q 1.2,28.55 2.15,46.85 l 0.4,7.95 22.05,-0.25 -0.1,-8 -0.3,-24 -0.25,-28.45 q 0,-15 0.4,-33.25 l 0.1,-4.65 m -25.3,90.65 q -0.95,-18.25 -2.15,-46.7 l -1.7,-43.65 -0.05,-1.35 q 0,-5.95 0.4,-9.85 l -24.5,0.2 -0.5,6.25 0.1,5 q 0.2,5.3 0.95,9.4 0.6,3.6 2.3,10.45 l 0.05,0.05 q 3.35,15.9 3.35,49.35 l -0.75,19.85 -0.05,1.2 -0.4,8 23.35,-0.25 -0.4,-7.95 m -57.05,-89.9 -0.35,-11.25 -21.5,0.1 0.1,1.15 v 0.1 l -0.55,10 q -1.3,22.25 -1.3,24.35 0,8.2 1.7,22.7 1.7,14.7 1.7,18.9 l -0.6,24.4 -0.15,5.6 0.45,1.3 0.05,1.05 25.85,-0.15 -0.55,-7.9 q -1.55,-22.2 -3.15,-53.05 -1.2,-22.85 -1.7,-37.3 m -25.3,0.1 0.55,-10.1 v -0.05 l -0.15,-1.1 -11.45,0.05 -81,-0.1 -6.55,-0.05 -0.35,10.25 0.05,1 0.35,10.55 q 0.4,12.7 0.4,20.3 v 20.05 7.7 l -0.05,31.75 v 1.3 l -0.15,6.65 q 49.4,0.25 99.2,0.1 l -0.05,-1.05 q 0,-0.8 0.55,-1.35 l 0.15,-5.05 0.6,-24.95 q 0,-4.15 -1.7,-18.5 -1.7,-14.75 -1.7,-23.05 0,-2.1 1.3,-24.35 m 50.95,-0.3 -0.1,-5.15 v -0.1 l 0.5,-5.95 -23.4,0.15 0.35,11.2 q 0.5,14.45 1.7,37.2 1.6,30.95 3.15,53.15 l 0.55,7.95 22.7,-0.15 0.4,-7.95 0.05,-1.4 0.75,-19.7 q 0,-33.05 -3.3,-48.75 v 0.05 q -1.7,-6.95 -2.35,-10.6 v -0.05 q -0.75,-4.3 -1,-9.9 M 363,201.8 v -6.65 -27.75 q 0,-7.6 -0.4,-20.2 l -0.35,-10.7 -0.05,-1 v -0.05 l 0.35,-10.15 -26.15,-0.2 -1.1,11.2 -0.45,4.25 q -1.7,16.95 -1.7,22.45 l 3.35,55.05 -0.2,8.6 -0.4,8 20,0.15 6.9,0.05 0.15,-6.7 v -1.3 L 363,201.8 M 304.85,136 305.05,124.8 281,124.5 q 0.35,3.45 0.35,8.25 l -0.1,2.95 -1,14.9 v 0.05 q -1.15,15.15 -1.15,19.55 0,7 0.75,21.5 0.75,14.6 0.75,21.9 v 12.45 8 l 25.65,0.3 -0.25,-7.95 -0.6,-28.35 q -0.6,-34.55 -0.6,-56.55 l 0.05,-5.5 m 27.4,0.3 1.15,-11.25 -25.35,-0.2 -0.2,11.2 -0.05,5.45 q 0,22 0.6,56.5 l 0.6,28.4 0.25,8 23.65,0.2 0.4,-7.95 0.2,-8.6 -3.35,-54.85 v -0.1 q 0,-5.55 1.7,-22.85 l 0.4,-3.95 m -113.9,-1.65 0.15,-4.15 0.3,-7.05 -22.25,-0.45 -1.45,11.2 -1.35,9.4 q -3,20.6 -3,28.1 0,9.25 1.15,17.6 1.1,8.55 1.1,22.3 l -0.3,12.9 -0.4,7.95 25.1,0.55 0.65,-8 0.85,-11.25 q 1.65,-22.05 1.65,-30.7 0,-7.9 -1.25,-16.05 -1.35,-8.5 -1.35,-14.55 0,-7.05 0.4,-17.8 m 26.85,0.5 -0.05,-4.7 v -0.1 l 0.45,-6.4 -23.8,-0.45 -0.3,7.1 -0.15,4.1 q -0.4,10.7 -0.4,17.75 0,5.85 1.3,14.1 1.3,8.4 1.3,16.5 0,8.75 -1.65,30.9 l -0.85,11.1 -0.65,8 24.55,0.45 0.15,-8 0.25,-11.7 q 0.55,-24.8 0.55,-40.1 l -0.35,-22.55 -0.35,-16 m 33.05,0.5 0.1,-2.9 q 0,-4.85 -0.35,-8.3 l -29.35,-0.45 -0.5,6.55 0.05,4.65 0.35,15.85 v 0.05 l 0.35,22.6 q 0,15.3 -0.55,40.15 l -0.2,11.7 -0.2,8 29.65,0.45 v -8 -12.4 q 0,-7.3 -0.75,-21.75 -0.75,-14.65 -0.75,-21.65 0,-4.5 1.15,-19.8 l 1,-14.75 m -112.9,-2.15 -0.2,-11.25 -21.45,-0.55 q -0.35,3.85 -0.65,11.2 l -1,29.7 q -0.85,33.9 -0.85,60.6 v 8 l 23.7,0.6 0.5,-7.3 0.05,-0.65 q 1.05,-13.6 1.05,-27.95 l -0.7,-40.75 -0.45,-21.65 m -25.3,-0.65 0.6,-11.25 -39.3,-1.1 -45.6,-1.55 -0.35,11.25 -3.75,90.2 -0.35,7.95 50.75,1.7 36.15,1.05 v -7.95 q 0,-26.75 0.85,-60.65 l 1,-29.65 m 52.05,1.25 1.4,-11.2 -25.35,-0.55 0.2,11.2 0.45,21.55 0.7,40.8 q 0,14.35 -1,28 l -0.1,0.85 -0.5,7.1 21.4,0.55 0.4,-8 0.3,-12.8 q 0,-13.55 -1.05,-21.9 -1.2,-8.55 -1.2,-18 0,-7.6 3.05,-28.55 l 1.3,-9.05 m -161.8,85.5 0.35,7.55 v 0.05 l 0.05,0.4 11.05,0.4 6.55,0.25 0.35,-7.95 3.75,-90.2 0.15,-4.75 0.2,-6.5 -22.25,-0.8 0.3,4.3 v 0.05 l 0.3,6.9 0.25,15.55 -0.55,34.7 q -0.55,27.1 -0.55,38.5 l 0.05,1.55 M 28.1,129.2 27.8,122.55 27.5,117.9 4.3,117 v 11.25 90.35 7.95 l 23.35,0.95 v -0.15 l -0.35,-7.85 -0.05,-1.45 q 0,-11.4 0.55,-38.55 L 28.35,144.85 28.1,129.2"
       id="path8"
       inkscape:connector-curvature="0"
       style="fill:#000000;fill-rule:evenodd;stroke:none" />
    <path
       d="m 773.4,106.7 81.05,-2.7 v 9.5 l -33.7,1.2 -24.25,0.8 -22,0.7 -0.4,-3.25 -0.7,-6.25 m -57.7,11.1 -32.95,0.8 -27.7,0.6 -24.9,0.45 -26.9,0.45 -29.7,0.45 -28.8,0.3 -27.6,0.25 -26.6,0.2 -24.85,0.1 -12.5,0.05 0.25,-9.5 q 129.85,-0.3 262.35,-3.65 l -0.1,9.5 m -343.75,3.55 -7.85,-0.05 -29.05,-0.25 -28.4,-0.25 -27.35,-0.35 -32,-0.5 -26.85,-0.5 -25.2,-0.5 -28.6,-0.65 -24.25,-0.65 -41.25,-1.2 -0.4,-9.45 q 133.95,4.1 270.9,4.85 l 0.3,9.5 M 54.4,114.9 H 54.3 L 28.95,113.95 4.3,113 v -9.45 l 51.1,1.95 -1.1,9.4 h 0.1 m 737.85,126.5 0.7,-5.5 0.35,-2.75 2.05,-0.05 h 0.05 l 22.05,-0.75 37,-1.25 v 8.15 l -62.2,2.15 m -75.35,-6.05 0.2,8.2 q -125.7,3.15 -248.95,3.6 l -0.95,-8.2 29.35,-0.15 25.4,-0.15 H 522 l 26.55,-0.25 24.95,-0.3 29.15,-0.45 26.2,-0.4 24.55,-0.45 27.25,-0.6 36.25,-0.85 m -361.6,3.45 q -0.65,4.35 -0.9,8.15 -127.5,-0.85 -252.4,-4.7 v -7.2 -1 l 37.65,1.1 26.55,0.65 24.45,0.6 28,0.6 h 0.05 l 27.7,0.5 32.7,0.5 28.7,0.35 26.45,0.25 21.05,0.2 M 43,240.25 4.3,238.75 v -8.2 l 24.95,1 12.8,0.45 0.95,8.25"
       id="path10"
       inkscape:connector-curvature="0"
       style="fill:#775f4c;fill-rule:evenodd;stroke:none" />
    <path
       d="m 854.45,128.75 v 90.35 l -34.8,1.25 q 0.5,-4.4 1.3,-9.55 3.4,-22.15 3.4,-32.2 0,-7.3 -1.3,-19.4 -1.3,-11.9 -1.3,-24.55 v -0.05 l 0.1,-4.7 32.6,-1.15"
       id="path12"
       style="fill:url(#gradient0);fill-rule:evenodd;stroke:none"
       inkscape:connector-curvature="0" />
    <path
       d="m 818.85,130 -0.1,4.6 q 0,12.85 1.3,24.9 1.3,11.9 1.3,19.1 0,9.95 -3.35,31.75 l -1.4,10.1 -19.4,0.6 0.35,-5.3 q 0.75,-12.05 0.7,-17.8 V 158.4 L 798.2,130.65 818.85,130"
       id="path14"
       style="fill:url(#gradient1);fill-rule:evenodd;stroke:none"
       inkscape:connector-curvature="0" />
    <path
       d="m 795.2,130.75 0.05,27.65 v 39.55 0.05 l -0.2,8.6 q -0.7,-14.55 -6.05,-31.9 l -5.45,-16.65 q -3.25,-10 -4.95,-17.4 -1,-4.35 -1.85,-9.3 l 18.45,-0.6 m -1.4,98.05 v 0.35 h -0.05 l 0.05,-0.35"
       id="path16"
       style="fill:url(#gradient2);fill-rule:evenodd;stroke:none"
       inkscape:connector-curvature="0" />
    <path
       d="m 683.05,224.2 0.3,-3.6 q 1.25,-14.2 1.25,-20.2 l -0.7,-30.35 V 170 q -0.75,-28.75 -0.75,-34.85 l 0.05,-1.35 32.3,-0.75 -0.3,26.35 q 0,26.6 1.1,57 l 0.25,7 -33.5,0.8"
       id="path18"
       style="fill:url(#gradient3);fill-rule:evenodd;stroke:none"
       inkscape:connector-curvature="0" />
    <path
       d="m 631.1,134.85 21.05,-0.4 v 2.05 l 0.4,33.15 q 0.15,14.1 -0.3,38 l -0.25,17.2 -21.3,0.4 0.1,-3.25 0.5,-22 q 0,-8.9 -1.3,-16.25 -1.3,-7.05 -1.3,-12.45 0,-4.9 1.5,-24.2 l 0.9,-12.25"
       id="path20"
       style="fill:url(#gradient4);fill-rule:evenodd;stroke:none"
       inkscape:connector-curvature="0" />
    <path
       d="m 628.05,134.9 -0.85,11.95 q -1.5,19.45 -1.5,24.45 0,5.6 1.35,13 1.25,7.1 1.25,15.7 l -0.5,21.9 -0.1,3.4 -23.6,0.4 -0.35,-88.65 0.05,-1.75 24.25,-0.4"
       id="path22"
       style="fill:url(#gradient5);fill-rule:evenodd;stroke:none"
       inkscape:connector-curvature="0" />
    <path
       d="m 680.15,133.9 v 1.25 q 0,6.1 0.75,34.95 l 0.7,30.3 q 0,5.9 -1.25,19.95 l -0.35,3.9 -25,0.55 0.25,-17.1 q 0.45,-23.95 0.3,-38.1 l -0.4,-33.15 v -2.05 l 25,-0.5"
       id="path24"
       style="fill:url(#gradient6);fill-rule:evenodd;stroke:none"
       inkscape:connector-curvature="0" />
    <path
       d="m 542.65,136.1 1.7,43.65 q 1.2,28.45 2.15,46.7 l -22.55,0.2 0.05,-1.2 0.75,-19.85 q 0,-33.45 -3.35,-49.35 l -0.05,-0.05 q -1.7,-6.85 -2.3,-10.45 -0.75,-4.1 -0.95,-9.4 l 24.55,-0.25"
       id="path26"
       style="fill:url(#gradient7);fill-rule:evenodd;stroke:none"
       inkscape:connector-curvature="0" />
    <path
       d="m 571.8,135.8 -0.1,4.65 q -0.4,18.25 -0.4,33.25 l 0.25,28.45 0.3,24 -22.35,0.3 q -0.95,-18.3 -2.15,-46.85 l -1.7,-43.5 26.15,-0.3"
       id="path28"
       style="fill:url(#gradient8);fill-rule:evenodd;stroke:none"
       inkscape:connector-curvature="0" />
    <path
       d="m 600.8,135.35 -0.05,1.7 0.35,88.7 -26.25,0.35 -0.3,-24 -0.25,-28.4 q 0,-15 0.4,-33.2 l 0.1,-4.75 26,-0.4"
       id="path30"
       style="fill:url(#gradient9);fill-rule:evenodd;stroke:none"
       inkscape:connector-curvature="0" />
    <path
       d="m 464.15,136.65 q -1.3,22.25 -1.3,24.35 0,8.3 1.7,23.05 1.7,14.35 1.7,18.5 l -0.6,24.95 -0.1,-0.5 -1.15,-6.95 q -1.4,-7.65 -5.45,-25.2 -3.1,-13.4 -4.35,-24.05 -1.6,-14 -1.75,-34.15 h 11.3 M 366,187.45 V 167.4 q 0,-7.6 -0.4,-20.3 l -0.35,-10.55 h 6.85 q -0.8,23.35 -6.1,50.9"
       id="path32"
       style="fill:url(#gradient10);fill-rule:evenodd;stroke:none"
       inkscape:connector-curvature="0" />
    <path
       d="m 489.45,136.55 q 0.5,14.45 1.7,37.3 1.6,30.85 3.15,53.05 l -25.65,0.1 0.6,-24.4 q 0,-4.2 -1.7,-18.9 -1.7,-14.5 -1.7,-22.7 0,-2.1 1.3,-24.35 l 22.3,-0.1"
       id="path34"
       style="fill:url(#gradient11);fill-rule:evenodd;stroke:none"
       inkscape:connector-curvature="0" />
    <path
       d="m 515.1,136.35 q 0.25,5.6 1,9.9 v 0.05 q 0.65,3.65 2.35,10.6 v -0.05 q 3.3,15.7 3.3,48.75 l -0.75,19.7 -0.05,1.4 -23.65,0.15 q -1.55,-22.2 -3.15,-53.15 -1.2,-22.75 -1.7,-37.2 l 22.65,-0.15"
       id="path36"
       style="fill:url(#gradient12);fill-rule:evenodd;stroke:none"
       inkscape:connector-curvature="0" />
    <path
       d="m 362.25,136.5 0.35,10.7 q 0.4,12.6 0.4,20.2 v 27.75 6.65 l -5.6,25.05 -21.1,-0.2 0.2,-8.6 -3.35,-55.05 q 0,-5.5 1.7,-22.45 l 0.45,-4.25 26.95,0.2"
       id="path38"
       style="fill:url(#gradient13);fill-rule:evenodd;stroke:none"
       inkscape:connector-curvature="0" />
    <path
       d="m 332.25,136.3 -0.4,3.95 q -1.7,17.3 -1.7,22.85 v 0.1 l 3.35,54.85 -0.2,8.6 L 309,226.4 308.4,198 q -0.6,-34.5 -0.6,-56.5 l 0.05,-5.45 24.4,0.25"
       id="path40"
       style="fill:url(#gradient14);fill-rule:evenodd;stroke:none"
       inkscape:connector-curvature="0" />
    <path
       d="m 304.85,136 -0.05,5.5 q 0,22 0.6,56.55 l 0.6,28.35 -25.4,-0.35 V 213.6 q 0,-7.3 -0.75,-21.9 -0.75,-14.5 -0.75,-21.5 0,-4.4 1.15,-19.55 v -0.05 l 1,-14.9 23.6,0.3"
       id="path42"
       style="fill:url(#gradient15);fill-rule:evenodd;stroke:none"
       inkscape:connector-curvature="0" />
    <path
       d="m 218.35,134.65 q -0.4,10.75 -0.4,17.8 0,6.05 1.35,14.55 1.25,8.15 1.25,16.05 0,8.65 -1.65,30.7 L 218.05,225 192.7,224.5 193,211.6 q 0,-13.75 -1.1,-22.3 -1.15,-8.35 -1.15,-17.6 0,-7.5 3,-28.1 l 1.35,-9.4 23.25,0.45"
       id="path44"
       style="fill:url(#gradient16);fill-rule:evenodd;stroke:none"
       inkscape:connector-curvature="0" />
    <path
       d="m 245.2,135.15 0.35,16 0.35,22.55 q 0,15.3 -0.55,40.1 l -0.25,11.7 -24.05,-0.45 0.85,-11.1 q 1.65,-22.15 1.65,-30.9 0,-8.1 -1.3,-16.5 -1.3,-8.25 -1.3,-14.1 0,-7.05 0.4,-17.75 l 23.85,0.45"
       id="path46"
       style="fill:url(#gradient17);fill-rule:evenodd;stroke:none"
       inkscape:connector-curvature="0" />
    <path
       d="m 278.25,135.65 -1,14.75 q -1.15,15.3 -1.15,19.8 0,7 0.75,21.65 0.75,14.45 0.75,21.75 V 226 l -29.45,-0.45 0.2,-11.7 Q 248.9,189 248.9,173.7 l -0.35,-22.6 v -0.05 l -0.35,-15.85 30.05,0.45"
       id="path48"
       style="fill:url(#gradient18);fill-rule:evenodd;stroke:none"
       inkscape:connector-curvature="0" />
    <path
       d="m 140.05,132.85 -1,29.65 q -0.85,33.9 -0.85,60.65 l -36.1,-1.05 0.3,-24.7 0.35,-27.6 q 0,-15.15 -0.9,-38.05 l 38.2,1.1"
       id="path50"
       style="fill:url(#gradient19);fill-rule:evenodd;stroke:none"
       inkscape:connector-curvature="0" />
    <path
       d="m 165.35,133.5 0.45,21.65 0.7,40.75 q 0,14.35 -1.05,27.95 L 141.2,223.2 q 0,-26.7 0.85,-60.6 l 1,-29.7 22.3,0.6"
       id="path52"
       style="fill:url(#gradient20);fill-rule:evenodd;stroke:none"
       inkscape:connector-curvature="0" />
    <path
       d="m 192.1,134.1 -1.3,9.05 q -3.05,20.95 -3.05,28.55 0,9.45 1.2,18 1.05,8.35 1.05,21.9 l -0.3,12.8 -21.2,-0.5 q 1,-13.65 1,-28 l -0.7,-40.8 -0.45,-21.55 23.75,0.55"
       id="path54"
       style="fill:url(#gradient21);fill-rule:evenodd;stroke:none"
       inkscape:connector-curvature="0" />
    <path
       d="m 30.3,219.6 -0.05,-1.55 q 0,-11.4 0.55,-38.5 l 0.55,-34.7 -0.25,-15.55 20.6,0.75 -3,16 q -7.15,39.1 -7.2,74 L 30.3,219.6"
       id="path56"
       style="fill:url(#gradient22);fill-rule:evenodd;stroke:none"
       inkscape:connector-curvature="0" />
    <path
       d="m 28.1,129.2 0.25,15.65 -0.55,34.65 q -0.55,27.15 -0.55,38.55 l 0.05,1.45 -23,-0.9 v -90.35 l 23.8,0.95"
       id="path58"
       style="fill:url(#gradient23);fill-rule:evenodd;stroke:none"
       inkscape:connector-curvature="0" />
    <path
       d="m 821.85,129.9 0.35,-11.25 32.25,-1.15 v 11.25 l -32.6,1.15 m 32.6,89.2 v 8 l -35.5,1.2 q 0.2,-3.6 0.7,-7.95 l 34.8,-1.25 m -60.7,10.05 -24.05,0.75 0.7,-8 1.05,-11.05 q 2.2,-22.1 2.2,-28.95 0,-8.3 -1.3,-17.3 -1.3,-8.9 -1.3,-20.15 l -0.1,-12.95 -0.05,-2.35 v -0.05 l -0.2,-7.9 -0.3,-0.9 4.6,-0.1 20.1,-0.65 0.1,11.2 -18.45,0.6 q 0.85,4.95 1.85,9.3 1.7,7.4 4.95,17.4 L 789,174.7 q 5.35,17.35 6.05,31.9 l -0.5,8.95 -0.35,5.6 -0.4,7.65 -0.05,0.35 M 683.2,133.8 q 0.05,-4.2 0.6,-9.1 v -0.05 l 0.25,-2.05 31.6,-0.75 52.3,-1.45 q -0.25,0.35 -0.25,0.8 l 0.2,8 0.05,2.4 0.1,12.85 q 0,11.55 1.35,20.6 1.25,8.75 1.25,16.85 0,6.75 -2.2,28.65 l -1.1,11.45 -0.7,8 -49.85,1.35 -34.5,0.8 0.75,-7.95 33.5,-0.8 -0.25,-7 q -1.1,-30.4 -1.1,-57 l 0.3,-26.35 -32.3,0.75 m 115,-3.15 -0.1,-11.2 21.1,-0.7 -0.35,11.25 -20.65,0.65 m 18.4,89.8 q -0.5,4.35 -0.65,7.95 l -19.15,0.65 0.4,-8 19.4,-0.6 M 603.8,135.3 q 0.05,-4.9 0.6,-10.05 l 0.15,-1.15 24.1,-0.4 -0.6,11.2 -24.25,0.4 m 23.9,90 -0.3,8 -23.3,0.35 v -7.95 l 23.6,-0.4 m 25.4,-101.7 v 0.1 q -0.9,5.5 -0.95,10.75 l -21.05,0.4 0.55,-11.2 21.45,-0.4 v 0.35 m -1.1,101.25 -0.1,8 -21.5,0.4 0.3,-8 21.3,-0.4 m 3.15,-90.45 q 0.05,-5 0.9,-10.25 v 0.05 l 0.2,-1 24.75,-0.55 -0.2,1.7 q -0.55,5.1 -0.65,9.55 l -25,0.5 m 24.85,89.85 -0.7,8 -24.4,0.55 0.1,-8 25,-0.55 m -105.2,-88.5 0.25,-11.2 26.45,-0.4 -0.1,0.8 q -0.55,5.35 -0.6,10.4 l -26,0.4 m 26.3,90 v 7.95 l -26.15,0.4 -0.1,-8 26.25,-0.35 m -55.45,-89.65 -0.05,-1.35 q 0,-6.05 0.45,-9.9 l 26,-0.25 -0.25,11.2 -26.15,0.3 m 26.2,90.05 0.1,8 -22.05,0.25 -0.4,-7.95 22.35,-0.3 m -25.35,0.3 0.4,7.95 -23.35,0.25 0.4,-8 22.55,-0.2 m -28.4,-90.1 -0.1,-5 0.5,-6.25 24.5,-0.2 q -0.4,3.9 -0.4,9.85 l 0.05,1.35 -24.55,0.25 m -50.95,0.3 0.55,-10 v -0.1 l -0.1,-1.15 21.5,-0.1 0.35,11.25 -22.3,0.1 m 27.15,90.25 0.55,7.9 -25.85,0.15 -0.05,-1.05 -0.45,-1.3 0.15,-5.6 25.65,-0.1 m -129.05,-90.35 -0.05,-1 0.35,-10.25 6.55,0.05 81,0.1 11.45,-0.05 0.15,1.1 v 0.05 l -0.55,10.1 h -11.3 q 0.15,20.15 1.75,34.15 1.25,10.65 4.35,24.05 4.05,17.55 5.45,25.2 l 1.15,6.95 0.1,0.5 -0.15,5.05 q -0.55,0.55 -0.55,1.35 l 0.05,1.05 q -49.8,0.15 -99.2,-0.1 l 0.15,-6.65 v -1.3 L 366,195.15 v -7.7 q 5.3,-27.55 6.1,-50.9 h -6.85 m 127.2,-0.05 -0.35,-11.2 23.4,-0.15 -0.5,5.95 v 0.1 l 0.1,5.15 -22.65,0.15 m 28.5,90.2 -0.4,7.95 -22.7,0.15 -0.55,-7.95 23.65,-0.15 M 363,201.8 l -0.05,25.05 v 1.3 l -0.15,6.7 -6.9,-0.05 -20,-0.15 0.4,-8 21.1,0.2 5.6,-25.05 m -27.7,-65.5 1.1,-11.2 26.15,0.2 -0.35,10.15 v 0.05 l 0.05,1 -26.95,-0.2 m -54.05,-0.6 0.1,-2.95 q 0,-4.8 -0.35,-8.25 l 24.05,0.3 -0.2,11.2 -23.6,-0.3 m 24.75,90.7 0.25,7.95 -25.65,-0.3 v -8 l 25.4,0.35 m 1.85,-90.35 0.2,-11.2 25.35,0.2 -1.15,11.25 -24.4,-0.25 m 25.45,90.6 -0.4,7.95 -23.65,-0.2 -0.25,-8 24.3,0.25 m -138.2,-92.45 1.45,-11.2 22.25,0.45 -0.3,7.05 -0.15,4.15 -23.25,-0.45 m 22.95,90.8 -0.65,8 -25.1,-0.55 0.4,-7.95 25.35,0.5 m 3.3,-90.3 0.15,-4.1 0.3,-7.1 23.8,0.45 -0.45,6.4 v 0.1 l 0.05,4.7 -23.85,-0.45 m 23.75,90.8 -0.15,8 -24.55,-0.45 0.65,-8 24.05,0.45 m 3.1,-90.3 -0.05,-4.65 0.5,-6.55 29.35,0.45 q 0.35,3.45 0.35,8.3 l -0.1,2.9 -30.05,-0.45 m 29.4,90.8 v 8 l -29.65,-0.45 0.2,-8 29.45,0.45 M 143.05,132.9 q 0.3,-7.35 0.65,-11.2 l 21.45,0.55 0.2,11.25 -22.3,-0.6 m 22.4,90.95 -0.05,0.65 -0.5,7.3 -23.7,-0.6 v -8 l 24.25,0.65 m -27.25,-0.7 v 7.95 l -36.15,-1.05 -50.75,-1.7 0.35,-7.95 3.75,-90.2 0.35,-11.25 45.6,1.55 39.3,1.1 -0.6,11.25 -38.2,-1.1 q 0.9,22.9 0.9,38.05 l -0.35,27.6 -0.3,24.7 36.1,1.05 m 30.15,-89.6 -0.2,-11.2 25.35,0.55 -1.4,11.2 -23.75,-0.55 m 21.35,90.85 -0.4,8 -21.4,-0.55 0.5,-7.1 0.1,-0.85 21.2,0.5 M 31.1,129.3 30.8,122.4 v -0.05 l -0.3,-4.3 22.25,0.8 -0.2,6.5 -0.15,4.75 -3.75,90.2 -0.35,7.95 -6.55,-0.25 -11.05,-0.4 -0.05,-0.4 v -0.05 l -0.35,-7.55 11.2,0.45 q 0.05,-34.9 7.2,-74 l 3,-16 -20.6,-0.75 M 4.3,128.25 V 117 l 23.2,0.9 0.3,4.65 0.3,6.65 -23.8,-0.95 m 23,91.25 0.35,7.85 v 0.15 L 4.3,226.55 v -7.95 l 23,0.9"
       id="path60"
       inkscape:connector-curvature="0"
       style="fill:#bf834d;fill-rule:evenodd;stroke:none" />
    <path
       d="m 774.5,116.2 -58.8,1.6 0.1,-9.5 57.6,-1.6 0.7,6.25 0.4,3.25 m -321.3,5.25 -81.25,-0.1 -0.3,-9.5 81.8,0.1 -0.25,9.5 m -352.05,-5 -46.75,-1.55 h -0.1 l 1.1,-9.4 45.35,1.5 0.4,9.45 m 692.15,116.7 -0.35,2.75 -0.7,5.5 -75.15,2.15 -0.2,-8.2 51.15,-1.4 h 0.05 l 25.2,-0.8 m -326.1,5.8 0.95,8.2 q -57.15,0.2 -113.75,-0.2 0.25,-3.8 0.9,-8.15 l 8.9,0.05 q 51.15,0.25 102.75,0.1 h 0.25 M 42.05,232 l 7.6,0.3 52.35,1.75 v 1 7.2 l -59,-2 -0.95,-8.25"
       id="path62"
       inkscape:connector-curvature="0"
       style="fill:#624e3e;fill-rule:evenodd;stroke:none" />
    <path
       d="m 716.95,5.45 h 20.3 q 5.2,118 0.05,215.15 l -0.05,0.3 -11.9,0.7 -8.4,-0.45 V 5.45 M 709,219.9 q -5.35,-1.15 -9.7,-3.05 -4,-101.75 3.05,-211.4 H 709 V 219.9 M 92.7,5.45 h 21.6 v 215.2 h -0.05 l -12.65,1 -8.05,-0.3 -0.85,-0.05 q -3.5,-95.05 0,-215.85 m 28.85,0 h 6.2 q 3.85,109.7 -0.1,211.45 -2.85,1.25 -6.1,2.15 V 5.45 m 270,0 h 14.35 v 217.8 q -7.25,-0.5 -14.35,-2.25 l -0.1,-3.75 q -2.9,-87.2 0.1,-211.8 m 27.3,0 h 13.05 q 4,115.75 0,215.75 l -13.05,2 V 5.45"
       id="path64"
       inkscape:connector-curvature="0"
       style="fill:#ad8c6f;fill-rule:evenodd;stroke:none" />
    <path
       d="m 382.5,260.25 -0.45,-1.4 q -1.3,-4.5 -1.3,-7.8 0,-14.15 4.8,-24.75 l 1.2,-2.45 4.8,1.3 q 6.5,1.5 13.2,2.05 -2.6,3.45 -4.75,10.85 -3.2,10.8 -3.45,24.95 -6.9,-1 -14.05,-2.75 m 38.05,-33.2 11.35,-1.8 1.75,-0.4 1.5,3.55 q 2.6,7.3 2.6,14.9 0,7.8 -1.65,14.35 l -1.3,4.35 -9.45,1.45 0.2,-2.15 0.45,-6.05 q 0,-11 -2.8,-20.7 -1.25,-4.4 -2.65,-7.5 m -329.1,-1.85 1.25,0.1 8.95,0.35 13.65,-1.1 2.05,3.35 q 2,4.45 2,10.75 0,3.2 -1.05,12 l -0.8,6.55 q -14.8,2.6 -28.9,1.4 -0.6,-4.95 -0.6,-11.55 0,-12.35 2.85,-20.3 l 0.6,-1.55 m 32.1,-2.55 6.1,-2.25 q 9.55,4.45 7,31.9 l -9.95,2.9 0.9,-4.5 q 0.75,-4.95 0.75,-11.85 0,-8.5 -3.1,-14 l -1.7,-2.2 m 588,34.4 -0.25,-0.85 q -1.45,-4.85 -1.45,-7.9 0,-12 3,-19.55 0.85,-2.15 1.9,-3.8 l 10.55,0.65 11.95,-0.7 2.75,-0.4 1.3,1.75 q 3.7,6.55 3.7,15.3 0,6.45 -3.2,13.25 l -1.6,3.15 q -14,1.4 -28.65,-0.9 m -4.85,-33.55 -1.65,2.45 q -3.85,6.95 -3.85,19.1 0,4.2 1.35,9.45 l 0.25,0.8 q -6.15,-1.45 -12.35,-3.5 -2.55,-26.7 6.4,-31.65 4.45,2.05 9.85,3.35"
       id="path66"
       inkscape:connector-curvature="0"
       style="fill:#705b44;fill-rule:evenodd;stroke:none" />
    <path
       d="M 716.95,5.45 H 709 702.35 q -7.05,109.65 -3.05,211.4 4.35,1.9 9.7,3.05 l 7.95,1.25 8.4,0.45 11.9,-0.7 0.15,-0.05 q 9.05,-1.25 17.15,-4.7 1.55,-96 -1.7,-210.7 h -15.6 -20.3 M 72.3,3.45 q 0,-0.85 0.6,-1.4 0.6,-0.6 1.4,-0.6 h 55.35 q 0.8,0 1.4,0.55 0.55,0.55 0.6,1.4 3.95,110.7 0,213.45 12.1,5.25 8.85,37.15 l -0.4,1.05 -0.95,0.65 q -6.8,2.3 -13.5,3.9 -18.7,4.45 -36.4,3.1 -15.9,-1.2 -30.95,-7 l -0.85,-0.65 q -0.35,-0.45 -0.4,-1 -3.5,-30.5 11.4,-37.85 Q 70.8,114.25 72.3,3.45 M 699.1,2 q 0.55,-0.55 1.35,-0.55 h 54.35 q 0.8,0 1.4,0.6 0.6,0.55 0.6,1.35 3.35,115.65 1.75,212.35 14.95,7.35 11.5,37.8 l -0.4,1 -0.85,0.65 q -15.3,5.9 -31.4,7.05 l -24.2,-0.9 -8.9,-1.6 Q 696.2,258 687.9,255.2 l -0.9,-0.65 q -0.4,-0.45 -0.45,-1.05 -3.25,-31.65 8.7,-37.1 Q 691.3,113.85 698.45,3.35 698.5,2.55 699.1,2 M 114.3,5.45 H 92.7 76.3 q -1.5,109.7 -3.85,210.75 9.45,4.05 20.25,5.1 l 0.85,0.05 8.05,0.3 12.65,-1 h 0.05 l 7.25,-1.6 q 3.25,-0.9 6.1,-2.15 3.95,-101.75 0.1,-211.45 h -6.2 -7.25 m 277.25,0 h -4.35 q -6.05,123.5 -6.9,211.95 4.2,1.65 8.55,2.9 l 2.7,0.7 q 7.1,1.75 14.35,2.25 6.4,0.45 12.95,-0.05 l 13.05,-2 0.25,-0.05 7.7,-2.05 q 4.45,-85.2 0.8,-213.65 H 431.9 418.85 405.9 391.55 m -8.25,-2.1 q 0.05,-0.8 0.65,-1.35 0.55,-0.55 1.35,-0.55 h 57.3 q 0.8,0 1.4,0.6 0.6,0.55 0.6,1.35 3.7,129.9 -0.75,215.85 14.75,6.7 12.5,39.75 l -0.4,1.1 -0.95,0.65 q -11.3,3.75 -21.9,5.6 -12.1,2.15 -23.35,1.8 l -13.1,-1.1 -12.15,-2.2 q -9.45,-2.15 -19.3,-5.6 l -0.9,-0.65 q -0.35,-0.45 -0.4,-1 -3.9,-33.15 12.35,-40.2 0.9,-89.25 7.05,-214.05 m -0.8,256.9 q 7.15,1.75 14.05,2.75 l 13.3,1.15 h 0.05 l 15.45,-0.7 9.45,-1.45 q 8.6,-1.7 17.65,-4.6 1.7,-28.95 -10.85,-34.7 l -7.95,2.15 -1.75,0.4 -11.35,1.8 -1.7,0.15 q -6.55,0.5 -12.95,0.1 l -1.15,-0.1 q -6.7,-0.55 -13.2,-2.05 l -4.8,-1.3 q -4.3,-1.25 -8.45,-2.9 -13.65,6.15 -10.6,34.95 7.5,2.55 14.8,4.35 m -267.2,-35.7 -13.65,1.1 -8.95,-0.35 -1.25,-0.1 q -11.2,-1.25 -21,-5.5 -12.3,6.5 -9.6,32.65 13.55,5.05 27.75,6.25 14.1,1.2 28.9,-1.4 l 9.2,-2 9.95,-2.9 q 2.55,-27.45 -7,-31.9 l -6.1,2.25 -1.9,0.55 -6.35,1.35 m 596.25,32.5 q 14.65,2.3 28.65,0.9 13.3,-1.35 26,-6.1 2.65,-25.7 -9.25,-32.4 Q 748.9,223 740,224.5 l -2.75,0.4 -11.95,0.7 -10.55,-0.65 -8.05,-1.45 q -5.4,-1.3 -9.85,-3.35 -8.95,4.95 -6.4,31.65 6.2,2.05 12.35,3.5 l 8.75,1.75"
       id="path68"
       inkscape:connector-curvature="0"
       style="fill:#000000;fill-rule:evenodd;stroke:none" />
    <path
       d="m 737.25,5.45 h 15.6 q 3.25,114.7 1.7,210.7 -8.1,3.45 -17.15,4.7 l -0.15,0.05 0.05,-0.3 Q 742.45,123.45 737.25,5.45 M 92.7,221.3 Q 81.9,220.25 72.45,216.2 74.8,115.15 76.3,5.45 h 16.4 q -3.5,120.8 0,215.85 m 298.85,-0.3 -2.7,-0.7 q -4.35,-1.25 -8.55,-2.9 0.85,-88.45 6.9,-211.95 h 4.35 q -3,124.6 -0.1,211.8 l 0.1,3.75 M 431.9,5.45 h 8.75 q 3.65,128.45 -0.8,213.65 l -7.7,2.05 -0.25,0.05 q 4,-100 0,-215.75"
       id="path70"
       inkscape:connector-curvature="0"
       style="fill:#987356;fill-rule:evenodd;stroke:none" />
    <path
       d="m 386.75,223.85 -1.2,2.45 q -4.8,10.6 -4.8,24.75 0,3.3 1.3,7.8 l 0.45,1.4 q -7.3,-1.8 -14.8,-4.35 -3.05,-28.8 10.6,-34.95 4.15,1.65 8.45,2.9 m 46.9,1 7.95,-2.15 q 12.55,5.75 10.85,34.7 -9.05,2.9 -17.65,4.6 l 1.3,-4.35 q 1.65,-6.55 1.65,-14.35 0,-7.6 -2.6,-14.9 l -1.5,-3.55 M 88.6,258.6 q -14.2,-1.2 -27.75,-6.25 -2.7,-26.15 9.6,-32.65 9.8,4.25 21,5.5 l -0.6,1.55 Q 88,234.7 88,247.05 q 0,6.6 0.6,11.55 m 651.6,-0.65 1.6,-3.15 q 3.2,-6.8 3.2,-13.25 0,-8.75 -3.7,-15.3 L 740,224.5 q 8.9,-1.5 16.95,-5.05 11.9,6.7 9.25,32.4 -12.7,4.75 -26,6.1"
       id="path72"
       inkscape:connector-curvature="0"
       style="fill:#574735;fill-rule:evenodd;stroke:none" />
    <path
       d="m 709,5.45 h 7.95 v 215.7 L 709,219.9 V 5.45 m -594.7,0 h 7.25 v 213.6 l -7.25,1.6 V 5.45"
       id="path74"
       inkscape:connector-curvature="0"
       style="fill:#c8b19d;fill-rule:evenodd;stroke:none" />
    <path
       d="m 115.3,224.55 6.35,-1.35 1.9,-0.55 1.7,2.2 q 3.1,5.5 3.1,14 0,6.9 -0.75,11.85 l -0.9,4.5 -9.2,2 0.8,-6.55 q 1.05,-8.8 1.05,-12 0,-6.3 -2,-10.75 l -2.05,-3.35 m 599.45,0.4 q -1.05,1.65 -1.9,3.8 -3,7.55 -3,19.55 0,3.05 1.45,7.9 l 0.25,0.85 -8.75,-1.75 -0.25,-0.8 q -1.35,-5.25 -1.35,-9.45 0,-12.15 3.85,-19.1 l 1.65,-2.45 8.05,1.45"
       id="path76"
       inkscape:connector-curvature="0"
       style="fill:#9d8060;fill-rule:evenodd;stroke:none" />
    <path
       d="m 396.55,263 q 0.25,-14.15 3.45,-24.95 2.15,-7.4 4.75,-10.85 l 1.15,0.1 q 6.4,0.4 12.95,-0.1 l 1.7,-0.15 q 1.4,3.1 2.65,7.5 2.8,9.7 2.8,20.7 l -0.45,6.05 -0.2,2.15 -15.45,0.7 h -0.05 L 396.55,263"
       id="path78"
       inkscape:connector-curvature="0"
       style="fill:#80674d;fill-rule:evenodd;stroke:none" />
    <path
       d="m 405.9,5.45 h 12.95 V 223.2 q -6.55,0.5 -12.95,0.05 V 5.45"
       id="path80"
       inkscape:connector-curvature="0"
       style="fill:#b4967a;fill-rule:evenodd;stroke:none" />
  </g>
</svg>
