<?xml version="1.0" encoding="UTF-8" standalone="no"?>
<svg
   xmlns:dc="http://purl.org/dc/elements/1.1/"
   xmlns:cc="http://creativecommons.org/ns#"
   xmlns:rdf="http://www.w3.org/1999/02/22-rdf-syntax-ns#"
   xmlns:svg="http://www.w3.org/2000/svg"
   xmlns="http://www.w3.org/2000/svg"
   xmlns:sodipodi="http://sodipodi.sourceforge.net/DTD/sodipodi-0.dtd"
   xmlns:inkscape="http://www.inkscape.org/namespaces/inkscape"
   height="54"
   width="54"
   version="1.1"
   id="svg16"
   sodipodi:docname="water.svg"
   inkscape:version="0.92.3 (2405546, 2018-03-11)">
  <metadata
     id="metadata22">
    <rdf:RDF>
      <cc:Work
         rdf:about="">
        <dc:format>image/svg+xml</dc:format>
        <dc:type
           rdf:resource="http://purl.org/dc/dcmitype/StillImage" />
        <dc:title></dc:title>
      </cc:Work>
    </rdf:RDF>
  </metadata>
  <defs
     id="defs20" />
  <sodipodi:namedview
     pagecolor="#ffffff"
     bordercolor="#666666"
     borderopacity="1"
     objecttolerance="10"
     gridtolerance="10"
     guidetolerance="10"
     inkscape:pageopacity="0"
     inkscape:pageshadow="2"
     inkscape:window-width="1600"
     inkscape:window-height="877"
     id="namedview18"
     showgrid="false"
     inkscape:zoom="5.9916491"
     inkscape:cx="3.1710802"
     inkscape:cy="16.25"
     inkscape:window-x="-8"
     inkscape:window-y="90"
     inkscape:window-maximized="1"
     inkscape:current-layer="svg16" />
  <g
     transform="translate(8.05,10.7)"
     id="g14">
    <path
       d="m 8.5,8.9 q -6.75,5.8 -8.85,0 L -1,8.7 V 5.35 l 0.75,0.2 q 2.3,4.5 8.55,-0.8 1.35,6.15 9.75,-0.1 2,3.55 4.55,3.5 2.5,0 5.6,-3.6 3.05,8.9 10.35,-0.1 l 0.3,0.2 V 8.8 l -1.5,1.65 Q 31.05,16.75 28.2,8.7 22,15.95 18.25,8.8 9.85,15.1 8.5,8.9"
       id="path2"
       inkscape:connector-curvature="0"
       style="fill:#78addb;fill-rule:evenodd;stroke:none" />
    <path
       d="M 6.25,24.05 Q 4.6,22.85 3.4,21.3 -1.4,14.3 -1,8.7 l 0.65,0.2 q 2.1,5.8 8.85,0 1.35,6.2 9.75,-0.1 3.75,7.15 9.95,-0.1 2.85,8 9.1,1.75 L 38.85,8.8 q -2.1,17.9 -21.3,19.6 -5.25,0.45 -11.3,-4.35"
       id="path4"
       inkscape:connector-curvature="0"
       style="fill:#4777b2;fill-rule:evenodd;stroke:none" />
    <path
       d="M 11.6,15.25 9.4,14.9 Q 8.3,14.5 7.5,13.7 L 7.4,13.75 Q 6.9,14 6.7,14.15 l -0.25,0.1 -1.8,0.65 -0.3,0.05 q 1,2.1 2.3,3.95 l 1.95,1.9 0.15,0.1 q 4.5,3.6 7.9,3.5 h 0.5 q 8.25,-0.75 12.6,-4.65 1.55,-1.5 2.55,-3.25 H 31.9 L 31.75,16.45 31.1,16.35 30.45,16.15 29.2,15.6 28.65,15.2 H 28.6 L 27.7,14.35 27.35,14 l -0.3,0.2 q -2.2,1.45 -4.45,1.45 -2.4,0 -4.35,-1.55 L 18.2,14 17.45,13.3 q -3.1,1.85 -5.85,1.95 M 42.9,4.4 v 4.4 l -0.05,0.5 q -1.2,10.45 -7.65,16.35 -6.35,5.85 -17.35,6.8 l -1.2,0.05 Q 10.4,32.45 3.8,27.25 1.9,25.9 0.25,23.8 L 0.1,23.6 Q -5,16.2 -5,9.7 V 5.35 Q -5,3.9 -4.05,2.75 -3.1,1.65 -1.7,1.4 l 0.95,-0.1 1.1,0.1 q 1.2,0.35 1.95,1 l 0.85,1 0.2,-0.1 2.3,-1.6 Q 6.45,1 7.5,0.8 l 2.05,0.1 q 1.9,0.65 2.55,2.65 l 0.45,-0.2 3.1,-1.95 q 1.4,-1.1 3.2,-0.7 1.7,0.35 2.7,1.95 l 1.1,1.45 0.4,-0.2 2.05,-1.95 q 0.7,-0.85 1.75,-1.2 l 2.1,-0.15 q 1.05,0.2 1.9,0.95 0.8,0.7 1.15,1.7 l 0.6,1.45 0.15,-0.1 2.55,-2.55 0.1,-0.2 q 0.75,-1.1 1.95,-1.55 l 2.5,-0.2 q 1.25,0.35 2.1,1.35 0.8,1.05 0.9,2.35 l 0.05,0.6"
       id="path6"
       inkscape:connector-curvature="0"
       style="fill:#ffffff;fill-rule:evenodd;stroke:none" />
    <path
       d="m 8.5,8.9 q -6.75,5.8 -8.85,0 L -1,8.7 V 5.35 l 0.75,0.2 q 2.3,4.5 8.55,-0.8 1.35,6.15 9.75,-0.1 2,3.55 4.55,3.5 2.5,0 5.6,-3.6 3.05,8.9 10.35,-0.1 l 0.3,0.2 V 8.8 l -1.5,1.65 Q 31.05,16.75 28.2,8.7 22,15.95 18.25,8.8 9.85,15.1 8.5,8.9"
       id="path8"
       inkscape:connector-curvature="0"
       style="fill:#78addb;fill-rule:evenodd;stroke:none" />
    <path
       d="M 6.25,24.05 Q 4.6,22.85 3.4,21.3 -1.4,14.3 -1,8.7 l 0.65,0.2 q 2.1,5.8 8.85,0 1.35,6.2 9.75,-0.1 3.75,7.15 9.95,-0.1 2.85,8 9.1,1.75 L 38.85,8.8 q -2.1,17.9 -21.3,19.6 -5.25,0.45 -11.3,-4.35"
       id="path10"
       inkscape:connector-curvature="0"
       style="fill:#4777b2;fill-rule:evenodd;stroke:none" />
    <path
       d="m 2.7,7.1 q 2.05,0 5.25,-2.75 l 0.5,-0.1 0.35,0.4 q 0.3,1.4 0.95,2 0.6,0.6 1.65,0.6 2.2,0.1 6.35,-3 l 0.4,-0.1 0.3,0.25 q 1.9,3.25 4.1,3.25 2.35,0 5.25,-3.4 0.15,-0.25 0.5,-0.2 l 0.35,0.35 q 1.45,4.15 3.6,4.05 2.3,0.1 5.9,-4.3 l 0.25,-0.4 q 0.2,-0.3 0.55,-0.2 L 39.3,4 39.35,8.9 Q 38.3,18 32.8,23.1 q -5.5,5 -15.25,5.8 l -0.9,0.05 Q 11.6,28.95 5.95,24.5 4.2,23.15 3,21.6 -1.5,15.1 -1.5,9.7 V 5.35 q 0,-0.4 0.45,-0.5 h 0.3 L -0.3,4.9 0.2,5.35 Q 1.15,7.1 2.7,7.1 M 9.3,7.6 Q 8.4,6.9 8,5.65 4.95,8.1 2.7,8.1 0.75,8.15 -0.45,6.25 V 8.7 8.75 L -0.5,9.7 q 0,5.05 4.3,11.3 1.35,1.7 2.8,2.65 5.4,4.3 10.05,4.3 l 0.8,-0.05 q 9.5,-0.85 14.65,-5.6 5.2,-4.7 6.25,-13.5 V 5.45 Q 34.9,9.5 32.25,9.5 29.55,9.5 28,5.55 25.1,8.7 22.55,8.7 19.95,8.7 17.85,5.4 13.9,8.25 11.4,8.3 10.2,8.3 9.3,7.6"
       id="path12"
       inkscape:connector-curvature="0"
       style="fill:#1c5195;fill-rule:evenodd;stroke:none" />
  </g>
</svg>
