<?xml version="1.0" encoding="UTF-8" standalone="no"?>
<svg xmlns:xlink="http://www.w3.org/1999/xlink" height="264.65px" width="234.6px" xmlns="http://www.w3.org/2000/svg">
  <g transform="matrix(1.0, 0.0, 0.0, 1.0, 0.0, 0.0)">
    <path d="M230.25 4.45 Q234.6 8.8 234.6 15.0 L234.6 249.65 Q234.6 255.85 230.2 260.25 225.8 264.65 219.6 264.65 L14.95 264.65 Q8.75 264.65 4.4 260.25 0.0 255.85 0.0 249.65 L0.0 15.0 Q0.0 8.8 4.4 4.4 8.75 0.0 14.95 0.0 L219.7 0.0 Q225.85 0.05 230.25 4.45 M220.9 13.9 Q219.15 12.0 216.6 12.0 L70.75 12.0 Q68.8 12.0 67.4 13.55 66.05 15.05 66.05 17.0 L66.05 87.3 Q66.05 104.5 58.15 112.8 50.55 120.75 35.65 120.75 L16.6 120.75 Q14.5 120.75 13.2 122.0 11.95 123.15 11.95 124.75 L11.95 246.65 Q11.95 249.15 13.7 250.9 15.45 252.65 18.0 252.65 L216.65 252.65 Q219.05 252.65 220.75 251.05 222.6 249.3 222.6 246.65 L222.6 18.0 Q222.6 15.65 220.9 13.9" fill="#FBEB2D" fill-rule="evenodd" stroke="none"/>
  </g>
</svg>
